<svg width="35" height="35" viewBox="0 0 35 35" fill="none" xmlns="http://www.w3.org/2000/svg">
<circle cx="17.3768" cy="17.3768" r="16.3768" stroke="white" stroke-width="2"/>
<path d="M10.7093 8.22243V8.99772H10.1395C9.78672 8.99772 9.46109 9.02098 9.2944 9.05587C8.4222 9.23807 7.69342 9.96684 7.51123 10.839C7.42595 11.2461 7.42595 25.0463 7.51123 25.4533C7.69342 26.3255 8.4222 27.0543 9.2944 27.2365C9.70143 27.3218 25.0523 27.3218 25.4593 27.2365C26.3315 27.0543 27.0603 26.3255 27.2425 25.4533C27.3277 25.0463 27.3277 11.2461 27.2425 10.839C27.0603 9.96684 26.3315 9.23807 25.4593 9.05587C25.2926 9.02098 24.967 8.99772 24.6181 8.99772H24.0444V8.22243V7.44714H23.2691H22.4938V8.22243V8.99772H17.3768H12.2599V8.22243V7.44714H11.4846H10.7093V8.22243ZM10.7093 11.3236V12.0989H11.4846H12.2599V11.3236V10.5483H17.3768H22.4938V11.3236V12.0989H23.2691H24.0444V11.3197V10.5406L24.6375 10.5561C25.1957 10.5677 25.2422 10.5716 25.374 10.6646C25.4554 10.7189 25.5678 10.8313 25.626 10.9127L25.7306 11.0639L25.7423 12.126L25.7539 13.1843H17.3807H9.00367V12.2036C9.00367 11.6647 9.02305 11.1647 9.04243 11.0833C9.09283 10.9127 9.35643 10.6375 9.52312 10.591C9.58902 10.5716 9.88363 10.5522 10.1782 10.5522L10.7093 10.5483V11.3236ZM25.7423 19.9798L25.7306 25.2285L25.626 25.3797C25.5678 25.4611 25.4554 25.5735 25.374 25.6278L25.2306 25.7247H17.3768H9.52312L9.37969 25.6278C9.29828 25.5735 9.18586 25.4611 9.12772 25.3797L9.02305 25.2285L9.01142 19.9798L9.00367 14.7349H17.3768H25.75L25.7423 19.9798Z" fill="white"/>
<path d="M10.3994 17.1383V17.9136H11.1747H11.95V17.1383V16.363H11.1747H10.3994V17.1383Z" fill="white"/>
<path d="M13.5 17.1383V17.9136H14.2753H15.0506V17.1383V16.363H14.2753H13.5V17.1383Z" fill="white"/>
<path d="M16.6016 17.1383V17.9136H17.3769H18.1522V17.1383V16.363H17.3769H16.6016V17.1383Z" fill="white"/>
<path d="M19.7021 17.1383V17.9136H20.4774H21.2527V17.1383V16.363H20.4774H19.7021V17.1383Z" fill="white"/>
<path d="M22.8037 17.1383V17.9136H23.579H24.3543V17.1383V16.363H23.579H22.8037V17.1383Z" fill="white"/>
<path d="M10.3994 20.2395V21.0148H11.1747H11.95V20.2395V19.4642H11.1747H10.3994V20.2395Z" fill="white"/>
<path d="M13.5 20.2395V21.0148H14.2753H15.0506V20.2395V19.4642H14.2753H13.5V20.2395Z" fill="white"/>
<path d="M16.6016 20.2395V21.0148H17.3769H18.1522V20.2395V19.4642H17.3769H16.6016V20.2395Z" fill="white"/>
<path d="M19.7021 20.2395V21.0148H20.4774H21.2527V20.2395V19.4642H20.4774H19.7021V20.2395Z" fill="white"/>
<path d="M22.8037 20.2395V21.0148H23.579H24.3543V20.2395V19.4642H23.579H22.8037V20.2395Z" fill="white"/>
<path d="M10.3994 23.3406V24.1159H11.1747H11.95V23.3406V22.5653H11.1747H10.3994V23.3406Z" fill="white"/>
<path d="M13.5 23.3406V24.1159H14.2753H15.0506V23.3406V22.5653H14.2753H13.5V23.3406Z" fill="white"/>
<path d="M16.6016 23.3406V24.1159H17.3769H18.1522V23.3406V22.5653H17.3769H16.6016V23.3406Z" fill="white"/>
<path d="M19.7021 23.3406V24.1159H20.4774H21.2527V23.3406V22.5653H20.4774H19.7021V23.3406Z" fill="white"/>
</svg>
