<svg width="133" height="258" viewBox="0 0 133 258" fill="none" xmlns="http://www.w3.org/2000/svg">
    <mask id="path-1-inside-1_704_2016" fill="white">
        <path
            d="M12.1564 1.22728C10.9987 5.25626 10.5587 10.2114 10.7208 17.5516C10.9061 25.818 11.786 32.2088 13.6847 39.2248C14.5877 42.5823 16.0465 46.7502 16.7643 48.07C17.2042 48.9036 17.2042 48.7184 16.7875 46.3566C15.4908 38.9469 14.2172 20.747 14.4025 12.2722L14.4719 8.91477L16.1391 11.3461C20.608 17.8758 25.5401 22.7615 31.8383 26.9757C34.8253 28.9439 40.012 31.491 42.9527 32.4172C44.2262 32.834 45.4535 33.2276 45.685 33.3202C46.0323 33.436 45.685 33.7833 43.9484 35.08C40.8919 37.3724 37.4186 40.4057 35.682 42.2813C34.1769 43.9253 33.0192 45.6619 33.1581 46.0555C33.1813 46.1945 33.8528 45.8703 34.6169 45.3609C41.6097 40.6836 48.1163 37.7197 55.3407 35.8904C58.675 35.0569 64.8806 33.7602 64.9963 33.8991C65.0427 33.9454 63.3986 34.8948 61.3147 36.0294C43.7168 45.523 33.6907 52.701 25.3548 61.7315C20.8396 66.6404 17.7831 70.6462 13.592 77.176C8.45162 85.1876 5.46461 92.5046 2.66284 103.804C1.78295 107.37 5.38921e-06 116.378 5.34284e-06 117.211C5.33382e-06 117.373 0.370487 116.864 0.810434 116.123C2.08396 114.016 3.93637 111.839 5.69616 110.427C7.20124 109.199 13.8004 104.43 13.9857 104.43C14.032 104.43 13.6152 105.749 13.0826 107.37C6.92338 125.663 6.71498 157.2 12.6427 175.516L13.291 177.484L13.5689 174.474C13.731 172.807 14.0783 170.63 14.333 169.634C15.0045 167.11 16.7874 163.498 18.4778 161.252C20.2607 158.89 23.6182 155.672 26.3042 153.796L28.365 152.314L28.5039 156.112C29.268 175.307 35.9367 192.28 48.4636 206.775C48.9267 207.331 49.3203 207.632 49.3203 207.447C49.3203 207.261 49.1583 205.872 48.973 204.344C48.7878 202.816 48.6488 199.898 48.6488 197.86C48.6488 192.187 49.3898 189.061 51.1959 187.001C52.2842 185.75 53.002 185.333 54.5997 185.009C56.591 184.569 59.9948 185.565 62.2177 187.232C62.6114 187.533 63.005 187.788 63.0513 187.788C63.0976 187.788 63.2134 186.769 63.2829 185.495C63.8386 176.28 68.1686 166.254 74.3047 159.979L76.5276 157.686L86.1369 154.699C100.563 150.207 105.865 148.609 105.958 148.725C106.189 148.934 103.318 151.319 100.979 152.87C97.8534 154.931 91.0227 158.311 85.1644 160.673C80.1166 162.711 80.4639 162.456 77.2454 166.462C73.7721 170.769 71.2945 175.168 70.3683 178.688C69.6737 181.281 69.6737 184.963 70.3683 187.417C71.3408 190.96 73.4943 194.827 76.8981 199.111L78.8199 201.519L79.2367 199.805C79.723 197.791 80.1861 197.096 81.3438 196.517C82.0848 196.147 82.3627 196.124 83.451 196.355C85.7896 196.841 91.4858 199.342 96.5104 202.075C106.374 207.447 113.807 210.225 123.625 212.24C127.909 213.12 128.789 213.189 129.205 212.68C129.669 212.124 129.321 210.434 128.326 208.326C125.941 203.255 122.838 201.241 112.024 197.652C108.759 196.587 105.356 195.313 104.499 194.873C101.026 193.044 99.3585 190.798 98.8491 187.209C98.687 186.19 98.5712 183.064 98.5712 180.262C98.5481 174.728 98.8491 172.204 99.9605 168.685C100.563 166.786 102.276 163.105 102.484 163.313C102.554 163.359 102.484 164.795 102.322 166.485C101.929 171.047 102.16 178.804 102.785 181.235C103.99 186.051 106.768 189.177 109.871 189.27C111.144 189.293 111.955 188.668 113.877 186.098C114.757 184.94 115.66 183.828 115.868 183.643C116.215 183.342 116.91 183.62 122.213 186.236C125.477 187.834 128.928 189.478 129.854 189.849L131.544 190.543L133.211 189.895C134.137 189.524 137.68 188.019 141.107 186.537C146.039 184.407 147.405 183.898 147.66 184.129C147.845 184.268 148.609 185.241 149.373 186.306C150.948 188.483 151.758 189.247 152.939 189.64C155.394 190.451 158.612 188.089 160.094 184.384C161.368 181.258 161.715 178.734 161.715 172.274C161.738 169.032 161.669 165.628 161.576 164.749L161.391 163.128L162.062 164.401C163.012 166.23 164.1 169.403 164.679 172.112C165.559 176.28 165.304 184.893 164.146 190.381C163.915 191.377 163.66 191.817 162.572 192.905C160.812 194.665 158.728 195.637 151.434 198.092C147.544 199.389 144.465 200.593 142.404 201.611C139.695 202.954 139.069 203.371 137.518 204.899C136.082 206.335 135.573 207.053 134.763 208.743C134.23 209.878 133.721 211.267 133.651 211.8C133.512 213.12 133.999 213.374 136.522 213.189C143.122 212.726 158.08 207.609 165.86 203.14C170.19 200.662 176.303 198.115 179.382 197.513C181.119 197.166 182.439 197.49 183.226 198.416C183.712 199.018 183.921 199.597 184.5 201.982C184.662 202.63 184.731 202.561 186.954 199.782C190.728 195.105 192.674 191.678 193.484 188.344C194.04 186.098 193.993 182.393 193.368 180.077C192.164 175.539 189.455 170.815 184.847 165.304L183.388 163.568L179.637 161.97C171.857 158.659 164.934 155 161.46 152.384C159.84 151.156 158.427 149.698 158.659 149.466C158.705 149.42 162.387 150.601 166.832 152.106C171.301 153.611 177.901 155.764 181.513 156.899L188.112 158.96L189.941 161.044C193.345 164.934 196.332 169.982 197.953 174.682C199.412 178.827 200.523 184.43 200.523 187.556C200.523 188.344 200.593 188.946 200.708 188.899C200.801 188.853 201.727 188.39 202.792 187.834C205.363 186.514 207.47 186.028 209.16 186.399C212.286 187.047 214.161 189.849 214.856 194.85C215.319 198.046 215.157 201.426 214.277 207.817L214.138 208.975L215.458 207.701C222.266 201.125 229.56 187.927 232.894 176.095C234.7 169.727 235.51 164.262 235.58 158.335C235.58 155.926 235.696 154.445 235.835 154.445C236.298 154.445 240.28 157.594 242.11 159.423C247.088 164.378 249.612 170.167 250.214 178.04L250.376 180.216L250.932 178.85C254.961 168.916 257.346 150.693 256.605 135.619C256.049 124.574 254.382 115.59 251.58 108.644C251.14 107.555 250.816 106.606 250.885 106.56C251.094 106.351 254.498 108.459 256.304 109.917C259.221 112.256 261.328 114.757 263.667 118.716C264.362 119.897 264.941 120.87 264.987 120.87C265.103 120.87 264.431 116.192 263.829 112.765C260.402 93.5929 252.622 77.3381 240.304 63.746C232.616 55.2481 223.771 48.5794 208.743 39.9426C202.167 36.1452 200.569 35.1495 200.894 35.0337C201.287 34.8948 205.918 35.9831 209.669 37.0714C216.871 39.1553 224.882 42.7444 230.069 46.1945C231.644 47.2596 232.94 48.07 232.94 48.0237C232.94 47.7459 231.273 45.3377 229.93 43.6937C228.263 41.6098 225.762 39.3406 222.474 36.9093C221.201 35.9831 220.182 35.1495 220.182 35.0569C220.182 34.9642 221.34 34.5475 222.752 34.1075C233.82 30.7732 243.128 23.6646 250.747 12.7817L251.974 10.9987L251.835 16.9033C251.58 28.5503 250.399 41.4245 248.94 49.0194C248.709 50.2698 248.524 51.3118 248.57 51.3581C248.616 51.4044 249.172 50.0382 249.843 48.3479C254.081 37.4882 256.443 22.5068 255.655 11.2998C255.354 6.85397 254.961 4.46899 254.266 2.89445L253.803 1.85248L252.553 1.85248C248.269 1.85248 241.577 2.98707 226.341 6.2751C199.296 12.1102 188.158 13.87 175.631 14.2636C167.411 14.5415 158.844 13.1522 141.918 8.89161L133.188 6.69189L126.288 8.31274C107.208 12.7817 96.7188 14.171 87.642 13.4532C77.6853 12.6659 66.5014 10.6514 42.7212 5.37204C24.1508 1.22728 17.5747 4.67542e-05 14.1478 4.65635e-05L12.5269 4.64733e-05L12.1564 1.22728ZM134.531 8.70637C137.68 10.9293 142.913 13.3605 148.378 15.1435C153.194 16.718 157.802 17.8295 168.222 19.8903C180.147 22.2753 190.265 24.9844 198.092 27.9019C201.403 29.1292 205.224 30.7963 205.085 30.9353C205.038 30.9816 202.978 30.5416 200.5 29.9627C181.536 25.517 163.498 22.2984 150.045 20.9554C145.784 20.5386 134.415 20.2608 135.11 20.5849C135.365 20.7239 137.564 21.3259 139.973 21.9742C167.62 29.2449 192.905 39.6879 208.512 50.2698C212.865 53.2336 213.05 53.4189 211.059 52.6547C190.474 44.9672 175.77 40.452 165.675 38.7617C163.035 38.2986 156.459 38.1828 156.088 38.5533C155.926 38.7154 156.691 39.1553 158.566 39.9194C164.447 42.397 186.236 52.1685 186.7 52.5621C186.792 52.6547 185.148 52.7937 183.018 52.8863C176.766 53.141 170.375 53.8125 168.407 54.4377L167.643 54.6924L168.87 55.6417C174.867 60.3422 181.791 67.5898 185.449 73.0081C186.676 74.8373 188.019 77.1528 188.019 77.4538C188.019 77.5465 186.792 76.435 185.287 74.9763C175.863 65.83 162.294 56.6837 150.022 51.196L146.433 49.5751L143.214 50.2698C139.533 51.0339 136.569 51.8212 134.091 52.6779L132.378 53.2568L130.386 52.4695C129.298 52.0295 126.242 51.1265 123.602 50.455L118.786 49.2509L111.793 52.7474C97.6219 59.8097 87.4336 66.6173 79.4451 74.4205L77.0602 76.7592L77.778 75.4857C78.7968 73.6332 81.0197 70.5536 83.1963 67.9371C85.6738 64.9269 92.2499 58.2583 95.0053 55.9196C96.2094 54.9008 97.1819 54.044 97.1588 53.9977C97.1125 53.9746 96.1399 53.743 94.9822 53.4883C92.0647 52.84 87.8967 52.4 83.3583 52.1916C77.1528 51.9369 77.1759 52.099 83.0342 49.5056C89.5408 46.6113 93.1529 45.1062 101.998 41.5171C105.958 39.9194 109.292 38.5533 109.408 38.4607C109.755 38.2523 107.602 38.0207 105.008 37.9976C95.8621 37.9049 80.6723 41.795 58.5361 49.8761C55.5259 50.9644 52.9789 51.8675 52.8862 51.8675C52.261 51.8675 58.9992 47.4448 63.8849 44.6431C81.6449 34.478 104.128 26.2579 128.279 21.0944L130.479 20.6081L124.69 20.7239C110.218 21.0017 93.5697 23.2015 70.2757 27.9019C65.0658 28.9671 60.759 29.8007 60.7127 29.7544C60.6895 29.7312 62.102 29.106 63.8386 28.365C73.6332 24.2434 78.7042 22.8773 96.7883 19.4735C110.89 16.8107 115.104 15.815 121.078 13.6153C123.81 12.6196 129.506 9.88729 131.752 8.49798C132.447 8.05804 133.142 7.75701 133.258 7.82648C133.396 7.89594 133.952 8.28959 134.531 8.70637ZM68.0991 57.9572C64.9732 64.3481 66.7561 71.4104 73.2396 78.1485L75.1383 80.1398L76.6434 79.4683C78.9357 78.4032 82.5711 77.1991 85.1181 76.6434C88.1051 75.9719 92.4583 75.9024 94.8201 76.5045C100.539 77.9632 105.587 82.4785 108.945 89.1472C109.686 90.6059 109.801 90.6754 106.977 88.1283C103.804 85.2803 99.0343 82.548 95.399 81.506C93.2224 80.8808 88.5451 80.6261 86.2296 81.0197C83.8214 81.4365 80.7881 82.5248 77.6159 84.0994L74.791 85.4887L73.7953 84.8403C72.1744 83.7289 68.6085 80.1398 66.9182 77.9169C65.3437 75.8561 63.4681 72.9154 62.2177 70.6462L61.5926 69.4422L60.4811 70.1831C56.0122 73.2164 54.3913 75.8561 53.9745 80.7419C53.7893 82.8953 53.9514 88.0589 54.3219 91.2311L54.4608 92.5046L53.8819 91.6942C52.7473 90.0502 51.1959 87.1327 50.4086 85.095C46.1481 74.2816 50.6402 64.9269 63.0976 58.6287C64.9732 57.6794 68.8169 56.0122 68.9327 56.1048C68.9559 56.128 68.5622 56.9616 68.0991 57.9572ZM200.87 59.1382C202.538 59.9486 204.876 61.2684 206.08 62.0789C208.813 63.9313 212.17 67.1961 213.606 69.419C217.797 75.9719 217.172 83.4742 211.707 91.9026C211.012 92.9678 210.41 93.8013 210.364 93.7319C210.318 93.6856 210.48 92.1342 210.734 90.3049C211.36 85.9286 211.406 81.4365 210.873 79.4452C210.318 77.3612 209.206 75.4394 207.771 73.9574C206.335 72.4987 204.135 70.9704 203.718 71.1557C203.556 71.202 202.792 72.2671 202.028 73.5175C199.018 78.4032 195.336 82.7795 192.303 85.095L190.566 86.438L187.603 85.0256C182.184 82.4322 177.669 81.3207 173.339 81.5754C170.421 81.7375 168.801 82.1543 166.091 83.4742C163.521 84.7014 162.178 85.6044 158.381 88.6609C156.806 89.9344 155.463 90.9301 155.417 90.8838C155.232 90.6986 157.385 86.878 158.612 85.2108C162.387 80.163 167.296 77.3612 173.2 76.9676C177.021 76.6897 182.809 77.9864 187.649 80.2093C188.645 80.6724 189.594 81.0429 189.733 81.0429C190.15 81.0429 193.646 77.5001 194.943 75.7867C198.925 70.461 199.759 64.3712 197.258 58.8603L196.587 57.3784L197.235 57.5405C197.582 57.6099 199.226 58.3509 200.87 59.1382ZM125.014 62.2641C127.515 63.1672 130.155 64.1397 130.919 64.487L132.285 65.089L134.276 64.2786C135.365 63.8386 138.097 62.843 140.343 62.102L144.418 60.7127L150.415 63.7692C158.89 68.0992 165.721 72.1513 167.087 73.6564C167.527 74.1658 167.527 74.1658 166.948 73.9806C166.624 73.888 163.29 72.8228 159.539 71.6188C155.787 70.4378 150.925 68.9328 148.748 68.2844L144.789 67.1267L141.802 68.0992C140.158 68.6318 137.333 69.6274 135.504 70.2989L132.216 71.5493L130.062 70.762C128.904 70.3221 126.172 69.2801 123.996 68.4465C120.846 67.1961 119.897 66.9183 119.272 67.034C117.906 67.2887 110.728 69.3727 105.819 70.9704C100.146 72.7997 97.0198 73.7027 96.8809 73.5869C96.7651 73.448 101.998 69.9979 104.754 68.4234C107.949 66.5941 119.689 60.7822 120.383 60.6896C120.43 60.6664 122.514 61.3842 125.014 62.2641ZM43.8094 64.4175C41.3087 68.5854 35.9599 79.422 34.038 84.1688C29.8238 94.6118 27.5083 103.55 26.1421 114.618C25.6327 118.693 25.2622 132.748 25.5632 135.318L25.7253 136.592L27.1378 135.55C29.0365 134.161 32.4866 132.239 35.4273 130.919C37.4881 130.016 47.6995 125.964 47.6995 126.056C47.6995 126.08 47.028 127.955 46.1944 130.247C42.8369 139.44 40.9151 146.919 39.711 155.255C39.4331 157.316 38.5301 165.304 38.4143 166.717C38.3911 167.272 37.5807 164.146 36.7008 159.955C35.2884 153.148 34.8947 148.054 35.4273 142.983C35.5431 141.848 35.5894 140.876 35.5431 140.829C35.4273 140.69 31.9309 142.589 29.3144 144.21C26.281 146.086 22.0668 149.304 19.6587 151.596C18.5241 152.685 17.5284 153.541 17.4589 153.472C17.32 153.31 17.019 150.717 16.5096 145.067C15.9539 138.884 15.9539 125.825 16.5096 120.916C17.621 111.144 19.6355 102.994 22.9699 94.7044C23.6182 93.1067 24.4981 91.1153 24.938 90.2354C25.3548 89.3787 25.679 88.6841 25.6095 88.6841C25.5632 88.6841 23.5719 89.8881 21.1638 91.3932C16.7643 94.1023 10.4661 97.7145 10.1188 97.7145C9.88723 97.7145 11.4155 95.4453 13.9857 92.0415C20.0523 84.0067 28.365 75.3467 35.7052 69.5116C38.1828 67.5203 43.6937 63.6766 44.0641 63.6766C44.1799 63.6766 44.0641 64.0239 43.8094 64.4175ZM227.128 69.3264C232.616 73.448 240.141 80.8113 245.676 87.5032C248.801 91.2543 254.938 99.2891 254.938 99.6364C254.938 100.169 250.746 97.7609 244.448 93.6393C242.063 92.0647 239.91 90.6754 239.678 90.5596C239.354 90.3744 239.516 90.907 240.373 92.852C243.754 100.424 246.463 111.446 247.69 122.49C248.199 127.26 248.269 141.339 247.806 145.877C247.412 149.651 246.648 155.185 246.486 155.324C246.416 155.394 245.513 154.63 244.448 153.611C242.017 151.249 239.748 149.42 236.437 147.151C233.774 145.321 229.305 142.635 228.911 142.635C228.795 142.635 228.772 143.793 228.865 145.345C229.189 150.601 228.471 156.644 226.642 163.984C225.785 167.527 225.299 168.592 225.299 166.995C225.299 165.86 223.655 153.24 223.192 150.74C222.289 145.97 220.552 139.417 218.584 133.535C217.496 130.271 216.685 127.585 216.778 127.585C216.871 127.585 218.7 128.279 220.83 129.136C225.971 131.174 231.69 134.068 235.233 136.384C236.807 137.402 238.127 138.213 238.173 138.166C238.798 137.541 239.169 127.075 238.752 121.217C238.081 111.677 236.437 102.16 234.098 94.1487C231.551 85.4423 227.105 75.4857 221.177 65.1817C221.015 64.9038 224.211 67.1267 227.128 69.3264ZM128.974 90.3049C129.669 90.8606 130.687 91.4858 131.22 91.7405L132.192 92.1805L133.42 91.5553C134.091 91.2311 135.203 90.5365 135.874 90.0271L137.101 89.124L140.852 90.2818C144.766 91.4858 148.633 92.8057 148.424 92.852C148.355 92.852 146.178 93.2225 143.585 93.6624C140.991 94.1023 138.838 94.496 138.815 94.5191C137.981 95.7695 132.632 102.786 132.378 102.994C131.891 103.411 131.567 103.063 128.627 98.8723C127.399 97.1588 126.172 95.4454 125.871 95.098C125.269 94.3571 124.991 94.2876 120.175 93.4309C115.266 92.5741 115.474 92.6436 116.586 92.1573C117.095 91.9489 118.925 91.3932 120.638 90.907C122.352 90.4438 124.551 89.8187 125.501 89.5408C126.45 89.2398 127.353 89.0545 127.469 89.1472C127.608 89.2398 128.279 89.7492 128.974 90.3049ZM87.781 90.3744C90.5596 91.7174 92.9214 94.496 97.784 101.998C102.971 110.033 105.935 112.904 110.241 114.039C113.946 115.035 119.063 113.807 123.741 110.82C124.482 110.357 125.13 109.987 125.176 110.033C125.269 110.149 124.181 111.77 123.417 112.673C120.846 115.683 115.845 118.022 110.936 118.462C109.871 118.577 109.315 118.716 109.385 118.878C110.033 120.383 110.936 123.741 111.168 125.408C111.515 128.071 111.307 132.933 110.704 136.407C110.288 138.653 108.922 144.465 108.736 144.65C108.713 144.673 108.736 143.099 108.783 141.13C108.945 135.504 108.32 129.877 107.092 125.616C106.444 123.417 104.893 119.897 104.453 119.619C104.244 119.48 98.8722 121.703 98.8722 121.912C98.8722 121.935 99.127 122.444 99.4511 123.023C100.192 124.32 100.725 126.751 100.725 128.812L100.725 130.386L99.127 128.58C94.6117 123.44 87.1326 118.137 78.079 113.599C72.1976 110.658 68.9559 109.338 65.3437 108.366C60.6663 107.162 58.3277 106.467 58.4435 106.351C58.4898 106.282 60.8747 106.421 63.7228 106.606C68.8632 107 73.61 107.648 75.6708 108.25C76.2497 108.435 76.7823 108.551 76.8286 108.505C76.8749 108.459 76.736 107.764 76.5276 106.953C76.2497 105.888 76.1571 104.8 76.2266 103.087L76.3192 100.725L75.0225 100.725C74.3278 100.725 72.6144 100.887 71.2019 101.095C69.8126 101.28 67.937 101.489 67.0572 101.581L65.4594 101.72L65.8994 100.956C66.5709 99.7753 70.4378 95.8158 72.3365 94.3802C74.6289 92.6204 77.3149 91.1153 79.3988 90.4438C81.8996 89.6334 81.8764 89.6334 84.2845 89.6797C86.1601 89.726 86.6927 89.8418 87.781 90.3744ZM185.032 91.3701C188.783 92.5278 192.118 94.6812 195.336 97.9924C197.166 99.868 199.481 102.786 199.273 102.971C199.226 103.017 197.281 102.739 194.966 102.346C192.627 101.975 190.242 101.651 189.64 101.651L188.552 101.651L188.575 104.244C188.575 106.004 188.459 107.301 188.205 108.204L187.811 109.57L188.32 109.431C190.891 108.736 197.837 107.926 202.491 107.787L206.196 107.648L202.028 108.806C197.536 110.056 196.587 110.357 190.914 112.487C186.167 114.247 184.199 115.081 181.767 116.401C176.812 119.064 171.927 122.884 165.976 128.719L163.475 131.174L163.475 129.669C163.475 127.677 163.938 125.894 164.818 124.227C165.235 123.486 165.536 122.861 165.489 122.838C165.212 122.583 161.53 120.615 160.905 120.337L160.071 119.99L159.122 121.773C156.714 126.288 155.787 130.919 155.232 141.362L155.07 144.141L154.306 140.899C153.24 136.499 152.824 133.466 152.824 130.317C152.824 126.427 153.426 123.532 155 119.689C155.139 119.365 154.908 119.295 153.657 119.156C148.447 118.624 143.145 115.822 140.436 112.186C139.232 110.566 139.139 110.241 140.042 110.89C140.412 111.145 141.64 111.816 142.774 112.395C149.466 115.752 154.537 115.637 159.353 112.001C161.831 110.149 163.822 107.694 168.152 101.165C172.922 93.9634 174.96 91.8332 177.901 90.8606C179.359 90.3744 182.624 90.6059 185.032 91.3701ZM60.7821 135.342C71.665 140.621 81.4828 142.612 97.1356 142.659L101.535 142.659L99.8216 143.33C90.2585 147.104 79.0978 147.591 71.2251 144.627C66.9182 142.983 62.1946 139.787 58.1887 135.735C55.2017 132.748 54.8081 132.123 56.5447 133.142C57.2162 133.559 59.1381 134.531 60.7821 135.342ZM208.859 134.3C208.396 135.156 204.807 138.583 202.769 140.112C198.902 143.006 194.873 144.974 190.474 146.109C186.954 147.012 184.847 147.266 181.027 147.266C177.345 147.266 174.034 146.85 170.306 145.877C167.828 145.229 162.85 143.492 162.502 143.145C162.41 143.052 163.452 143.052 164.818 143.168C168.268 143.446 177.623 143.214 180.98 142.774C186.931 141.987 192.604 140.575 198.439 138.421C201.635 137.217 206.474 135.179 208.072 134.323C209.183 133.744 209.16 133.744 208.859 134.3ZM61.5231 144.094C65.3205 146.989 69.9978 149.42 75.694 151.434L78.1021 152.291L76.0413 152.453C62.6577 153.518 52.9325 161.159 47.5606 174.821C47.0975 176.025 46.6112 177.113 46.4723 177.252C46.1481 177.576 46.4723 172.251 47.0048 167.921C48.6025 155.486 52.099 145.252 56.2206 140.968L57.0541 140.088L58.5592 141.547C59.3928 142.358 60.7358 143.492 61.5231 144.094ZM208.419 143.145C212.216 148.54 214.625 155.903 216.014 166.439C216.5 170.005 217.287 179.197 217.148 179.359C217.079 179.406 216.616 178.294 216.06 176.905C213.745 170.908 210.642 165.559 207.655 162.41C203.116 157.64 198.208 155.301 189.64 153.842C187.788 153.541 186.19 153.24 186.074 153.217C185.959 153.171 186.468 153.009 187.232 152.847C191.006 151.99 196.587 149.536 200.523 146.989C202.954 145.414 205.802 143.168 206.567 142.219C206.868 141.825 207.145 141.501 207.169 141.501C207.192 141.478 207.771 142.242 208.419 143.145Z" />
    </mask>
    <path
        d="M12.1564 1.22728C10.9987 5.25626 10.5587 10.2114 10.7208 17.5516C10.9061 25.818 11.786 32.2088 13.6847 39.2248C14.5877 42.5823 16.0465 46.7502 16.7643 48.07C17.2042 48.9036 17.2042 48.7184 16.7875 46.3566C15.4908 38.9469 14.2172 20.747 14.4025 12.2722L14.4719 8.91477L16.1391 11.3461C20.608 17.8758 25.5401 22.7615 31.8383 26.9757C34.8253 28.9439 40.012 31.491 42.9527 32.4172C44.2262 32.834 45.4535 33.2276 45.685 33.3202C46.0323 33.436 45.685 33.7833 43.9484 35.08C40.8919 37.3724 37.4186 40.4057 35.682 42.2813C34.1769 43.9253 33.0192 45.6619 33.1581 46.0555C33.1813 46.1945 33.8528 45.8703 34.6169 45.3609C41.6097 40.6836 48.1163 37.7197 55.3407 35.8904C58.675 35.0569 64.8806 33.7602 64.9963 33.8991C65.0427 33.9454 63.3986 34.8948 61.3147 36.0294C43.7168 45.523 33.6907 52.701 25.3548 61.7315C20.8396 66.6404 17.7831 70.6462 13.592 77.176C8.45162 85.1876 5.46461 92.5046 2.66284 103.804C1.78295 107.37 5.38921e-06 116.378 5.34284e-06 117.211C5.33382e-06 117.373 0.370487 116.864 0.810434 116.123C2.08396 114.016 3.93637 111.839 5.69616 110.427C7.20124 109.199 13.8004 104.43 13.9857 104.43C14.032 104.43 13.6152 105.749 13.0826 107.37C6.92338 125.663 6.71498 157.2 12.6427 175.516L13.291 177.484L13.5689 174.474C13.731 172.807 14.0783 170.63 14.333 169.634C15.0045 167.11 16.7874 163.498 18.4778 161.252C20.2607 158.89 23.6182 155.672 26.3042 153.796L28.365 152.314L28.5039 156.112C29.268 175.307 35.9367 192.28 48.4636 206.775C48.9267 207.331 49.3203 207.632 49.3203 207.447C49.3203 207.261 49.1583 205.872 48.973 204.344C48.7878 202.816 48.6488 199.898 48.6488 197.86C48.6488 192.187 49.3898 189.061 51.1959 187.001C52.2842 185.75 53.002 185.333 54.5997 185.009C56.591 184.569 59.9948 185.565 62.2177 187.232C62.6114 187.533 63.005 187.788 63.0513 187.788C63.0976 187.788 63.2134 186.769 63.2829 185.495C63.8386 176.28 68.1686 166.254 74.3047 159.979L76.5276 157.686L86.1369 154.699C100.563 150.207 105.865 148.609 105.958 148.725C106.189 148.934 103.318 151.319 100.979 152.87C97.8534 154.931 91.0227 158.311 85.1644 160.673C80.1166 162.711 80.4639 162.456 77.2454 166.462C73.7721 170.769 71.2945 175.168 70.3683 178.688C69.6737 181.281 69.6737 184.963 70.3683 187.417C71.3408 190.96 73.4943 194.827 76.8981 199.111L78.8199 201.519L79.2367 199.805C79.723 197.791 80.1861 197.096 81.3438 196.517C82.0848 196.147 82.3627 196.124 83.451 196.355C85.7896 196.841 91.4858 199.342 96.5104 202.075C106.374 207.447 113.807 210.225 123.625 212.24C127.909 213.12 128.789 213.189 129.205 212.68C129.669 212.124 129.321 210.434 128.326 208.326C125.941 203.255 122.838 201.241 112.024 197.652C108.759 196.587 105.356 195.313 104.499 194.873C101.026 193.044 99.3585 190.798 98.8491 187.209C98.687 186.19 98.5712 183.064 98.5712 180.262C98.5481 174.728 98.8491 172.204 99.9605 168.685C100.563 166.786 102.276 163.105 102.484 163.313C102.554 163.359 102.484 164.795 102.322 166.485C101.929 171.047 102.16 178.804 102.785 181.235C103.99 186.051 106.768 189.177 109.871 189.27C111.144 189.293 111.955 188.668 113.877 186.098C114.757 184.94 115.66 183.828 115.868 183.643C116.215 183.342 116.91 183.62 122.213 186.236C125.477 187.834 128.928 189.478 129.854 189.849L131.544 190.543L133.211 189.895C134.137 189.524 137.68 188.019 141.107 186.537C146.039 184.407 147.405 183.898 147.66 184.129C147.845 184.268 148.609 185.241 149.373 186.306C150.948 188.483 151.758 189.247 152.939 189.64C155.394 190.451 158.612 188.089 160.094 184.384C161.368 181.258 161.715 178.734 161.715 172.274C161.738 169.032 161.669 165.628 161.576 164.749L161.391 163.128L162.062 164.401C163.012 166.23 164.1 169.403 164.679 172.112C165.559 176.28 165.304 184.893 164.146 190.381C163.915 191.377 163.66 191.817 162.572 192.905C160.812 194.665 158.728 195.637 151.434 198.092C147.544 199.389 144.465 200.593 142.404 201.611C139.695 202.954 139.069 203.371 137.518 204.899C136.082 206.335 135.573 207.053 134.763 208.743C134.23 209.878 133.721 211.267 133.651 211.8C133.512 213.12 133.999 213.374 136.522 213.189C143.122 212.726 158.08 207.609 165.86 203.14C170.19 200.662 176.303 198.115 179.382 197.513C181.119 197.166 182.439 197.49 183.226 198.416C183.712 199.018 183.921 199.597 184.5 201.982C184.662 202.63 184.731 202.561 186.954 199.782C190.728 195.105 192.674 191.678 193.484 188.344C194.04 186.098 193.993 182.393 193.368 180.077C192.164 175.539 189.455 170.815 184.847 165.304L183.388 163.568L179.637 161.97C171.857 158.659 164.934 155 161.46 152.384C159.84 151.156 158.427 149.698 158.659 149.466C158.705 149.42 162.387 150.601 166.832 152.106C171.301 153.611 177.901 155.764 181.513 156.899L188.112 158.96L189.941 161.044C193.345 164.934 196.332 169.982 197.953 174.682C199.412 178.827 200.523 184.43 200.523 187.556C200.523 188.344 200.593 188.946 200.708 188.899C200.801 188.853 201.727 188.39 202.792 187.834C205.363 186.514 207.47 186.028 209.16 186.399C212.286 187.047 214.161 189.849 214.856 194.85C215.319 198.046 215.157 201.426 214.277 207.817L214.138 208.975L215.458 207.701C222.266 201.125 229.56 187.927 232.894 176.095C234.7 169.727 235.51 164.262 235.58 158.335C235.58 155.926 235.696 154.445 235.835 154.445C236.298 154.445 240.28 157.594 242.11 159.423C247.088 164.378 249.612 170.167 250.214 178.04L250.376 180.216L250.932 178.85C254.961 168.916 257.346 150.693 256.605 135.619C256.049 124.574 254.382 115.59 251.58 108.644C251.14 107.555 250.816 106.606 250.885 106.56C251.094 106.351 254.498 108.459 256.304 109.917C259.221 112.256 261.328 114.757 263.667 118.716C264.362 119.897 264.941 120.87 264.987 120.87C265.103 120.87 264.431 116.192 263.829 112.765C260.402 93.5929 252.622 77.3381 240.304 63.746C232.616 55.2481 223.771 48.5794 208.743 39.9426C202.167 36.1452 200.569 35.1495 200.894 35.0337C201.287 34.8948 205.918 35.9831 209.669 37.0714C216.871 39.1553 224.882 42.7444 230.069 46.1945C231.644 47.2596 232.94 48.07 232.94 48.0237C232.94 47.7459 231.273 45.3377 229.93 43.6937C228.263 41.6098 225.762 39.3406 222.474 36.9093C221.201 35.9831 220.182 35.1495 220.182 35.0569C220.182 34.9642 221.34 34.5475 222.752 34.1075C233.82 30.7732 243.128 23.6646 250.747 12.7817L251.974 10.9987L251.835 16.9033C251.58 28.5503 250.399 41.4245 248.94 49.0194C248.709 50.2698 248.524 51.3118 248.57 51.3581C248.616 51.4044 249.172 50.0382 249.843 48.3479C254.081 37.4882 256.443 22.5068 255.655 11.2998C255.354 6.85397 254.961 4.46899 254.266 2.89445L253.803 1.85248L252.553 1.85248C248.269 1.85248 241.577 2.98707 226.341 6.2751C199.296 12.1102 188.158 13.87 175.631 14.2636C167.411 14.5415 158.844 13.1522 141.918 8.89161L133.188 6.69189L126.288 8.31274C107.208 12.7817 96.7188 14.171 87.642 13.4532C77.6853 12.6659 66.5014 10.6514 42.7212 5.37204C24.1508 1.22728 17.5747 4.67542e-05 14.1478 4.65635e-05L12.5269 4.64733e-05L12.1564 1.22728ZM134.531 8.70637C137.68 10.9293 142.913 13.3605 148.378 15.1435C153.194 16.718 157.802 17.8295 168.222 19.8903C180.147 22.2753 190.265 24.9844 198.092 27.9019C201.403 29.1292 205.224 30.7963 205.085 30.9353C205.038 30.9816 202.978 30.5416 200.5 29.9627C181.536 25.517 163.498 22.2984 150.045 20.9554C145.784 20.5386 134.415 20.2608 135.11 20.5849C135.365 20.7239 137.564 21.3259 139.973 21.9742C167.62 29.2449 192.905 39.6879 208.512 50.2698C212.865 53.2336 213.05 53.4189 211.059 52.6547C190.474 44.9672 175.77 40.452 165.675 38.7617C163.035 38.2986 156.459 38.1828 156.088 38.5533C155.926 38.7154 156.691 39.1553 158.566 39.9194C164.447 42.397 186.236 52.1685 186.7 52.5621C186.792 52.6547 185.148 52.7937 183.018 52.8863C176.766 53.141 170.375 53.8125 168.407 54.4377L167.643 54.6924L168.87 55.6417C174.867 60.3422 181.791 67.5898 185.449 73.0081C186.676 74.8373 188.019 77.1528 188.019 77.4538C188.019 77.5465 186.792 76.435 185.287 74.9763C175.863 65.83 162.294 56.6837 150.022 51.196L146.433 49.5751L143.214 50.2698C139.533 51.0339 136.569 51.8212 134.091 52.6779L132.378 53.2568L130.386 52.4695C129.298 52.0295 126.242 51.1265 123.602 50.455L118.786 49.2509L111.793 52.7474C97.6219 59.8097 87.4336 66.6173 79.4451 74.4205L77.0602 76.7592L77.778 75.4857C78.7968 73.6332 81.0197 70.5536 83.1963 67.9371C85.6738 64.9269 92.2499 58.2583 95.0053 55.9196C96.2094 54.9008 97.1819 54.044 97.1588 53.9977C97.1125 53.9746 96.1399 53.743 94.9822 53.4883C92.0647 52.84 87.8967 52.4 83.3583 52.1916C77.1528 51.9369 77.1759 52.099 83.0342 49.5056C89.5408 46.6113 93.1529 45.1062 101.998 41.5171C105.958 39.9194 109.292 38.5533 109.408 38.4607C109.755 38.2523 107.602 38.0207 105.008 37.9976C95.8621 37.9049 80.6723 41.795 58.5361 49.8761C55.5259 50.9644 52.9789 51.8675 52.8862 51.8675C52.261 51.8675 58.9992 47.4448 63.8849 44.6431C81.6449 34.478 104.128 26.2579 128.279 21.0944L130.479 20.6081L124.69 20.7239C110.218 21.0017 93.5697 23.2015 70.2757 27.9019C65.0658 28.9671 60.759 29.8007 60.7127 29.7544C60.6895 29.7312 62.102 29.106 63.8386 28.365C73.6332 24.2434 78.7042 22.8773 96.7883 19.4735C110.89 16.8107 115.104 15.815 121.078 13.6153C123.81 12.6196 129.506 9.88729 131.752 8.49798C132.447 8.05804 133.142 7.75701 133.258 7.82648C133.396 7.89594 133.952 8.28959 134.531 8.70637ZM68.0991 57.9572C64.9732 64.3481 66.7561 71.4104 73.2396 78.1485L75.1383 80.1398L76.6434 79.4683C78.9357 78.4032 82.5711 77.1991 85.1181 76.6434C88.1051 75.9719 92.4583 75.9024 94.8201 76.5045C100.539 77.9632 105.587 82.4785 108.945 89.1472C109.686 90.6059 109.801 90.6754 106.977 88.1283C103.804 85.2803 99.0343 82.548 95.399 81.506C93.2224 80.8808 88.5451 80.6261 86.2296 81.0197C83.8214 81.4365 80.7881 82.5248 77.6159 84.0994L74.791 85.4887L73.7953 84.8403C72.1744 83.7289 68.6085 80.1398 66.9182 77.9169C65.3437 75.8561 63.4681 72.9154 62.2177 70.6462L61.5926 69.4422L60.4811 70.1831C56.0122 73.2164 54.3913 75.8561 53.9745 80.7419C53.7893 82.8953 53.9514 88.0589 54.3219 91.2311L54.4608 92.5046L53.8819 91.6942C52.7473 90.0502 51.1959 87.1327 50.4086 85.095C46.1481 74.2816 50.6402 64.9269 63.0976 58.6287C64.9732 57.6794 68.8169 56.0122 68.9327 56.1048C68.9559 56.128 68.5622 56.9616 68.0991 57.9572ZM200.87 59.1382C202.538 59.9486 204.876 61.2684 206.08 62.0789C208.813 63.9313 212.17 67.1961 213.606 69.419C217.797 75.9719 217.172 83.4742 211.707 91.9026C211.012 92.9678 210.41 93.8013 210.364 93.7319C210.318 93.6856 210.48 92.1342 210.734 90.3049C211.36 85.9286 211.406 81.4365 210.873 79.4452C210.318 77.3612 209.206 75.4394 207.771 73.9574C206.335 72.4987 204.135 70.9704 203.718 71.1557C203.556 71.202 202.792 72.2671 202.028 73.5175C199.018 78.4032 195.336 82.7795 192.303 85.095L190.566 86.438L187.603 85.0256C182.184 82.4322 177.669 81.3207 173.339 81.5754C170.421 81.7375 168.801 82.1543 166.091 83.4742C163.521 84.7014 162.178 85.6044 158.381 88.6609C156.806 89.9344 155.463 90.9301 155.417 90.8838C155.232 90.6986 157.385 86.878 158.612 85.2108C162.387 80.163 167.296 77.3612 173.2 76.9676C177.021 76.6897 182.809 77.9864 187.649 80.2093C188.645 80.6724 189.594 81.0429 189.733 81.0429C190.15 81.0429 193.646 77.5001 194.943 75.7867C198.925 70.461 199.759 64.3712 197.258 58.8603L196.587 57.3784L197.235 57.5405C197.582 57.6099 199.226 58.3509 200.87 59.1382ZM125.014 62.2641C127.515 63.1672 130.155 64.1397 130.919 64.487L132.285 65.089L134.276 64.2786C135.365 63.8386 138.097 62.843 140.343 62.102L144.418 60.7127L150.415 63.7692C158.89 68.0992 165.721 72.1513 167.087 73.6564C167.527 74.1658 167.527 74.1658 166.948 73.9806C166.624 73.888 163.29 72.8228 159.539 71.6188C155.787 70.4378 150.925 68.9328 148.748 68.2844L144.789 67.1267L141.802 68.0992C140.158 68.6318 137.333 69.6274 135.504 70.2989L132.216 71.5493L130.062 70.762C128.904 70.3221 126.172 69.2801 123.996 68.4465C120.846 67.1961 119.897 66.9183 119.272 67.034C117.906 67.2887 110.728 69.3727 105.819 70.9704C100.146 72.7997 97.0198 73.7027 96.8809 73.5869C96.7651 73.448 101.998 69.9979 104.754 68.4234C107.949 66.5941 119.689 60.7822 120.383 60.6896C120.43 60.6664 122.514 61.3842 125.014 62.2641ZM43.8094 64.4175C41.3087 68.5854 35.9599 79.422 34.038 84.1688C29.8238 94.6118 27.5083 103.55 26.1421 114.618C25.6327 118.693 25.2622 132.748 25.5632 135.318L25.7253 136.592L27.1378 135.55C29.0365 134.161 32.4866 132.239 35.4273 130.919C37.4881 130.016 47.6995 125.964 47.6995 126.056C47.6995 126.08 47.028 127.955 46.1944 130.247C42.8369 139.44 40.9151 146.919 39.711 155.255C39.4331 157.316 38.5301 165.304 38.4143 166.717C38.3911 167.272 37.5807 164.146 36.7008 159.955C35.2884 153.148 34.8947 148.054 35.4273 142.983C35.5431 141.848 35.5894 140.876 35.5431 140.829C35.4273 140.69 31.9309 142.589 29.3144 144.21C26.281 146.086 22.0668 149.304 19.6587 151.596C18.5241 152.685 17.5284 153.541 17.4589 153.472C17.32 153.31 17.019 150.717 16.5096 145.067C15.9539 138.884 15.9539 125.825 16.5096 120.916C17.621 111.144 19.6355 102.994 22.9699 94.7044C23.6182 93.1067 24.4981 91.1153 24.938 90.2354C25.3548 89.3787 25.679 88.6841 25.6095 88.6841C25.5632 88.6841 23.5719 89.8881 21.1638 91.3932C16.7643 94.1023 10.4661 97.7145 10.1188 97.7145C9.88723 97.7145 11.4155 95.4453 13.9857 92.0415C20.0523 84.0067 28.365 75.3467 35.7052 69.5116C38.1828 67.5203 43.6937 63.6766 44.0641 63.6766C44.1799 63.6766 44.0641 64.0239 43.8094 64.4175ZM227.128 69.3264C232.616 73.448 240.141 80.8113 245.676 87.5032C248.801 91.2543 254.938 99.2891 254.938 99.6364C254.938 100.169 250.746 97.7609 244.448 93.6393C242.063 92.0647 239.91 90.6754 239.678 90.5596C239.354 90.3744 239.516 90.907 240.373 92.852C243.754 100.424 246.463 111.446 247.69 122.49C248.199 127.26 248.269 141.339 247.806 145.877C247.412 149.651 246.648 155.185 246.486 155.324C246.416 155.394 245.513 154.63 244.448 153.611C242.017 151.249 239.748 149.42 236.437 147.151C233.774 145.321 229.305 142.635 228.911 142.635C228.795 142.635 228.772 143.793 228.865 145.345C229.189 150.601 228.471 156.644 226.642 163.984C225.785 167.527 225.299 168.592 225.299 166.995C225.299 165.86 223.655 153.24 223.192 150.74C222.289 145.97 220.552 139.417 218.584 133.535C217.496 130.271 216.685 127.585 216.778 127.585C216.871 127.585 218.7 128.279 220.83 129.136C225.971 131.174 231.69 134.068 235.233 136.384C236.807 137.402 238.127 138.213 238.173 138.166C238.798 137.541 239.169 127.075 238.752 121.217C238.081 111.677 236.437 102.16 234.098 94.1487C231.551 85.4423 227.105 75.4857 221.177 65.1817C221.015 64.9038 224.211 67.1267 227.128 69.3264ZM128.974 90.3049C129.669 90.8606 130.687 91.4858 131.22 91.7405L132.192 92.1805L133.42 91.5553C134.091 91.2311 135.203 90.5365 135.874 90.0271L137.101 89.124L140.852 90.2818C144.766 91.4858 148.633 92.8057 148.424 92.852C148.355 92.852 146.178 93.2225 143.585 93.6624C140.991 94.1023 138.838 94.496 138.815 94.5191C137.981 95.7695 132.632 102.786 132.378 102.994C131.891 103.411 131.567 103.063 128.627 98.8723C127.399 97.1588 126.172 95.4454 125.871 95.098C125.269 94.3571 124.991 94.2876 120.175 93.4309C115.266 92.5741 115.474 92.6436 116.586 92.1573C117.095 91.9489 118.925 91.3932 120.638 90.907C122.352 90.4438 124.551 89.8187 125.501 89.5408C126.45 89.2398 127.353 89.0545 127.469 89.1472C127.608 89.2398 128.279 89.7492 128.974 90.3049ZM87.781 90.3744C90.5596 91.7174 92.9214 94.496 97.784 101.998C102.971 110.033 105.935 112.904 110.241 114.039C113.946 115.035 119.063 113.807 123.741 110.82C124.482 110.357 125.13 109.987 125.176 110.033C125.269 110.149 124.181 111.77 123.417 112.673C120.846 115.683 115.845 118.022 110.936 118.462C109.871 118.577 109.315 118.716 109.385 118.878C110.033 120.383 110.936 123.741 111.168 125.408C111.515 128.071 111.307 132.933 110.704 136.407C110.288 138.653 108.922 144.465 108.736 144.65C108.713 144.673 108.736 143.099 108.783 141.13C108.945 135.504 108.32 129.877 107.092 125.616C106.444 123.417 104.893 119.897 104.453 119.619C104.244 119.48 98.8722 121.703 98.8722 121.912C98.8722 121.935 99.127 122.444 99.4511 123.023C100.192 124.32 100.725 126.751 100.725 128.812L100.725 130.386L99.127 128.58C94.6117 123.44 87.1326 118.137 78.079 113.599C72.1976 110.658 68.9559 109.338 65.3437 108.366C60.6663 107.162 58.3277 106.467 58.4435 106.351C58.4898 106.282 60.8747 106.421 63.7228 106.606C68.8632 107 73.61 107.648 75.6708 108.25C76.2497 108.435 76.7823 108.551 76.8286 108.505C76.8749 108.459 76.736 107.764 76.5276 106.953C76.2497 105.888 76.1571 104.8 76.2266 103.087L76.3192 100.725L75.0225 100.725C74.3278 100.725 72.6144 100.887 71.2019 101.095C69.8126 101.28 67.937 101.489 67.0572 101.581L65.4594 101.72L65.8994 100.956C66.5709 99.7753 70.4378 95.8158 72.3365 94.3802C74.6289 92.6204 77.3149 91.1153 79.3988 90.4438C81.8996 89.6334 81.8764 89.6334 84.2845 89.6797C86.1601 89.726 86.6927 89.8418 87.781 90.3744ZM185.032 91.3701C188.783 92.5278 192.118 94.6812 195.336 97.9924C197.166 99.868 199.481 102.786 199.273 102.971C199.226 103.017 197.281 102.739 194.966 102.346C192.627 101.975 190.242 101.651 189.64 101.651L188.552 101.651L188.575 104.244C188.575 106.004 188.459 107.301 188.205 108.204L187.811 109.57L188.32 109.431C190.891 108.736 197.837 107.926 202.491 107.787L206.196 107.648L202.028 108.806C197.536 110.056 196.587 110.357 190.914 112.487C186.167 114.247 184.199 115.081 181.767 116.401C176.812 119.064 171.927 122.884 165.976 128.719L163.475 131.174L163.475 129.669C163.475 127.677 163.938 125.894 164.818 124.227C165.235 123.486 165.536 122.861 165.489 122.838C165.212 122.583 161.53 120.615 160.905 120.337L160.071 119.99L159.122 121.773C156.714 126.288 155.787 130.919 155.232 141.362L155.07 144.141L154.306 140.899C153.24 136.499 152.824 133.466 152.824 130.317C152.824 126.427 153.426 123.532 155 119.689C155.139 119.365 154.908 119.295 153.657 119.156C148.447 118.624 143.145 115.822 140.436 112.186C139.232 110.566 139.139 110.241 140.042 110.89C140.412 111.145 141.64 111.816 142.774 112.395C149.466 115.752 154.537 115.637 159.353 112.001C161.831 110.149 163.822 107.694 168.152 101.165C172.922 93.9634 174.96 91.8332 177.901 90.8606C179.359 90.3744 182.624 90.6059 185.032 91.3701ZM60.7821 135.342C71.665 140.621 81.4828 142.612 97.1356 142.659L101.535 142.659L99.8216 143.33C90.2585 147.104 79.0978 147.591 71.2251 144.627C66.9182 142.983 62.1946 139.787 58.1887 135.735C55.2017 132.748 54.8081 132.123 56.5447 133.142C57.2162 133.559 59.1381 134.531 60.7821 135.342ZM208.859 134.3C208.396 135.156 204.807 138.583 202.769 140.112C198.902 143.006 194.873 144.974 190.474 146.109C186.954 147.012 184.847 147.266 181.027 147.266C177.345 147.266 174.034 146.85 170.306 145.877C167.828 145.229 162.85 143.492 162.502 143.145C162.41 143.052 163.452 143.052 164.818 143.168C168.268 143.446 177.623 143.214 180.98 142.774C186.931 141.987 192.604 140.575 198.439 138.421C201.635 137.217 206.474 135.179 208.072 134.323C209.183 133.744 209.16 133.744 208.859 134.3ZM61.5231 144.094C65.3205 146.989 69.9978 149.42 75.694 151.434L78.1021 152.291L76.0413 152.453C62.6577 153.518 52.9325 161.159 47.5606 174.821C47.0975 176.025 46.6112 177.113 46.4723 177.252C46.1481 177.576 46.4723 172.251 47.0048 167.921C48.6025 155.486 52.099 145.252 56.2206 140.968L57.0541 140.088L58.5592 141.547C59.3928 142.358 60.7358 143.492 61.5231 144.094ZM208.419 143.145C212.216 148.54 214.625 155.903 216.014 166.439C216.5 170.005 217.287 179.197 217.148 179.359C217.079 179.406 216.616 178.294 216.06 176.905C213.745 170.908 210.642 165.559 207.655 162.41C203.116 157.64 198.208 155.301 189.64 153.842C187.788 153.541 186.19 153.24 186.074 153.217C185.959 153.171 186.468 153.009 187.232 152.847C191.006 151.99 196.587 149.536 200.523 146.989C202.954 145.414 205.802 143.168 206.567 142.219C206.868 141.825 207.145 141.501 207.169 141.501C207.192 141.478 207.771 142.242 208.419 143.145Z"
        stroke="white" stroke-width="6.01375" mask="url(#path-1-inside-1_704_2016)" />
    <path
        d="M84.5084 101.425L84.5044 101.427C83.2749 102.027 82.4241 103.412 82.5899 106.168L82.5903 106.175C82.7539 109.12 84.6252 111.69 88.3263 113.366C88.1369 112.945 87.963 112.515 87.819 112.099L87.8189 112.099L87.8147 112.087C86.8742 109.29 86.5645 106.301 87.0741 103.887L87.074 103.887L87.0756 103.88L87.2755 102.955L86.9589 102.63L86.9588 102.63L86.9532 102.624C86.0297 101.666 85.5588 101.351 85.2881 101.255C85.1792 101.216 85.0361 101.165 84.5084 101.425ZM95.0978 111.915C94.8508 112.709 94.3963 113.714 93.9616 114.544C94.9682 114.461 96.0916 114.214 97.485 113.765L97.4911 113.763C97.6596 113.71 97.8253 113.656 97.9865 113.604C97.2325 112.971 96.2591 112.125 95.5245 111.427C95.4414 111.349 95.3615 111.274 95.2846 111.202C95.2273 111.453 95.1652 111.691 95.1024 111.9L95.1001 111.908L95.0978 111.915Z"
        stroke="white" stroke-width="3.00687" />
    <path
        d="M85.6527 204.1C85.6468 204.115 85.6397 204.136 85.6319 204.165C85.5651 204.411 85.5294 204.91 85.6393 205.856C85.9907 208.741 87.8209 212.922 91.2075 217.979L91.2092 217.981C91.7676 218.819 92.5181 219.885 93.2851 220.943C92.8268 216.202 92.9477 211.143 93.673 207.65L93.674 207.645C93.719 207.432 93.7582 207.251 93.7922 207.094C93.8597 206.783 93.9063 206.569 93.9354 206.389C93.9305 206.386 93.9256 206.383 93.9205 206.379C93.7264 206.253 93.4861 206.115 93.1384 205.916C92.9799 205.825 92.7991 205.722 92.5901 205.601C91.1247 204.767 89.6904 204.233 88.4453 203.997C87.1775 203.757 86.236 203.849 85.6527 204.1ZM85.667 204.068C85.667 204.068 85.6666 204.069 85.6659 204.07C85.6667 204.069 85.6671 204.068 85.667 204.068Z"
        stroke="white" stroke-width="3.00687" />
    <path
        d="M146.065 216.778C146.065 216.778 146.065 216.778 146.065 216.778C141.003 217.64 137.803 217.891 131.179 217.868L131.174 217.868C124.207 217.868 120.96 217.568 117.143 216.658L117.13 216.655L117.13 216.655C116.538 216.52 115.984 216.42 115.527 216.371C115.302 216.347 115.067 216.332 114.847 216.338L114.847 216.338C114.707 216.342 114.291 216.354 113.895 216.571C113.345 216.872 112.572 217.499 111.904 218.096C111.487 218.468 111.053 218.88 110.665 219.28C110.143 217.911 109.565 216.181 109.076 214.556C108.854 213.815 108.652 213.106 108.486 212.474C111.549 213.779 116.068 215.028 120.514 215.944C125.498 216.97 130.654 217.632 133.82 217.421C140.642 216.977 148.631 215.161 154.411 212.762C154.07 214.183 153.649 215.796 153.355 216.753L146.065 216.778ZM146.065 216.778L147.824 216.477L148.466 216.367L148.986 216.761L150.329 217.78L150.337 217.786L150.346 217.793C150.95 218.265 151.714 218.976 152.3 219.623C152.681 218.71 153.082 217.639 153.355 216.754L146.065 216.778Z"
        stroke="white" stroke-width="3.00687" />
    <path
        d="M104.899 230.569C104.246 229.079 103.544 227.337 102.882 225.54C102.605 227.31 102.332 229.412 102.105 231.586C101.929 233.393 101.73 235.363 101.65 236.075L101.886 236.167C105.836 237.657 109.62 238.735 112.725 239.312C114.279 239.6 115.635 239.758 116.742 239.787C117.879 239.816 118.626 239.704 119.037 239.547L119.037 239.547L119.045 239.544C119.258 239.464 119.482 239.361 119.655 239.266C119.714 239.234 119.758 239.207 119.788 239.188C119.958 239.003 120.225 238.779 120.615 238.658C121.055 238.522 121.452 238.579 121.722 238.651C122.176 238.771 122.687 239.057 123.18 239.339C123.787 239.671 123.987 239.756 124.211 239.805C124.481 239.865 124.859 239.888 125.848 239.888C126.854 239.888 127.489 239.826 127.977 239.704C128.433 239.591 128.822 239.411 129.307 239.085C129.439 238.993 129.604 238.882 129.773 238.79C129.949 238.695 130.227 238.568 130.579 238.533C131.349 238.456 131.898 238.877 132.095 239.028C132.1 239.032 132.106 239.036 132.11 239.04C132.11 239.039 132.121 239.048 132.148 239.064C132.174 239.08 132.209 239.1 132.256 239.124C132.351 239.173 132.474 239.229 132.627 239.289C132.933 239.41 133.313 239.533 133.73 239.643C134.586 239.868 135.461 240.004 136.036 240.004C136.572 240.004 137.527 239.853 138.429 239.627C138.867 239.517 139.241 239.402 139.5 239.303C139.558 239.281 139.604 239.261 139.639 239.246C140.123 238.778 140.746 238.804 140.877 238.813C141.147 238.83 141.379 238.906 141.52 238.958C141.828 239.074 142.149 239.25 142.436 239.437L142.449 239.445L142.461 239.453C143.317 240.034 144.825 240.376 147.472 240.099C150.085 239.826 153.561 238.979 158.122 237.485L158.122 237.485L160.547 236.693L160.471 235.643L160.47 235.637C160.247 232.383 159.922 229.391 159.509 226.719C159.093 227.815 158.621 228.974 158.152 230.06C157.612 231.312 157.059 232.509 156.578 233.45C156.338 233.918 156.106 234.342 155.895 234.685C155.725 234.962 155.461 235.37 155.134 235.643C154.905 235.836 154.658 235.933 154.578 235.965L154.574 235.966C154.44 236.019 154.298 236.064 154.163 236.103C153.891 236.182 153.552 236.262 153.175 236.342C152.416 236.503 151.416 236.683 150.307 236.862C148.088 237.219 145.364 237.582 143.126 237.794C137.542 238.334 130.17 238.475 125.177 238.169L125.175 238.169C121.437 237.934 117.422 237.49 114.222 237.006C112.625 236.764 111.209 236.509 110.123 236.262C109.582 236.138 109.098 236.011 108.703 235.88C108.388 235.776 107.884 235.596 107.519 235.279L107.503 235.265L107.486 235.25C107.229 235.013 107.009 234.701 106.84 234.438C106.654 234.148 106.456 233.802 106.253 233.418C105.846 232.65 105.383 231.67 104.899 230.569ZM139.721 239.207C139.753 239.189 139.744 239.19 139.711 239.212C139.715 239.21 139.718 239.208 139.721 239.207Z"
        stroke="white" stroke-width="3.00687" />
    <path
        d="M95.1752 240.018L96.9093 240.201L98.2291 240.34L98.2314 240.34C101.187 240.646 104.46 241.481 110.653 243.492C114.294 244.698 118.085 245.884 119.058 246.169L119.074 246.173L119.089 246.178C123.966 247.492 129.233 248.022 134.003 247.637C139.381 247.209 142.618 246.529 152.412 243.837L152.414 243.837C157.931 242.313 161.643 241.487 163.852 241.244C164.291 241.207 164.707 241.158 165.033 241.111C165.197 241.088 165.35 241.063 165.477 241.038C165.539 241.026 165.609 241.012 165.677 240.995L165.681 240.993C165.717 240.985 165.879 240.945 166.047 240.861L166.13 240.819L166.208 240.767C166.584 240.516 166.742 240.176 166.806 239.99C166.872 239.799 166.886 239.634 166.89 239.544C166.899 239.362 166.875 239.209 166.862 239.131C166.831 238.956 166.78 238.781 166.733 238.638C166.634 238.336 166.486 237.974 166.312 237.614L166.307 237.603C166.023 237.026 165.741 236.246 165.53 235.479C165.311 234.685 165.21 234.054 165.21 233.75C165.21 231.793 166.924 230.051 169.296 230.044C169.324 230.582 169.284 231.534 169.167 232.657C169.035 233.928 168.825 235.233 168.597 236.102L168.596 236.106C166.043 245.965 158.402 254.115 150.277 256.045L95.1752 240.018ZM95.1752 240.018C97.082 244.663 100.3 248.992 104.176 251.907L104.178 251.908C110.56 256.722 118.47 257.613 124.822 254.407C125.451 254.087 126.657 253.317 127.783 252.53C128.336 252.143 128.842 251.772 129.22 251.474C129.41 251.324 129.553 251.204 129.648 251.117C129.673 251.095 129.692 251.077 129.705 251.064C130.069 250.561 130.595 250.44 130.883 250.421C131.167 250.403 131.399 250.463 131.518 250.498C131.773 250.574 132.009 250.698 132.183 250.799C132.558 251.015 133.002 251.334 133.462 251.707C135.481 253.335 137.989 254.731 140.438 255.576C141.481 255.931 142.041 256.098 142.659 256.201C143.297 256.307 144.041 256.352 145.459 256.398C148.032 256.466 148.698 256.419 150.277 256.045L95.1752 240.018ZM93.2635 228.516C93.2635 228.516 93.2632 228.518 93.2627 228.52C93.2633 228.518 93.2636 228.516 93.2635 228.516ZM94.5955 230.073C94.1247 229.86 93.6342 229.687 93.2042 229.567C93.2024 229.805 93.205 230.07 93.2121 230.355C93.2428 231.576 93.3548 233.044 93.528 234.17L93.5286 234.175C93.8045 236.004 94.318 237.854 95.0311 239.66L95.6818 238.121L96.3764 236.476L96.3774 236.474C97.1458 234.664 97.23 233.333 96.9427 232.392C96.6707 231.501 95.985 230.696 94.5993 230.075L94.5955 230.073ZM129.729 251.039C129.729 251.039 129.728 251.04 129.726 251.043C129.728 251.04 129.729 251.039 129.729 251.039ZM92.2769 229.392C92.2741 229.392 92.2728 229.392 92.2729 229.392L92.2769 229.392Z"
        stroke="white" stroke-width="3.00687" />
</svg>
