<svg width="157" height="153" viewBox="0 0 157 153" fill="none" xmlns="http://www.w3.org/2000/svg">
    <mask id="path-1-inside-1_704_2849" fill="white">
        <path
            d="M7.20211 0.727036C6.5162 3.11402 6.25555 6.04974 6.35158 10.3984C6.46132 15.2959 6.98262 19.0821 8.10752 23.2388C8.64253 25.2279 9.50679 27.6972 9.93205 28.4791C10.1927 28.973 10.1927 28.8633 9.94577 27.464C9.17755 23.0741 8.42304 12.2916 8.53279 7.27066L8.57394 5.28151L9.56166 6.72193C12.2093 10.5905 15.1313 13.4851 18.8627 15.9818C20.6323 17.1478 23.7052 18.6569 25.4474 19.2056C26.202 19.4525 26.929 19.6857 27.0662 19.7406C27.272 19.8092 27.0662 20.015 26.0373 20.7832C24.2265 22.1413 22.1688 23.9384 21.1399 25.0496C20.2482 26.0236 19.5623 27.0524 19.6446 27.2857C19.6583 27.368 20.0562 27.1759 20.5089 26.8741C24.6518 24.103 28.5066 22.3471 32.7867 21.2633C34.7622 20.7695 38.4387 20.0012 38.5073 20.0836C38.5347 20.111 37.5607 20.6734 36.3261 21.3456C25.9002 26.9701 19.9601 31.2228 15.0215 36.5729C12.3465 39.4812 10.5357 41.8545 8.05265 45.7231C5.00718 50.4696 3.23752 54.8046 1.57761 61.4991C1.05631 63.6117 3.19285e-06 68.9481 3.16538e-06 69.442C3.16004e-06 69.538 0.219496 69.2362 0.480144 68.7972C1.23465 67.5489 2.33211 66.2593 3.3747 65.4225C4.26639 64.6955 8.17611 61.8695 8.28586 61.8695C8.31329 61.8695 8.06636 62.6514 7.75084 63.6117C4.10177 74.4492 3.97831 93.1335 7.49019 103.985L7.8743 105.151L8.03892 103.367C8.13495 102.38 8.34073 101.09 8.49163 100.5C8.88946 99.0049 9.94577 96.8649 10.9472 95.5342C12.0035 94.1349 13.9927 92.2281 15.584 91.1169L16.8049 90.2389L16.8872 92.4887C17.3399 103.861 21.2908 113.917 28.7124 122.504C28.9868 122.834 29.22 123.012 29.22 122.902C29.22 122.792 29.1239 121.969 29.0142 121.064C28.9045 120.159 28.8221 118.43 28.8221 117.223C28.8221 113.862 29.2611 112.01 30.3312 110.789C30.9759 110.048 31.4012 109.801 32.3477 109.609C33.5275 109.349 35.5441 109.938 36.8611 110.926C37.0943 111.104 37.3275 111.255 37.3549 111.255C37.3824 111.255 37.451 110.652 37.4921 109.897C37.8213 104.437 40.3867 98.4973 44.022 94.7797L45.339 93.4216L51.0321 91.6519C59.5786 88.9906 62.7201 88.044 62.7749 88.1126C62.9121 88.2361 61.211 89.649 59.8255 90.5682C57.9735 91.7891 53.9266 93.792 50.4559 95.1912C47.4653 96.3984 47.6711 96.2475 45.7642 98.6208C43.7065 101.172 42.2386 103.779 41.6899 105.864C41.2784 107.401 41.2784 109.582 41.6899 111.036C42.2661 113.135 43.5419 115.426 45.5585 117.964L46.6971 119.39L46.944 118.375C47.2321 117.182 47.5065 116.77 48.1924 116.427C48.6314 116.208 48.796 116.194 49.4407 116.331C50.8263 116.619 54.201 118.101 57.1779 119.72C63.0219 122.902 67.4254 124.548 73.242 125.742C75.7799 126.263 76.3012 126.304 76.5481 126.003C76.8225 125.673 76.6167 124.672 76.0268 123.423C74.6138 120.419 72.7756 119.226 66.3691 117.099C64.4348 116.468 62.4183 115.714 61.9107 115.453C59.8529 114.369 58.8652 113.039 58.5634 110.912C58.4674 110.309 58.3988 108.457 58.3988 106.797C58.3851 103.518 58.5634 102.023 59.2219 99.9378C59.5786 98.8129 60.5937 96.6317 60.7172 96.7551C60.7583 96.7826 60.7172 97.6331 60.6212 98.6345C60.3879 101.337 60.5251 105.933 60.8955 107.373C61.6089 110.226 63.2551 112.078 65.0933 112.133C65.8478 112.147 66.328 111.777 67.4666 110.254C67.9879 109.568 68.5229 108.91 68.6464 108.8C68.8521 108.621 69.2637 108.786 72.4052 110.336C74.3395 111.283 76.3835 112.257 76.9322 112.476L77.9336 112.888L78.9214 112.504C79.4701 112.284 81.569 111.393 83.5993 110.515C86.5213 109.252 87.3307 108.951 87.4816 109.088C87.5913 109.17 88.044 109.746 88.4967 110.377C89.4296 111.667 89.9097 112.12 90.6094 112.353C92.0635 112.833 93.9703 111.434 94.8483 109.239C95.6028 107.387 95.8086 105.892 95.8086 102.064C95.8223 100.144 95.7812 98.127 95.7263 97.6057L95.6165 96.6454L96.0144 97.3999C96.5768 98.4836 97.2216 100.363 97.5645 101.968C98.0858 104.437 97.9349 109.541 97.249 112.792C97.1118 113.382 96.9609 113.642 96.3162 114.287C95.2736 115.33 94.0389 115.906 89.7177 117.36C87.413 118.128 85.5885 118.842 84.3675 119.445C82.7625 120.241 82.3921 120.488 81.473 121.393C80.6224 122.244 80.3206 122.669 79.8405 123.67C79.525 124.343 79.2232 125.166 79.182 125.481C79.0997 126.263 79.3878 126.414 80.8831 126.304C84.7928 126.03 93.6548 122.998 98.2642 120.351C100.829 118.883 104.451 117.374 106.276 117.017C107.305 116.811 108.086 117.003 108.553 117.552C108.841 117.909 108.964 118.252 109.307 119.665C109.403 120.049 109.445 120.008 110.762 118.361C112.998 115.59 114.15 113.56 114.63 111.585C114.959 110.254 114.932 108.059 114.562 106.687C113.848 103.998 112.243 101.2 109.513 97.9349L108.649 96.906L106.427 95.9595C101.817 93.9977 97.7154 91.8303 95.6577 90.2801C94.6974 89.553 93.8606 88.6888 93.9978 88.5516C94.0252 88.5241 96.2064 89.2238 98.8403 90.1155C101.488 91.0072 105.398 92.283 107.538 92.9552L111.447 94.1761L112.531 95.4107C114.548 97.7154 116.317 100.706 117.278 103.491C118.142 105.946 118.8 109.266 118.8 111.118C118.8 111.585 118.842 111.941 118.91 111.914C118.965 111.886 119.514 111.612 120.145 111.283C121.668 110.501 122.916 110.213 123.917 110.432C125.769 110.816 126.881 112.476 127.292 115.439C127.566 117.333 127.47 119.335 126.949 123.122L126.867 123.808L127.649 123.053C131.682 119.157 136.003 111.338 137.979 104.328C139.049 100.555 139.529 97.3176 139.57 93.8057C139.57 92.379 139.639 91.501 139.721 91.501C139.995 91.501 142.355 93.3667 143.439 94.4505C146.388 97.3862 147.883 100.816 148.24 105.48L148.336 106.769L148.665 105.96C151.052 100.075 152.465 89.2787 152.026 80.348C151.697 73.8044 150.709 68.4817 149.049 64.3662C148.789 63.7215 148.597 63.159 148.638 63.1316C148.761 63.0081 150.778 64.2565 151.848 65.1207C153.576 66.5063 154.825 67.9879 156.21 70.3337C156.622 71.0333 156.965 71.6095 156.992 71.6095C157.061 71.6095 156.663 68.8384 156.306 66.8081C154.276 55.4493 149.667 45.8191 142.369 37.7664C137.814 32.7318 132.574 28.781 123.67 23.664C119.774 21.4142 118.828 20.8243 119.02 20.7558C119.253 20.6734 121.997 21.3182 124.219 21.963C128.486 23.1976 133.232 25.324 136.305 27.368C137.238 27.999 138.006 28.4792 138.006 28.4517C138.006 28.2871 137.018 26.8604 136.223 25.8864C135.235 24.6518 133.753 23.3074 131.805 21.8669C131.051 21.3182 130.447 20.8243 130.447 20.7695C130.447 20.7146 131.133 20.4677 131.97 20.207C138.527 18.2316 144.042 14.0201 148.555 7.57247L149.283 6.51617L149.2 10.0143C149.049 16.9146 148.35 24.542 147.485 29.0416C147.348 29.7824 147.239 30.3997 147.266 30.4272C147.293 30.4546 147.623 29.6452 148.02 28.6438C150.531 22.2099 151.93 13.3342 151.464 6.6945C151.285 4.06059 151.052 2.64761 150.641 1.71476L150.366 1.09744L149.625 1.09744C147.088 1.09744 143.123 1.76963 134.096 3.71763C118.073 7.17464 111.475 8.21723 104.053 8.45045C99.1833 8.61506 94.1075 7.79197 84.0795 5.2678L78.9077 3.96456L74.8196 4.92484C63.5157 7.57247 57.3013 8.39556 51.9238 7.9703C46.0249 7.50388 39.399 6.31038 25.3103 3.18261C14.3082 0.727036 10.4122 -3.75677e-05 8.38189 -3.76806e-05L7.42161 -3.77341e-05L7.20211 0.727036ZM79.7033 5.15805C81.569 6.475 84.6693 7.91543 87.9069 8.97174C90.7603 9.90458 93.4902 10.5631 99.6634 11.784C106.728 13.197 112.723 14.802 117.36 16.5305C119.322 17.2576 121.585 18.2453 121.503 18.3276C121.476 18.3551 120.255 18.0944 118.787 17.7514C107.551 15.1175 96.8649 13.2107 88.8946 12.415C86.3704 12.1681 79.6347 12.0035 80.0463 12.1955C80.1972 12.2778 81.5004 12.6345 82.9271 13.0186C99.3068 17.3262 114.287 23.5131 123.533 29.7824C126.112 31.5383 126.222 31.6481 125.042 31.1954C112.847 26.6409 104.136 23.9658 98.1544 22.9644C96.5905 22.69 92.6945 22.6214 92.4751 22.8409C92.379 22.937 92.8317 23.1976 93.9429 23.6503C97.4274 25.1182 110.336 30.9073 110.611 31.1405C110.666 31.1954 109.692 31.2777 108.429 31.3326C104.725 31.4835 100.939 31.8813 99.7732 32.2517L99.3205 32.4026L100.048 32.965C103.601 35.7499 107.702 40.0437 109.87 43.2538C110.597 44.3375 111.393 45.7093 111.393 45.8877C111.393 45.9425 110.666 45.2841 109.774 44.4198C104.19 39.0011 96.1516 33.5824 88.8809 30.3311L86.7545 29.3708L84.8477 29.7824C82.6665 30.2351 80.9105 30.7015 79.4427 31.2091L78.4275 31.5521L77.2477 31.0856C76.603 30.825 74.7922 30.29 73.2283 29.8921L70.3749 29.1788L66.2319 31.2502C57.8363 35.4343 51.8003 39.4675 47.0675 44.0906L45.6545 45.4761L46.0798 44.7216C46.6834 43.6242 48.0003 41.7996 49.2898 40.2495C50.7577 38.4661 54.6537 34.5152 56.2862 33.1297C56.9995 32.526 57.5757 32.0185 57.562 31.991C57.5345 31.9773 56.9584 31.8401 56.2725 31.6892C54.544 31.3051 52.0747 31.0445 49.3859 30.921C45.7094 30.7701 45.7231 30.8661 49.1938 29.3297C53.0487 27.6149 55.1887 26.7232 60.4291 24.5969C62.7749 23.6503 64.7504 22.8409 64.819 22.7861C65.0247 22.6626 63.7489 22.5254 62.2125 22.5117C56.7938 22.4568 47.7946 24.7615 34.6799 29.5492C32.8965 30.1939 31.3875 30.729 31.3326 30.729C30.9622 30.729 34.9542 28.1088 37.8488 26.4488C48.3707 20.4265 61.6912 15.5565 75.9994 12.4973L77.3026 12.2093L73.873 12.2778C65.2991 12.4425 55.4356 13.7457 41.635 16.5305C38.5484 17.1616 35.9968 17.6554 35.9694 17.628C35.9557 17.6143 36.7925 17.2439 37.8214 16.8049C43.6242 14.363 46.6285 13.5536 57.3425 11.5371C65.6969 9.95945 68.1937 9.36956 71.733 8.06633C73.3517 7.47644 76.7264 5.85769 78.0571 5.03458C78.4687 4.77394 78.8802 4.5956 78.9488 4.63675C79.0311 4.67791 79.3604 4.91112 79.7033 5.15805ZM40.3455 34.3369C38.4935 38.1231 39.5499 42.3072 43.391 46.2992L44.5159 47.479L45.4076 47.0812C46.7657 46.4501 48.9195 45.7368 50.4285 45.4075C52.1981 45.0097 54.7772 44.9685 56.1764 45.3252C59.5649 46.1895 62.5554 48.8645 64.5446 52.8154C64.9836 53.6797 65.0522 53.7208 63.3785 52.2118C61.4991 50.5245 58.6732 48.9057 56.5194 48.2884C55.2299 47.918 52.4588 47.7671 51.0869 48.0003C49.6602 48.2472 47.8631 48.892 45.9837 49.8248L44.3101 50.6479L43.7202 50.2638C42.7599 49.6053 40.6473 47.479 39.6459 46.162C38.713 44.9411 37.6019 43.1989 36.8611 41.8545L36.4907 41.1411L35.8322 41.5801C33.1846 43.3772 32.2243 44.9411 31.9774 47.8357C31.8676 49.1115 31.9636 52.1707 32.1831 54.0501L32.2654 54.8046L31.9225 54.3244C31.2503 53.3504 30.3312 51.6219 29.8647 50.4147C27.3406 44.0083 30.0019 38.4661 37.3824 34.7347C38.4935 34.1722 40.7708 33.1845 40.8394 33.2394C40.8531 33.2531 40.6199 33.747 40.3455 34.3369ZM119.006 35.0365C119.994 35.5166 121.38 36.2986 122.093 36.7787C123.712 37.8762 125.701 39.8105 126.551 41.1274C129.034 45.0097 128.664 49.4544 125.426 54.4479C125.015 55.0789 124.658 55.5728 124.631 55.5316C124.603 55.5042 124.699 54.5851 124.85 53.5013C125.221 50.9086 125.248 48.2472 124.933 47.0675C124.603 45.8328 123.945 44.6942 123.094 43.8162C122.244 42.952 120.941 42.0466 120.694 42.1563C120.598 42.1837 120.145 42.8148 119.692 43.5556C117.909 46.4501 115.728 49.0429 113.93 50.4147L112.902 51.2104L111.146 50.3736C107.936 48.8371 105.261 48.1786 102.695 48.3295C100.967 48.4256 100.006 48.6725 98.4014 49.4544C96.8786 50.1815 96.083 50.7165 93.8332 52.5273C92.9003 53.2818 92.1047 53.8717 92.0772 53.8443C91.9675 53.7345 93.2433 51.471 93.9703 50.4833C96.2064 47.4927 99.1147 45.8328 102.613 45.5996C104.876 45.435 108.306 46.2032 111.173 47.5202C111.763 47.7945 112.325 48.014 112.408 48.014C112.655 48.014 114.726 45.9151 115.494 44.9C117.854 41.7447 118.348 38.1368 116.866 34.8719L116.468 33.9939L116.852 34.0899C117.058 34.1311 118.032 34.5701 119.006 35.0365ZM74.0651 36.8885C75.5467 37.4235 77.1106 37.9997 77.5633 38.2054L78.3726 38.5621L79.5524 38.082C80.1972 37.8213 81.8159 37.2314 83.1466 36.7924L85.561 35.9693L89.1141 37.7802C94.135 40.3455 98.1819 42.7462 98.9912 43.6379C99.2519 43.9397 99.2519 43.9397 98.9089 43.8299C98.7169 43.7751 96.7414 43.144 94.5191 42.4307C92.2967 41.731 89.4159 40.8393 88.1263 40.4552L85.7805 39.7693L84.0109 40.3455C83.0369 40.661 81.3632 41.2509 80.2795 41.6487L78.3315 42.3895L77.0557 41.9231C76.3698 41.6624 74.751 41.0451 73.4615 40.5513C71.5958 39.8105 71.0334 39.6458 70.663 39.7144C69.8536 39.8653 65.6009 41.1 62.6926 42.0466C59.3316 43.1303 57.4797 43.6653 57.3974 43.5967C57.3288 43.5144 60.4291 41.4704 62.0616 40.5375C63.9547 39.4538 70.9099 36.0105 71.3214 35.9556C71.3489 35.9419 72.5835 36.3672 74.0651 36.8885ZM25.955 38.1643C24.4734 40.6336 21.3045 47.0537 20.1659 49.866C17.6692 56.0529 16.2973 61.3482 15.488 67.9055C15.1862 70.32 14.9667 78.647 15.145 80.1697L15.241 80.9242L16.0778 80.3069C17.2027 79.4838 19.2468 78.3452 20.989 77.5632C22.2099 77.0282 28.2597 74.6275 28.2597 74.6824C28.2597 74.6961 27.8619 75.8073 27.368 77.1654C25.3789 82.6116 24.2402 87.0426 23.5269 91.9812C23.3623 93.2021 22.8272 97.9349 22.7587 98.7717C22.7449 99.1009 22.2648 97.249 21.7435 94.766C20.9067 90.7328 20.6735 87.7148 20.989 84.7105C21.0576 84.0383 21.085 83.4621 21.0576 83.4347C20.989 83.3523 18.9175 84.4772 17.3674 85.4375C15.5703 86.5487 13.0735 88.4555 11.6468 89.8137C10.9746 90.4584 10.3848 90.966 10.3436 90.9248C10.2613 90.8288 10.083 89.2924 9.78115 85.9451C9.45191 82.2823 9.45191 74.5452 9.78115 71.6369C10.4396 65.8478 11.6331 61.019 13.6086 56.1078C13.9927 55.1612 14.514 53.9815 14.7746 53.4602C15.0215 52.9526 15.2136 52.541 15.1724 52.541C15.145 52.541 13.9652 53.2544 12.5385 54.1461C9.93205 55.7511 6.20067 57.8912 5.9949 57.8912C5.85772 57.8912 6.76312 56.5468 8.28586 54.5302C11.8801 49.77 16.8049 44.6393 21.1536 41.1823C22.6215 40.0025 25.8864 37.7253 26.1059 37.7253C26.1745 37.7253 26.1059 37.9311 25.955 38.1643ZM134.563 41.0726C137.814 43.5144 142.272 47.8768 145.551 51.8414C147.403 54.0638 151.038 58.824 151.038 59.0298C151.038 59.3453 148.555 57.9186 144.824 55.4768C143.411 54.5439 142.135 53.7208 141.998 53.6522C141.806 53.5425 141.902 53.858 142.41 55.0103C144.413 59.4962 146.018 66.0261 146.745 72.5698C147.046 75.3957 147.088 83.7365 146.813 86.4252C146.58 88.6613 146.127 91.94 146.031 92.0223C145.99 92.0635 145.455 91.6108 144.824 91.0072C143.384 89.6079 142.039 88.5241 140.078 87.1798C138.5 86.096 135.852 84.5047 135.619 84.5047C135.551 84.5047 135.537 85.1906 135.592 86.1097C135.784 89.2238 135.358 92.8043 134.275 97.153C133.767 99.2519 133.479 99.8829 133.479 98.9363C133.479 98.2641 132.505 90.7877 132.231 89.3061C131.696 86.4801 130.667 82.5978 129.501 79.1134C128.856 77.1791 128.376 75.5878 128.431 75.5878C128.486 75.5878 129.569 75.9993 130.831 76.5069C133.877 77.7141 137.265 79.4289 139.364 80.8007C140.297 81.4044 141.079 81.8845 141.106 81.8571C141.477 81.4867 141.696 75.286 141.449 71.8153C141.052 66.1633 140.078 60.5251 138.692 55.7786C137.183 50.6205 134.549 44.7216 131.037 38.617C130.941 38.4524 132.834 39.7693 134.563 41.0726ZM76.4109 53.5013C76.8225 53.8306 77.4261 54.201 77.7416 54.3519L78.3178 54.6125L79.0448 54.2421C79.4427 54.0501 80.1011 53.6385 80.499 53.3367L81.226 52.8017L83.4484 53.4876C85.7668 54.201 88.0578 54.9829 87.9343 55.0103C87.8931 55.0103 86.6036 55.2298 85.0672 55.4905C83.5307 55.7511 82.2549 55.9843 82.2412 55.9981C81.7473 56.7389 78.5784 60.8955 78.4275 61.019C78.1394 61.2659 77.9474 61.0601 76.2052 58.5771C75.4781 57.5619 74.751 56.5468 74.5727 56.341C74.216 55.902 74.0514 55.8609 71.198 55.3533C68.2897 54.8457 68.4132 54.8869 69.0716 54.5988C69.3734 54.4753 70.4572 54.1461 71.4723 53.858C72.4875 53.5836 73.7907 53.2132 74.3532 53.0486C74.9156 52.8703 75.4506 52.7605 75.5192 52.8154C75.6015 52.8703 75.9994 53.1721 76.4109 53.5013ZM52.0061 53.5425C53.6523 54.3381 55.0515 55.9843 57.9324 60.4291C61.0053 65.1893 62.7612 66.8904 65.3128 67.5626C67.5077 68.1525 70.5395 67.4254 73.3106 65.6557C73.7496 65.3814 74.1337 65.1619 74.1611 65.1893C74.216 65.2579 73.5712 66.2182 73.1185 66.7532C71.5958 68.5366 68.6326 69.9221 65.7244 70.1828C65.0933 70.2514 64.7641 70.3337 64.8052 70.4297C65.1894 71.3214 65.7244 73.3106 65.8616 74.2983C66.0673 75.8759 65.9439 78.7567 65.5872 80.8145C65.3403 82.1451 64.5309 85.5884 64.4211 85.6982C64.4074 85.7119 64.4211 84.779 64.4486 83.613C64.5446 80.2794 64.1742 76.9459 63.4471 74.4217C63.063 73.1185 62.1439 71.0333 61.8832 70.8687C61.7598 70.7864 58.5771 72.1033 58.5771 72.2268C58.5771 72.2405 58.728 72.5423 58.9201 72.8853C59.3591 73.6535 59.6746 75.0939 59.6746 76.3149L59.6746 77.2477L58.728 76.1777C56.053 73.1322 51.622 69.9907 46.2581 67.3019C42.7737 65.5597 40.8531 64.7778 38.713 64.2016C35.9419 63.4882 34.5564 63.0767 34.625 63.0081C34.6524 62.967 36.0654 63.0493 37.7528 63.159C40.7982 63.3922 43.6105 63.7763 44.8314 64.133C45.1744 64.2428 45.4899 64.3113 45.5173 64.2839C45.5448 64.2565 45.4624 63.8449 45.339 63.3648C45.1744 62.7337 45.1195 62.089 45.1606 61.0738L45.2155 59.6746L44.4473 59.6746C44.0357 59.6746 43.0206 59.7706 42.1838 59.8941C41.3607 60.0038 40.2495 60.1273 39.7282 60.1821L38.7816 60.2645L39.0423 59.8117C39.4401 59.1121 41.7311 56.7663 42.856 55.9158C44.2141 54.8732 45.8054 53.9815 47.04 53.5836C48.5216 53.1035 48.5079 53.1035 49.9346 53.1309C51.0458 53.1584 51.3613 53.227 52.0061 53.5425ZM109.623 54.1324C111.845 54.8183 113.821 56.0941 115.728 58.0558C116.811 59.167 118.183 60.8955 118.06 61.0052C118.032 61.0327 116.88 60.8681 115.508 60.6348C114.123 60.4154 112.71 60.2233 112.353 60.2233L111.708 60.2233L111.722 61.7597C111.722 62.8023 111.653 63.5706 111.502 64.1056L111.269 64.915L111.571 64.8326C113.094 64.4211 117.209 63.941 119.967 63.8586L122.161 63.7763L119.692 64.4623C117.031 65.203 116.468 65.3814 113.107 66.6435C110.295 67.6861 109.129 68.1799 107.689 68.9619C104.753 70.5395 101.858 72.803 98.3328 76.26L96.8512 77.7141L96.8512 76.8224C96.8512 75.6427 97.1256 74.5864 97.6468 73.5986C97.8938 73.1597 98.0721 72.7893 98.0447 72.7755C97.8801 72.6246 95.6988 71.4586 95.3285 71.294L94.8346 71.0882L94.2721 72.1445C92.8454 74.8196 92.2967 77.5632 91.9675 83.7502L91.8714 85.3964L91.4187 83.4758C90.7877 80.8693 90.5408 79.0722 90.5408 77.2065C90.5408 74.9019 90.8974 73.1871 91.8303 70.9099C91.9126 70.7178 91.7754 70.6766 91.0346 70.5943C87.948 70.2788 84.8065 68.6189 83.2015 66.4651C82.4881 65.5048 82.4333 65.3128 82.9683 65.6969C83.1878 65.8478 83.9148 66.2456 84.587 66.5886C88.5516 68.5777 91.5559 68.5091 94.4093 66.3554C95.8772 65.2579 97.057 63.8038 99.6223 59.9352C102.448 55.6688 103.655 54.4067 105.398 53.8306C106.262 53.5425 108.196 53.6797 109.623 54.1324ZM36.0105 80.1834C42.4581 83.3112 48.2747 84.491 57.5483 84.5184L60.1547 84.5184L59.1396 84.9162C53.4739 87.1523 46.8617 87.4404 42.1975 85.6845C39.6459 84.7105 36.8473 82.8173 34.4741 80.4166C32.7044 78.647 32.4712 78.2766 33.5001 78.8802C33.8979 79.1271 35.0365 79.7033 36.0105 80.1834ZM123.739 79.5661C123.465 80.0737 121.338 82.104 120.131 83.0094C117.84 84.7242 115.453 85.8902 112.847 86.5624C110.762 87.0974 109.513 87.2483 107.25 87.2483C105.068 87.2483 103.107 87.0014 100.898 86.4252C99.4302 86.0411 96.4808 85.0123 96.275 84.8065C96.2201 84.7516 96.8375 84.7516 97.6468 84.8202C99.6909 84.9848 105.233 84.8476 107.222 84.587C110.748 84.1206 114.109 83.2838 117.566 82.008C119.459 81.2946 122.326 80.0874 123.273 79.5798C123.931 79.2369 123.917 79.2369 123.739 79.5661ZM36.4495 85.3689C38.6993 87.0837 41.4704 88.5241 44.8451 89.7176L46.2718 90.2252L45.0509 90.3212C37.1217 90.9523 31.36 95.4793 28.1774 103.573C27.903 104.286 27.6149 104.931 27.5326 105.014C27.3406 105.206 27.5326 102.05 27.8481 99.4851C28.7947 92.1183 30.8662 86.0548 33.308 83.517L33.8019 82.9957L34.6936 83.8599C35.1874 84.3401 35.9831 85.0123 36.4495 85.3689ZM123.478 84.8065C125.728 88.0029 127.155 92.3653 127.978 98.6071C128.266 100.72 128.732 106.166 128.65 106.262C128.609 106.289 128.335 105.631 128.005 104.808C126.634 101.255 124.795 98.0858 123.026 96.2201C120.337 93.3941 117.429 92.0086 112.353 91.1443C111.255 90.966 110.309 90.7877 110.24 90.7739C110.172 90.7465 110.473 90.6505 110.926 90.5545C113.162 90.0469 116.468 88.5927 118.8 87.0837C120.241 86.1509 121.928 84.8202 122.381 84.2578C122.559 84.0245 122.724 83.8325 122.738 83.8325C122.751 83.8188 123.094 84.2715 123.478 84.8065Z" />
    </mask>
    <path
        d="M7.20211 0.727036C6.5162 3.11402 6.25555 6.04974 6.35158 10.3984C6.46132 15.2959 6.98262 19.0821 8.10752 23.2388C8.64253 25.2279 9.50679 27.6972 9.93205 28.4791C10.1927 28.973 10.1927 28.8633 9.94577 27.464C9.17755 23.0741 8.42304 12.2916 8.53279 7.27066L8.57394 5.28151L9.56166 6.72193C12.2093 10.5905 15.1313 13.4851 18.8627 15.9818C20.6323 17.1478 23.7052 18.6569 25.4474 19.2056C26.202 19.4525 26.929 19.6857 27.0662 19.7406C27.272 19.8092 27.0662 20.015 26.0373 20.7832C24.2265 22.1413 22.1688 23.9384 21.1399 25.0496C20.2482 26.0236 19.5623 27.0524 19.6446 27.2857C19.6583 27.368 20.0562 27.1759 20.5089 26.8741C24.6518 24.103 28.5066 22.3471 32.7867 21.2633C34.7622 20.7695 38.4387 20.0012 38.5073 20.0836C38.5347 20.111 37.5607 20.6734 36.3261 21.3456C25.9002 26.9701 19.9601 31.2228 15.0215 36.5729C12.3465 39.4812 10.5357 41.8545 8.05265 45.7231C5.00718 50.4696 3.23752 54.8046 1.57761 61.4991C1.05631 63.6117 3.19285e-06 68.9481 3.16538e-06 69.442C3.16004e-06 69.538 0.219496 69.2362 0.480144 68.7972C1.23465 67.5489 2.33211 66.2593 3.3747 65.4225C4.26639 64.6955 8.17611 61.8695 8.28586 61.8695C8.31329 61.8695 8.06636 62.6514 7.75084 63.6117C4.10177 74.4492 3.97831 93.1335 7.49019 103.985L7.8743 105.151L8.03892 103.367C8.13495 102.38 8.34073 101.09 8.49163 100.5C8.88946 99.0049 9.94577 96.8649 10.9472 95.5342C12.0035 94.1349 13.9927 92.2281 15.584 91.1169L16.8049 90.2389L16.8872 92.4887C17.3399 103.861 21.2908 113.917 28.7124 122.504C28.9868 122.834 29.22 123.012 29.22 122.902C29.22 122.792 29.1239 121.969 29.0142 121.064C28.9045 120.159 28.8221 118.43 28.8221 117.223C28.8221 113.862 29.2611 112.01 30.3312 110.789C30.9759 110.048 31.4012 109.801 32.3477 109.609C33.5275 109.349 35.5441 109.938 36.8611 110.926C37.0943 111.104 37.3275 111.255 37.3549 111.255C37.3824 111.255 37.451 110.652 37.4921 109.897C37.8213 104.437 40.3867 98.4973 44.022 94.7797L45.339 93.4216L51.0321 91.6519C59.5786 88.9906 62.7201 88.044 62.7749 88.1126C62.9121 88.2361 61.211 89.649 59.8255 90.5682C57.9735 91.7891 53.9266 93.792 50.4559 95.1912C47.4653 96.3984 47.6711 96.2475 45.7642 98.6208C43.7065 101.172 42.2386 103.779 41.6899 105.864C41.2784 107.401 41.2784 109.582 41.6899 111.036C42.2661 113.135 43.5419 115.426 45.5585 117.964L46.6971 119.39L46.944 118.375C47.2321 117.182 47.5065 116.77 48.1924 116.427C48.6314 116.208 48.796 116.194 49.4407 116.331C50.8263 116.619 54.201 118.101 57.1779 119.72C63.0219 122.902 67.4254 124.548 73.242 125.742C75.7799 126.263 76.3012 126.304 76.5481 126.003C76.8225 125.673 76.6167 124.672 76.0268 123.423C74.6138 120.419 72.7756 119.226 66.3691 117.099C64.4348 116.468 62.4183 115.714 61.9107 115.453C59.8529 114.369 58.8652 113.039 58.5634 110.912C58.4674 110.309 58.3988 108.457 58.3988 106.797C58.3851 103.518 58.5634 102.023 59.2219 99.9378C59.5786 98.8129 60.5937 96.6317 60.7172 96.7551C60.7583 96.7826 60.7172 97.6331 60.6212 98.6345C60.3879 101.337 60.5251 105.933 60.8955 107.373C61.6089 110.226 63.2551 112.078 65.0933 112.133C65.8478 112.147 66.328 111.777 67.4666 110.254C67.9879 109.568 68.5229 108.91 68.6464 108.8C68.8521 108.621 69.2637 108.786 72.4052 110.336C74.3395 111.283 76.3835 112.257 76.9322 112.476L77.9336 112.888L78.9214 112.504C79.4701 112.284 81.569 111.393 83.5993 110.515C86.5213 109.252 87.3307 108.951 87.4816 109.088C87.5913 109.17 88.044 109.746 88.4967 110.377C89.4296 111.667 89.9097 112.12 90.6094 112.353C92.0635 112.833 93.9703 111.434 94.8483 109.239C95.6028 107.387 95.8086 105.892 95.8086 102.064C95.8223 100.144 95.7812 98.127 95.7263 97.6057L95.6165 96.6454L96.0144 97.3999C96.5768 98.4836 97.2216 100.363 97.5645 101.968C98.0858 104.437 97.9349 109.541 97.249 112.792C97.1118 113.382 96.9609 113.642 96.3162 114.287C95.2736 115.33 94.0389 115.906 89.7177 117.36C87.413 118.128 85.5885 118.842 84.3675 119.445C82.7625 120.241 82.3921 120.488 81.473 121.393C80.6224 122.244 80.3206 122.669 79.8405 123.67C79.525 124.343 79.2232 125.166 79.182 125.481C79.0997 126.263 79.3878 126.414 80.8831 126.304C84.7928 126.03 93.6548 122.998 98.2642 120.351C100.829 118.883 104.451 117.374 106.276 117.017C107.305 116.811 108.086 117.003 108.553 117.552C108.841 117.909 108.964 118.252 109.307 119.665C109.403 120.049 109.445 120.008 110.762 118.361C112.998 115.59 114.15 113.56 114.63 111.585C114.959 110.254 114.932 108.059 114.562 106.687C113.848 103.998 112.243 101.2 109.513 97.9349L108.649 96.906L106.427 95.9595C101.817 93.9977 97.7154 91.8303 95.6577 90.2801C94.6974 89.553 93.8606 88.6888 93.9978 88.5516C94.0252 88.5241 96.2064 89.2238 98.8403 90.1155C101.488 91.0072 105.398 92.283 107.538 92.9552L111.447 94.1761L112.531 95.4107C114.548 97.7154 116.317 100.706 117.278 103.491C118.142 105.946 118.8 109.266 118.8 111.118C118.8 111.585 118.842 111.941 118.91 111.914C118.965 111.886 119.514 111.612 120.145 111.283C121.668 110.501 122.916 110.213 123.917 110.432C125.769 110.816 126.881 112.476 127.292 115.439C127.566 117.333 127.47 119.335 126.949 123.122L126.867 123.808L127.649 123.053C131.682 119.157 136.003 111.338 137.979 104.328C139.049 100.555 139.529 97.3176 139.57 93.8057C139.57 92.379 139.639 91.501 139.721 91.501C139.995 91.501 142.355 93.3667 143.439 94.4505C146.388 97.3862 147.883 100.816 148.24 105.48L148.336 106.769L148.665 105.96C151.052 100.075 152.465 89.2787 152.026 80.348C151.697 73.8044 150.709 68.4817 149.049 64.3662C148.789 63.7215 148.597 63.159 148.638 63.1316C148.761 63.0081 150.778 64.2565 151.848 65.1207C153.576 66.5063 154.825 67.9879 156.21 70.3337C156.622 71.0333 156.965 71.6095 156.992 71.6095C157.061 71.6095 156.663 68.8384 156.306 66.8081C154.276 55.4493 149.667 45.8191 142.369 37.7664C137.814 32.7318 132.574 28.781 123.67 23.664C119.774 21.4142 118.828 20.8243 119.02 20.7558C119.253 20.6734 121.997 21.3182 124.219 21.963C128.486 23.1976 133.232 25.324 136.305 27.368C137.238 27.999 138.006 28.4792 138.006 28.4517C138.006 28.2871 137.018 26.8604 136.223 25.8864C135.235 24.6518 133.753 23.3074 131.805 21.8669C131.051 21.3182 130.447 20.8243 130.447 20.7695C130.447 20.7146 131.133 20.4677 131.97 20.207C138.527 18.2316 144.042 14.0201 148.555 7.57247L149.283 6.51617L149.2 10.0143C149.049 16.9146 148.35 24.542 147.485 29.0416C147.348 29.7824 147.239 30.3997 147.266 30.4272C147.293 30.4546 147.623 29.6452 148.02 28.6438C150.531 22.2099 151.93 13.3342 151.464 6.6945C151.285 4.06059 151.052 2.64761 150.641 1.71476L150.366 1.09744L149.625 1.09744C147.088 1.09744 143.123 1.76963 134.096 3.71763C118.073 7.17464 111.475 8.21723 104.053 8.45045C99.1833 8.61506 94.1075 7.79197 84.0795 5.2678L78.9077 3.96456L74.8196 4.92484C63.5157 7.57247 57.3013 8.39556 51.9238 7.9703C46.0249 7.50388 39.399 6.31038 25.3103 3.18261C14.3082 0.727036 10.4122 -3.75677e-05 8.38189 -3.76806e-05L7.42161 -3.77341e-05L7.20211 0.727036ZM79.7033 5.15805C81.569 6.475 84.6693 7.91543 87.9069 8.97174C90.7603 9.90458 93.4902 10.5631 99.6634 11.784C106.728 13.197 112.723 14.802 117.36 16.5305C119.322 17.2576 121.585 18.2453 121.503 18.3276C121.476 18.3551 120.255 18.0944 118.787 17.7514C107.551 15.1175 96.8649 13.2107 88.8946 12.415C86.3704 12.1681 79.6347 12.0035 80.0463 12.1955C80.1972 12.2778 81.5004 12.6345 82.9271 13.0186C99.3068 17.3262 114.287 23.5131 123.533 29.7824C126.112 31.5383 126.222 31.6481 125.042 31.1954C112.847 26.6409 104.136 23.9658 98.1544 22.9644C96.5905 22.69 92.6945 22.6214 92.4751 22.8409C92.379 22.937 92.8317 23.1976 93.9429 23.6503C97.4274 25.1182 110.336 30.9073 110.611 31.1405C110.666 31.1954 109.692 31.2777 108.429 31.3326C104.725 31.4835 100.939 31.8813 99.7732 32.2517L99.3205 32.4026L100.048 32.965C103.601 35.7499 107.702 40.0437 109.87 43.2538C110.597 44.3375 111.393 45.7093 111.393 45.8877C111.393 45.9425 110.666 45.2841 109.774 44.4198C104.19 39.0011 96.1516 33.5824 88.8809 30.3311L86.7545 29.3708L84.8477 29.7824C82.6665 30.2351 80.9105 30.7015 79.4427 31.2091L78.4275 31.5521L77.2477 31.0856C76.603 30.825 74.7922 30.29 73.2283 29.8921L70.3749 29.1788L66.2319 31.2502C57.8363 35.4343 51.8003 39.4675 47.0675 44.0906L45.6545 45.4761L46.0798 44.7216C46.6834 43.6242 48.0003 41.7996 49.2898 40.2495C50.7577 38.4661 54.6537 34.5152 56.2862 33.1297C56.9995 32.526 57.5757 32.0185 57.562 31.991C57.5345 31.9773 56.9584 31.8401 56.2725 31.6892C54.544 31.3051 52.0747 31.0445 49.3859 30.921C45.7094 30.7701 45.7231 30.8661 49.1938 29.3297C53.0487 27.6149 55.1887 26.7232 60.4291 24.5969C62.7749 23.6503 64.7504 22.8409 64.819 22.7861C65.0247 22.6626 63.7489 22.5254 62.2125 22.5117C56.7938 22.4568 47.7946 24.7615 34.6799 29.5492C32.8965 30.1939 31.3875 30.729 31.3326 30.729C30.9622 30.729 34.9542 28.1088 37.8488 26.4488C48.3707 20.4265 61.6912 15.5565 75.9994 12.4973L77.3026 12.2093L73.873 12.2778C65.2991 12.4425 55.4356 13.7457 41.635 16.5305C38.5484 17.1616 35.9968 17.6554 35.9694 17.628C35.9557 17.6143 36.7925 17.2439 37.8214 16.8049C43.6242 14.363 46.6285 13.5536 57.3425 11.5371C65.6969 9.95945 68.1937 9.36956 71.733 8.06633C73.3517 7.47644 76.7264 5.85769 78.0571 5.03458C78.4687 4.77394 78.8802 4.5956 78.9488 4.63675C79.0311 4.67791 79.3604 4.91112 79.7033 5.15805ZM40.3455 34.3369C38.4935 38.1231 39.5499 42.3072 43.391 46.2992L44.5159 47.479L45.4076 47.0812C46.7657 46.4501 48.9195 45.7368 50.4285 45.4075C52.1981 45.0097 54.7772 44.9685 56.1764 45.3252C59.5649 46.1895 62.5554 48.8645 64.5446 52.8154C64.9836 53.6797 65.0522 53.7208 63.3785 52.2118C61.4991 50.5245 58.6732 48.9057 56.5194 48.2884C55.2299 47.918 52.4588 47.7671 51.0869 48.0003C49.6602 48.2472 47.8631 48.892 45.9837 49.8248L44.3101 50.6479L43.7202 50.2638C42.7599 49.6053 40.6473 47.479 39.6459 46.162C38.713 44.9411 37.6019 43.1989 36.8611 41.8545L36.4907 41.1411L35.8322 41.5801C33.1846 43.3772 32.2243 44.9411 31.9774 47.8357C31.8676 49.1115 31.9636 52.1707 32.1831 54.0501L32.2654 54.8046L31.9225 54.3244C31.2503 53.3504 30.3312 51.6219 29.8647 50.4147C27.3406 44.0083 30.0019 38.4661 37.3824 34.7347C38.4935 34.1722 40.7708 33.1845 40.8394 33.2394C40.8531 33.2531 40.6199 33.747 40.3455 34.3369ZM119.006 35.0365C119.994 35.5166 121.38 36.2986 122.093 36.7787C123.712 37.8762 125.701 39.8105 126.551 41.1274C129.034 45.0097 128.664 49.4544 125.426 54.4479C125.015 55.0789 124.658 55.5728 124.631 55.5316C124.603 55.5042 124.699 54.5851 124.85 53.5013C125.221 50.9086 125.248 48.2472 124.933 47.0675C124.603 45.8328 123.945 44.6942 123.094 43.8162C122.244 42.952 120.941 42.0466 120.694 42.1563C120.598 42.1837 120.145 42.8148 119.692 43.5556C117.909 46.4501 115.728 49.0429 113.93 50.4147L112.902 51.2104L111.146 50.3736C107.936 48.8371 105.261 48.1786 102.695 48.3295C100.967 48.4256 100.006 48.6725 98.4014 49.4544C96.8786 50.1815 96.083 50.7165 93.8332 52.5273C92.9003 53.2818 92.1047 53.8717 92.0772 53.8443C91.9675 53.7345 93.2433 51.471 93.9703 50.4833C96.2064 47.4927 99.1147 45.8328 102.613 45.5996C104.876 45.435 108.306 46.2032 111.173 47.5202C111.763 47.7945 112.325 48.014 112.408 48.014C112.655 48.014 114.726 45.9151 115.494 44.9C117.854 41.7447 118.348 38.1368 116.866 34.8719L116.468 33.9939L116.852 34.0899C117.058 34.1311 118.032 34.5701 119.006 35.0365ZM74.0651 36.8885C75.5467 37.4235 77.1106 37.9997 77.5633 38.2054L78.3726 38.5621L79.5524 38.082C80.1972 37.8213 81.8159 37.2314 83.1466 36.7924L85.561 35.9693L89.1141 37.7802C94.135 40.3455 98.1819 42.7462 98.9912 43.6379C99.2519 43.9397 99.2519 43.9397 98.9089 43.8299C98.7169 43.7751 96.7414 43.144 94.5191 42.4307C92.2967 41.731 89.4159 40.8393 88.1263 40.4552L85.7805 39.7693L84.0109 40.3455C83.0369 40.661 81.3632 41.2509 80.2795 41.6487L78.3315 42.3895L77.0557 41.9231C76.3698 41.6624 74.751 41.0451 73.4615 40.5513C71.5958 39.8105 71.0334 39.6458 70.663 39.7144C69.8536 39.8653 65.6009 41.1 62.6926 42.0466C59.3316 43.1303 57.4797 43.6653 57.3974 43.5967C57.3288 43.5144 60.4291 41.4704 62.0616 40.5375C63.9547 39.4538 70.9099 36.0105 71.3214 35.9556C71.3489 35.9419 72.5835 36.3672 74.0651 36.8885ZM25.955 38.1643C24.4734 40.6336 21.3045 47.0537 20.1659 49.866C17.6692 56.0529 16.2973 61.3482 15.488 67.9055C15.1862 70.32 14.9667 78.647 15.145 80.1697L15.241 80.9242L16.0778 80.3069C17.2027 79.4838 19.2468 78.3452 20.989 77.5632C22.2099 77.0282 28.2597 74.6275 28.2597 74.6824C28.2597 74.6961 27.8619 75.8073 27.368 77.1654C25.3789 82.6116 24.2402 87.0426 23.5269 91.9812C23.3623 93.2021 22.8272 97.9349 22.7587 98.7717C22.7449 99.1009 22.2648 97.249 21.7435 94.766C20.9067 90.7328 20.6735 87.7148 20.989 84.7105C21.0576 84.0383 21.085 83.4621 21.0576 83.4347C20.989 83.3523 18.9175 84.4772 17.3674 85.4375C15.5703 86.5487 13.0735 88.4555 11.6468 89.8137C10.9746 90.4584 10.3848 90.966 10.3436 90.9248C10.2613 90.8288 10.083 89.2924 9.78115 85.9451C9.45191 82.2823 9.45191 74.5452 9.78115 71.6369C10.4396 65.8478 11.6331 61.019 13.6086 56.1078C13.9927 55.1612 14.514 53.9815 14.7746 53.4602C15.0215 52.9526 15.2136 52.541 15.1724 52.541C15.145 52.541 13.9652 53.2544 12.5385 54.1461C9.93205 55.7511 6.20067 57.8912 5.9949 57.8912C5.85772 57.8912 6.76312 56.5468 8.28586 54.5302C11.8801 49.77 16.8049 44.6393 21.1536 41.1823C22.6215 40.0025 25.8864 37.7253 26.1059 37.7253C26.1745 37.7253 26.1059 37.9311 25.955 38.1643ZM134.563 41.0726C137.814 43.5144 142.272 47.8768 145.551 51.8414C147.403 54.0638 151.038 58.824 151.038 59.0298C151.038 59.3453 148.555 57.9186 144.824 55.4768C143.411 54.5439 142.135 53.7208 141.998 53.6522C141.806 53.5425 141.902 53.858 142.41 55.0103C144.413 59.4962 146.018 66.0261 146.745 72.5698C147.046 75.3957 147.088 83.7365 146.813 86.4252C146.58 88.6613 146.127 91.94 146.031 92.0223C145.99 92.0635 145.455 91.6108 144.824 91.0072C143.384 89.6079 142.039 88.5241 140.078 87.1798C138.5 86.096 135.852 84.5047 135.619 84.5047C135.551 84.5047 135.537 85.1906 135.592 86.1097C135.784 89.2238 135.358 92.8043 134.275 97.153C133.767 99.2519 133.479 99.8829 133.479 98.9363C133.479 98.2641 132.505 90.7877 132.231 89.3061C131.696 86.4801 130.667 82.5978 129.501 79.1134C128.856 77.1791 128.376 75.5878 128.431 75.5878C128.486 75.5878 129.569 75.9993 130.831 76.5069C133.877 77.7141 137.265 79.4289 139.364 80.8007C140.297 81.4044 141.079 81.8845 141.106 81.8571C141.477 81.4867 141.696 75.286 141.449 71.8153C141.052 66.1633 140.078 60.5251 138.692 55.7786C137.183 50.6205 134.549 44.7216 131.037 38.617C130.941 38.4524 132.834 39.7693 134.563 41.0726ZM76.4109 53.5013C76.8225 53.8306 77.4261 54.201 77.7416 54.3519L78.3178 54.6125L79.0448 54.2421C79.4427 54.0501 80.1011 53.6385 80.499 53.3367L81.226 52.8017L83.4484 53.4876C85.7668 54.201 88.0578 54.9829 87.9343 55.0103C87.8931 55.0103 86.6036 55.2298 85.0672 55.4905C83.5307 55.7511 82.2549 55.9843 82.2412 55.9981C81.7473 56.7389 78.5784 60.8955 78.4275 61.019C78.1394 61.2659 77.9474 61.0601 76.2052 58.5771C75.4781 57.5619 74.751 56.5468 74.5727 56.341C74.216 55.902 74.0514 55.8609 71.198 55.3533C68.2897 54.8457 68.4132 54.8869 69.0716 54.5988C69.3734 54.4753 70.4572 54.1461 71.4723 53.858C72.4875 53.5836 73.7907 53.2132 74.3532 53.0486C74.9156 52.8703 75.4506 52.7605 75.5192 52.8154C75.6015 52.8703 75.9994 53.1721 76.4109 53.5013ZM52.0061 53.5425C53.6523 54.3381 55.0515 55.9843 57.9324 60.4291C61.0053 65.1893 62.7612 66.8904 65.3128 67.5626C67.5077 68.1525 70.5395 67.4254 73.3106 65.6557C73.7496 65.3814 74.1337 65.1619 74.1611 65.1893C74.216 65.2579 73.5712 66.2182 73.1185 66.7532C71.5958 68.5366 68.6326 69.9221 65.7244 70.1828C65.0933 70.2514 64.7641 70.3337 64.8052 70.4297C65.1894 71.3214 65.7244 73.3106 65.8616 74.2983C66.0673 75.8759 65.9439 78.7567 65.5872 80.8145C65.3403 82.1451 64.5309 85.5884 64.4211 85.6982C64.4074 85.7119 64.4211 84.779 64.4486 83.613C64.5446 80.2794 64.1742 76.9459 63.4471 74.4217C63.063 73.1185 62.1439 71.0333 61.8832 70.8687C61.7598 70.7864 58.5771 72.1033 58.5771 72.2268C58.5771 72.2405 58.728 72.5423 58.9201 72.8853C59.3591 73.6535 59.6746 75.0939 59.6746 76.3149L59.6746 77.2477L58.728 76.1777C56.053 73.1322 51.622 69.9907 46.2581 67.3019C42.7737 65.5597 40.8531 64.7778 38.713 64.2016C35.9419 63.4882 34.5564 63.0767 34.625 63.0081C34.6524 62.967 36.0654 63.0493 37.7528 63.159C40.7982 63.3922 43.6105 63.7763 44.8314 64.133C45.1744 64.2428 45.4899 64.3113 45.5173 64.2839C45.5448 64.2565 45.4624 63.8449 45.339 63.3648C45.1744 62.7337 45.1195 62.089 45.1606 61.0738L45.2155 59.6746L44.4473 59.6746C44.0357 59.6746 43.0206 59.7706 42.1838 59.8941C41.3607 60.0038 40.2495 60.1273 39.7282 60.1821L38.7816 60.2645L39.0423 59.8117C39.4401 59.1121 41.7311 56.7663 42.856 55.9158C44.2141 54.8732 45.8054 53.9815 47.04 53.5836C48.5216 53.1035 48.5079 53.1035 49.9346 53.1309C51.0458 53.1584 51.3613 53.227 52.0061 53.5425ZM109.623 54.1324C111.845 54.8183 113.821 56.0941 115.728 58.0558C116.811 59.167 118.183 60.8955 118.06 61.0052C118.032 61.0327 116.88 60.8681 115.508 60.6348C114.123 60.4154 112.71 60.2233 112.353 60.2233L111.708 60.2233L111.722 61.7597C111.722 62.8023 111.653 63.5706 111.502 64.1056L111.269 64.915L111.571 64.8326C113.094 64.4211 117.209 63.941 119.967 63.8586L122.161 63.7763L119.692 64.4623C117.031 65.203 116.468 65.3814 113.107 66.6435C110.295 67.6861 109.129 68.1799 107.689 68.9619C104.753 70.5395 101.858 72.803 98.3328 76.26L96.8512 77.7141L96.8512 76.8224C96.8512 75.6427 97.1256 74.5864 97.6468 73.5986C97.8938 73.1597 98.0721 72.7893 98.0447 72.7755C97.8801 72.6246 95.6988 71.4586 95.3285 71.294L94.8346 71.0882L94.2721 72.1445C92.8454 74.8196 92.2967 77.5632 91.9675 83.7502L91.8714 85.3964L91.4187 83.4758C90.7877 80.8693 90.5408 79.0722 90.5408 77.2065C90.5408 74.9019 90.8974 73.1871 91.8303 70.9099C91.9126 70.7178 91.7754 70.6766 91.0346 70.5943C87.948 70.2788 84.8065 68.6189 83.2015 66.4651C82.4881 65.5048 82.4333 65.3128 82.9683 65.6969C83.1878 65.8478 83.9148 66.2456 84.587 66.5886C88.5516 68.5777 91.5559 68.5091 94.4093 66.3554C95.8772 65.2579 97.057 63.8038 99.6223 59.9352C102.448 55.6688 103.655 54.4067 105.398 53.8306C106.262 53.5425 108.196 53.6797 109.623 54.1324ZM36.0105 80.1834C42.4581 83.3112 48.2747 84.491 57.5483 84.5184L60.1547 84.5184L59.1396 84.9162C53.4739 87.1523 46.8617 87.4404 42.1975 85.6845C39.6459 84.7105 36.8473 82.8173 34.4741 80.4166C32.7044 78.647 32.4712 78.2766 33.5001 78.8802C33.8979 79.1271 35.0365 79.7033 36.0105 80.1834ZM123.739 79.5661C123.465 80.0737 121.338 82.104 120.131 83.0094C117.84 84.7242 115.453 85.8902 112.847 86.5624C110.762 87.0974 109.513 87.2483 107.25 87.2483C105.068 87.2483 103.107 87.0014 100.898 86.4252C99.4302 86.0411 96.4808 85.0123 96.275 84.8065C96.2201 84.7516 96.8375 84.7516 97.6468 84.8202C99.6909 84.9848 105.233 84.8476 107.222 84.587C110.748 84.1206 114.109 83.2838 117.566 82.008C119.459 81.2946 122.326 80.0874 123.273 79.5798C123.931 79.2369 123.917 79.2369 123.739 79.5661ZM36.4495 85.3689C38.6993 87.0837 41.4704 88.5241 44.8451 89.7176L46.2718 90.2252L45.0509 90.3212C37.1217 90.9523 31.36 95.4793 28.1774 103.573C27.903 104.286 27.6149 104.931 27.5326 105.014C27.3406 105.206 27.5326 102.05 27.8481 99.4851C28.7947 92.1183 30.8662 86.0548 33.308 83.517L33.8019 82.9957L34.6936 83.8599C35.1874 84.3401 35.9831 85.0123 36.4495 85.3689ZM123.478 84.8065C125.728 88.0029 127.155 92.3653 127.978 98.6071C128.266 100.72 128.732 106.166 128.65 106.262C128.609 106.289 128.335 105.631 128.005 104.808C126.634 101.255 124.795 98.0858 123.026 96.2201C120.337 93.3941 117.429 92.0086 112.353 91.1443C111.255 90.966 110.309 90.7877 110.24 90.7739C110.172 90.7465 110.473 90.6505 110.926 90.5545C113.162 90.0469 116.468 88.5927 118.8 87.0837C120.241 86.1509 121.928 84.8202 122.381 84.2578C122.559 84.0245 122.724 83.8325 122.738 83.8325C122.751 83.8188 123.094 84.2715 123.478 84.8065Z"
        stroke="white" stroke-width="4" mask="url(#path-1-inside-1_704_2849)" />
    <path
        d="M50.1158 60.1876L50.1131 60.1889C49.4401 60.5176 48.9432 61.2835 49.04 62.8931L49.0402 62.8977C49.1304 64.5207 50.1217 65.9612 52.114 66.9415C52.0452 66.7765 51.9817 66.6111 51.9256 66.4492L51.9256 66.4492L51.9228 66.4408C51.3612 64.7707 51.1737 62.9797 51.4806 61.5256L51.4806 61.5256L51.4817 61.5209L51.5877 61.0304L51.441 60.8799L51.441 60.8799L51.4373 60.876C50.8904 60.3086 50.6268 60.1395 50.4928 60.0918C50.491 60.0911 50.4891 60.0903 50.487 60.0895C50.4581 60.0776 50.3934 60.051 50.1158 60.1876ZM57.7261 67.2953C57.7616 67.284 57.7968 67.2728 57.8318 67.2616C57.4101 66.9044 56.9086 66.465 56.519 66.0946C56.5174 66.0931 56.5158 66.0915 56.5141 66.09C56.4927 66.1738 56.4708 66.2534 56.4486 66.3271L56.4487 66.3271L56.4456 66.3371C56.3141 66.7592 56.0867 67.2773 55.857 67.7334C56.3924 67.6713 56.9926 67.5316 57.7221 67.2966L57.7221 67.2966L57.7261 67.2953Z"
        stroke="white" stroke-width="2" />
    <path
        d="M106.334 60.7064C106.329 60.7099 106.312 60.7217 106.281 60.7457C106.23 60.7847 106.162 60.839 106.082 60.9065C105.924 61.0405 105.735 61.2098 105.56 61.3791C105.424 61.5126 105.329 61.6056 105.259 61.6777C105.26 61.6812 105.261 61.6847 105.261 61.6884C105.4 62.2789 105.398 63.0621 105.328 63.8078C105.256 64.5795 105.1 65.4188 104.87 66.1488L104.87 66.1488L104.868 66.1536C104.718 66.6205 104.496 67.178 104.266 67.6948C106.511 66.8362 107.805 65.1796 107.897 63.3689L107.897 63.3689L107.897 63.3617C107.938 62.6526 107.834 62.135 107.651 61.7619C107.475 61.4028 107.201 61.1206 106.786 60.9107C106.604 60.8194 106.478 60.7619 106.386 60.7256C106.366 60.7177 106.349 60.7114 106.334 60.7064ZM100.492 68.0392C100.552 68.0521 100.61 68.0642 100.667 68.0756C100.521 67.809 100.388 67.5364 100.297 67.2976C100.228 67.1279 100.162 66.9251 100.104 66.712C99.7401 67.0334 99.3285 67.3809 98.9777 67.6717C99.4516 67.7982 99.9796 67.9277 100.492 68.0392Z"
        stroke="white" stroke-width="2" />
    <path
        d="M52.3792 120.966C51.6746 120.833 51.157 120.878 50.8345 121.001C50.8027 121.132 50.7834 121.411 50.8456 121.947C51.0507 123.63 52.1234 126.09 54.1268 129.081L54.128 129.083C54.401 129.493 54.7519 129.995 55.122 130.511C54.8933 127.81 54.9777 124.985 55.3897 123.001L55.3904 122.997C55.4178 122.868 55.4414 122.759 55.4616 122.665C55.4925 122.523 55.5155 122.417 55.532 122.329C55.429 122.264 55.3029 122.192 55.1293 122.093C55.0351 122.039 54.9268 121.977 54.8007 121.904C53.9413 121.415 53.103 121.103 52.3792 120.966ZM55.558 122.144C55.5579 122.144 55.5579 122.144 55.5579 122.146C55.558 122.144 55.558 122.144 55.558 122.144Z"
        stroke="white" stroke-width="2" />
    <path
        d="M102.311 120.597C101.886 120.748 101.049 121.16 100.459 121.516C99.9512 121.821 99.6592 121.975 99.5144 122.217C99.3075 122.563 99.4015 123.089 99.5952 124.493L102.311 120.597ZM102.311 120.597L102.646 121.54C102.645 121.54 102.644 121.541 102.643 121.541C102.642 121.541 102.64 121.542 102.639 121.542L102.311 120.597ZM105.167 121.466C105.176 121.366 105.18 121.273 105.18 121.187C105.18 121.435 105.322 121.542 105.322 121.542C105.322 121.542 105.315 121.536 105.297 121.526C105.268 121.508 105.225 121.488 105.167 121.466ZM99.5132 132.392C99.866 131.936 100.267 131.395 100.67 130.831C100.62 131.514 100.553 132.175 100.47 132.788C100.104 133.268 99.7759 133.677 99.5266 133.959L99.4638 134.031L99.4636 134.032L99.1699 134.371L99.2522 133.986C99.2679 133.913 99.2833 133.838 99.2983 133.761C99.2985 133.76 99.2987 133.759 99.2989 133.758C99.3803 133.342 99.4519 132.882 99.5132 132.392ZM100.402 122.665C100.402 122.665 100.399 122.682 100.398 122.728C100.388 122.735 100.378 122.742 100.369 122.749C100.354 122.761 100.348 122.766 100.348 122.766C100.347 122.765 100.383 122.728 100.401 122.667C100.401 122.666 100.402 122.665 100.402 122.665Z"
        stroke="white" stroke-width="2" />
    <path
        d="M91.325 126.234C91.1331 127.02 90.9102 127.866 90.7514 128.383L91.325 126.234ZM91.325 126.234C87.9051 127.62 83.264 128.662 79.2893 128.921M91.325 126.234L79.2893 128.921M79.2893 128.921C77.398 129.047 74.3312 128.652 71.3773 128.043C68.8388 127.521 66.2541 126.813 64.4359 126.067C64.5218 126.384 64.6204 126.727 64.7274 127.083C64.998 127.982 65.3143 128.935 65.6057 129.715C65.8054 129.514 66.0191 129.314 66.225 129.13C66.6209 128.777 67.0867 128.397 67.4248 128.212C67.6826 128.071 67.9508 128.063 68.0365 128.061L68.0384 128.061C68.1755 128.057 68.32 128.066 68.4563 128.081C68.7328 128.111 69.0655 128.171 69.4188 128.252L69.4188 128.251L69.4273 128.254C71.6768 128.79 73.5907 128.967 77.7145 128.967L77.7179 128.967C81.637 128.981 83.5263 128.833 86.5176 128.323C86.5177 128.323 86.5178 128.323 86.5179 128.323C86.518 128.323 86.5181 128.323 86.5183 128.323L87.5602 128.145L87.9877 128.071L88.3332 128.334L89.1289 128.937L89.1345 128.941L89.1401 128.946C89.463 129.198 89.8623 129.564 90.1948 129.916C90.3994 129.415 90.6065 128.854 90.7513 128.384L79.2893 128.921Z"
        stroke="white" stroke-width="2" />
    <path
        d="M60.9977 134.054C60.8561 135.007 60.7185 136.095 60.6016 137.215C60.5034 138.221 60.3934 139.313 60.3412 139.792L60.4022 139.815C62.7374 140.697 64.9728 141.333 66.8045 141.673C67.7214 141.844 68.5192 141.936 69.1672 141.953C69.836 141.97 70.2618 141.904 70.4856 141.818L70.4856 141.818L70.4908 141.816C70.6121 141.771 70.7401 141.712 70.8375 141.658C70.8639 141.644 70.8844 141.632 70.8992 141.622C71.0091 141.506 71.1799 141.366 71.4267 141.289C71.7141 141.2 71.9718 141.238 72.1431 141.284C72.428 141.359 72.7436 141.536 73.0319 141.702C73.3912 141.898 73.4976 141.941 73.6132 141.967C73.7594 141.999 73.9712 142.013 74.5596 142.013C75.1522 142.013 75.5178 141.976 75.7945 141.907C76.0497 141.844 76.2682 141.743 76.5469 141.557C76.6258 141.502 76.7273 141.433 76.8332 141.376C76.8741 141.354 76.9244 141.328 76.9832 141.304C75.964 141.295 75.0022 141.265 74.1554 141.213L74.154 141.213C71.936 141.074 69.5543 140.81 67.6555 140.523C66.7074 140.379 65.8657 140.228 65.2186 140.08C64.8967 140.007 64.606 139.931 64.3675 139.852C64.1822 139.79 63.8637 139.678 63.6289 139.474L63.6178 139.465L63.6071 139.455C63.4437 139.304 63.3075 139.11 63.2063 138.952C63.0937 138.777 62.9751 138.569 62.854 138.341C62.6111 137.882 62.3353 137.299 62.0484 136.645C61.7087 135.87 61.3466 134.98 60.9977 134.054ZM84.8064 140.991C82.7381 141.19 80.2567 141.298 77.9629 141.307C78.139 141.381 78.2641 141.478 78.3256 141.525C78.3293 141.528 78.3327 141.53 78.336 141.533C78.3356 141.533 78.3354 141.532 78.3354 141.532C78.3354 141.532 78.3557 141.547 78.4059 141.573C78.4581 141.599 78.528 141.631 78.6158 141.666C78.7922 141.736 79.0133 141.807 79.2572 141.871C79.7589 142.003 80.2676 142.082 80.5956 142.082C80.8999 142.082 81.4556 141.995 81.9866 141.861C82.2437 141.797 82.4607 141.73 82.6084 141.674C82.6313 141.665 82.6511 141.657 82.668 141.65C82.9865 141.353 83.3881 141.371 83.4703 141.376C83.6457 141.387 83.7947 141.436 83.8824 141.469C84.0752 141.541 84.2728 141.65 84.4467 141.763L84.455 141.769L84.4632 141.774C84.9386 142.097 85.8001 142.302 87.3594 142.139C88.8957 141.978 90.9468 141.479 93.6461 140.595L93.6466 140.595L95.0019 140.152L94.9628 139.615L94.9625 139.611C94.8416 137.85 94.6706 136.219 94.4555 134.745C94.2471 135.279 94.0219 135.825 93.7986 136.343C93.4777 137.086 93.1493 137.797 92.8626 138.358C92.7198 138.637 92.581 138.891 92.4538 139.097C92.3536 139.26 92.1888 139.516 91.9798 139.691C91.8303 139.817 91.6711 139.88 91.6213 139.899L91.6182 139.901C91.5347 139.934 91.4465 139.962 91.3652 139.985C91.2004 140.032 90.9964 140.081 90.7722 140.128C90.3201 140.225 89.7257 140.331 89.0678 140.437C87.7512 140.649 86.135 140.865 84.8064 140.991Z"
        stroke="white" stroke-width="2" />
    <path
        d="M56.5587 142.327L57.4028 142.416L58.1848 142.499L58.1863 142.499C59.9247 142.679 61.8543 143.17 65.5229 144.361C67.6805 145.076 69.9275 145.779 70.5059 145.948L70.5162 145.951L70.5265 145.954C73.4266 146.736 76.5596 147.052 79.3994 146.822C82.5962 146.568 84.5217 146.163 90.3261 144.567L90.3272 144.567C93.5947 143.665 95.786 143.178 97.085 143.035C97.3468 143.012 97.5948 142.983 97.79 142.955C97.8884 142.941 97.9807 142.926 98.0581 142.911C98.096 142.904 98.1394 142.895 98.1824 142.884L98.1851 142.883C98.2071 142.878 98.3132 142.852 98.4237 142.796L98.4794 142.769L98.5312 142.734C98.7809 142.567 98.8858 142.341 98.9281 142.218C98.9717 142.092 98.9812 141.983 98.9839 141.924C98.9895 141.804 98.9741 141.704 98.9655 141.655C98.9461 141.544 98.9138 141.434 98.8852 141.348C98.8246 141.164 98.7351 140.944 98.6306 140.727L98.627 140.72L98.627 140.72C98.463 140.386 98.2979 139.931 98.1741 139.481C98.0453 139.013 97.9888 138.651 97.9888 138.486C97.9888 137.423 98.898 136.455 100.195 136.402C100.202 136.722 100.177 137.231 100.115 137.827C100.037 138.577 99.9131 139.344 99.7802 139.851L99.7795 139.854C98.2746 145.664 93.7736 150.456 89.0075 151.588L56.5587 142.327ZM56.5587 142.327C57.6888 144.996 59.5515 147.476 61.785 149.155L61.7862 149.156C65.5383 151.986 70.1802 152.505 73.9017 150.626C74.2675 150.44 74.9764 149.988 75.6429 149.522C75.9696 149.294 76.2674 149.075 76.489 148.901C76.6007 148.813 76.6832 148.743 76.7369 148.694C76.7468 148.685 76.7548 148.678 76.7611 148.672C77.0022 148.345 77.3466 148.266 77.5354 148.254C77.7218 148.242 77.8734 148.281 77.9496 148.304C78.1127 148.352 78.2611 148.431 78.3672 148.492C78.5962 148.624 78.8641 148.817 79.1389 149.04C80.3252 149.996 81.7999 150.817 83.2381 151.313C83.8556 151.524 84.18 151.62 84.5369 151.679C84.9065 151.741 85.3405 151.767 86.1809 151.795C87.7006 151.835 88.0843 151.807 89.0069 151.588L56.5587 142.327ZM55.9985 136.407C55.7739 136.305 55.5418 136.219 55.3283 136.154C55.3287 136.253 55.3303 136.36 55.3331 136.472C55.3512 137.192 55.4173 138.057 55.519 138.718L55.5195 138.721C55.6689 139.712 55.937 140.713 56.3062 141.696L56.5864 141.033L56.9979 140.059L56.9985 140.057C57.4482 138.998 57.4895 138.237 57.3296 137.713C57.1798 137.222 56.8007 136.766 56.001 136.408L55.9985 136.407ZM76.7813 148.652C76.7812 148.652 76.7793 148.654 76.776 148.657C76.7798 148.653 76.7814 148.652 76.7813 148.652ZM54.67 136.013C54.67 136.013 54.6711 136.013 54.6731 136.013C54.671 136.013 54.67 136.013 54.67 136.013Z"
        stroke="white" stroke-width="2" />
</svg>
