<svg width="237" height="230" viewBox="0 0 237 230" fill="none" xmlns="http://www.w3.org/2000/svg">
    <path fill-rule="evenodd" clip-rule="evenodd"
        d="M16.155 1.99812C25.0398 3.86673 55.1008 11.4682 77.7512 14.8169C95.464 14.9595 107.226 10.1764 118.779 10.1839C130.246 10.1907 141.256 13.7879 159.983 15.479C181.318 12.1422 205.501 5.83327 221.253 5.10436C231.865 4.93309 225.861 49.2124 215.112 55.6296C234.692 78.978 234.552 107.045 234.193 119.707C232.96 113.365 231.756 114.126 228.019 110.587C230.426 141.156 222.332 157.949 213.276 166.776C214.463 157.458 212.526 153.592 209.114 152.281C204.746 173.981 189.179 183.612 181.263 189.025C182.188 180.475 189.646 168.126 177.999 169.231C174.89 172.8 163.813 188.114 163.317 175.359C158.823 180.8 141.948 204.197 153.145 205.828C148.793 225.56 131.27 233.634 117.404 223.425C101.581 232.967 84.4406 225.556 80.1529 205.411C87.97 201.709 77.6849 182.457 71.8433 174.623C68.4159 185.805 61.2514 172.227 58.5462 168.098C45.2243 164.653 52.9388 173.7 54.0299 186.973C45.4377 180.657 34.9899 170.989 25.241 148.917C22.0377 153.513 21.3421 154.876 21.2705 163.775C8.77023 143.308 4.60201 129.583 8.61041 110.018C4.31748 111.781 4.15944 110.154 2.21628 117.668C0.882184 102.682 0.182085 72.7253 21.7136 55.6126C10.1705 43.796 7.21726 6.71833 16.155 1.99812Z"
        fill="#FE4500" />
    <path
        d="M216.287 47.9372C218.429 37.0009 219.224 23.3154 219.303 13.3894C213.668 22.5005 204.359 30.8118 192.184 33.7089C195.893 30.0591 218.224 9.27307 220.817 6.04211C223.03 7.51471 224.648 29.7772 216.287 47.9372ZM151.406 102.953C148.757 102.504 146.536 102.058 144.831 101.188C146.896 99.7502 148.793 97.9684 150.604 96.2715C150.076 98.1499 151.506 101.242 152.779 102.45C154.424 100.153 156.433 95.1204 155.177 91.6017C156.557 90.2436 157.592 89.3106 158.191 89.3155C164.432 90.0503 163.82 102.283 151.406 102.953ZM76.9941 98.246C74.7023 95.9171 74.2392 89.6664 78.4424 88.4166C79.5555 88.34 80.5755 89.2039 82.1026 90.8422C80.7991 93.3133 81.6921 99.3108 84.153 101.898C85.5365 100.112 86.8469 96.785 86.1748 95.2393C87.7882 96.7926 89.7418 98.6054 92.2075 100.593C91.1779 100.927 89.4617 101.513 88.5177 101.847C84.2275 103.268 79.7951 101.093 76.9941 98.246ZM218.142 93.8202C226.045 111.341 223.995 142.731 217.897 156.117C217.648 144.648 213.069 139.391 205.495 134.11C206.315 159.789 190.685 177.291 187.321 180.602C191.464 155.048 179.091 161.281 175.991 163.567C175.991 163.567 176.112 148.592 165.328 138.151C166.524 138.417 181.401 139.991 189.999 156.32C192.551 147.526 192.741 134.52 187.379 120.357C190.113 120.807 192.164 121.252 193.186 121.773C193.197 120.404 196.319 136.603 197.096 146.279C199.903 137.83 200.051 130.044 199.839 124.48C208.019 128.824 212.35 133.052 214.812 135.468C214.904 134.699 215.08 134.016 215.172 133.246C218.252 112.134 214.473 92.5071 208.581 80.3936C214.37 84.1199 218.709 87.2356 222.121 88.6322C221.243 80.6667 212.316 62.8808 206.142 53.8458C226.782 73.0096 228.253 92.2757 230.193 106.326C228.506 103.317 227.431 98.6872 218.142 93.8202ZM162.463 175.096C161.911 169.272 159.428 169.509 149.723 173.795C149.466 173.879 149.208 174.048 148.864 174.216C140.436 179.454 125.85 184.129 120.717 184.002C118.407 183.897 119.965 181.685 120.577 180.064C124.246 170.852 143.152 171.603 145.259 164.945C147.415 152.212 145.577 146.72 142.965 141.65C142.659 137.198 141.656 134.195 140.406 129.991C142.768 134.289 157.011 140.137 161.446 142.056C176.628 158.951 169.549 166.595 162.463 175.096ZM151.249 196.913C151.723 212.405 134.195 231.861 117.459 216.665C99.6246 231.582 82.5078 210.564 84.3315 196.63C87.412 196.655 92.789 198.41 88.9661 205.568C98.5506 205.559 106.968 212.302 119.207 212.144C129.396 211.37 137.131 207.239 146.38 206.458C143.103 198.901 146.458 196.703 151.249 196.913ZM114.898 183.955C96.0846 182.349 89.1369 173.735 82.4762 171.97C77.4352 170.988 74.0414 167.367 73.3873 174.207C63.3825 162.66 62.1582 155.29 74.2474 141.781C76.6613 139.576 92.0989 135.336 96.2551 129.294C96.2551 129.294 94.0587 136.379 93.4218 141.08C91.8581 143.977 88.9944 148.917 90.256 162.277C91.2823 172.982 111.94 168.699 115.603 181.393C116.186 183.366 116.269 183.795 114.898 183.955ZM59.9604 162.547C57.7508 160.646 44.2887 153.35 48.435 180.424C44.9611 176.118 30.7219 159.059 30.5905 132.872C20.0987 139.292 18.2384 147.15 18.0935 154.508C13.0655 141.289 11.9506 109.703 18.6793 92.3853C13.3368 96.9633 10.3336 97.966 6.7819 103.329C10.3286 77.3424 19.5802 65.5221 30.0216 54.7381C25.3396 62.3166 16.5613 79.1041 15.1281 87.051C19.9428 84.2658 24.413 81.7346 28.2864 78.9418C19.0438 100.261 19.9239 118.496 21.5112 133.912C23.8416 131.449 28.7541 127.124 36.7452 123.081C36.2291 134.03 37.0524 138.059 39.1345 145.178C39.3786 136.109 42.3003 123.981 43.8694 120.4C44.8148 119.894 47.3012 119.315 49.1858 119.073C45.4968 130.853 41.8892 143.147 45.3018 155.069C52.5032 142.804 60.7365 140.56 70.9467 137.219C61.5453 146.386 60.266 156.473 59.9604 162.547ZM19.4084 12.4643C18.4148 18.96 20.3148 38.0585 21.871 46.7141C13.5155 32.2702 15.6579 10.6371 17.1622 4.48782C26.8454 13.4656 37.031 23.8165 45.9462 32.5314C43.3798 32.4251 27.6716 27.7632 19.4084 12.4643ZM87.5969 194.945C76.8343 181.851 77.7314 176.724 77.9984 175.443C81.4425 172.817 87.5649 177.659 87.5649 177.659C87.5649 177.659 85.4589 184.146 87.5969 194.945ZM135.628 191.995C134.528 190.445 134.021 189.671 131.808 188.199C114.753 191.313 103.914 187.803 103.914 187.803C103.914 187.803 101.593 189.068 99.9471 191.536C97.5897 186.725 96.6939 181.07 96.6939 181.07C96.6939 181.07 100.941 184.955 117.529 186.629C130.366 186.561 138.963 181.667 138.963 181.667C138.963 181.667 137.622 188.844 135.628 191.995ZM147.921 195.688C150.043 187.233 148.146 178.403 148.146 178.403C148.146 178.403 154.176 173.489 157.918 176.343C158.389 181.567 152.93 189.995 147.921 195.688ZM126.009 206.893C122.909 209.349 118.813 207.862 117.368 206.652C116.586 208.1 111.957 209.09 109.325 206.502C106.983 210.505 91.5442 204.219 91.5442 204.219C91.5442 204.219 92.5806 192.418 93.626 190.116C94.6335 192.52 96.8011 199.64 98.4953 201.793C111.65 204.809 126.628 204.416 137 202.275C138.21 200.744 141.014 192.637 141.887 190.505C143.578 193 143.911 204.812 143.911 204.812C143.911 204.812 129.059 210.768 126.009 206.893ZM147.921 195.688C147.921 195.688 150.125 187.661 148.231 178.404C150.903 176.115 155.537 174.441 157.917 176.428C158.283 184.133 147.921 195.688 147.921 195.688ZM126.009 206.893C123.682 208.928 119.409 208.294 117.454 206.653C116.587 208.015 111.873 208.918 109.411 206.502C106.731 209.904 95.2134 205.532 91.5449 204.134C92.1625 201.828 92.4184 191.304 93.6267 190.03C94.1229 192.174 97.6458 201.016 98.496 201.708C99.008 201.883 107.463 204.005 117.733 203.917C127.231 203.907 136.229 202.354 136.916 202.103C137.521 201.337 140.832 194.005 141.802 190.418C142.988 191.883 143.665 203.441 143.826 204.726C140.908 205.815 128.805 210.424 126.009 206.893Z"
        fill="white" />
    <path fill-rule="evenodd" clip-rule="evenodd"
        d="M234.243 124.243C233.168 119.614 232.702 113.705 228.948 112.306C232.525 135.611 225.163 157.202 212.223 170.191C213.218 163.438 212.524 154.019 210.129 153.915C203.895 173.547 188.646 186.26 178.932 191.744C182.721 178.168 186.731 169.044 176.959 171.019C173.241 175.781 163.117 189.649 162.275 177.319C160.867 182.1 157.323 186.607 155.672 189.674C154.455 191.975 148.719 202.968 156.308 206.366C149.535 229.16 132.049 232.699 117.571 224.111C103.301 232.125 83.9896 228.547 78.782 205.742C83.7492 205.269 80.7803 191.382 79.3442 189.06C77.0635 185.361 75.1326 180.725 73.4509 177.032C73.1225 185.929 64.5324 179.356 58.7867 170.239C52.2165 167.875 50.7301 171.8 56.567 190.844C46.1882 183.23 33.1685 174.14 25.6471 151.744C23.1352 155.49 23.0007 161.564 23.6316 168.244C8.44215 152.291 5.0916 132.667 7.75157 110.525C4.82361 112.812 4.03281 115.372 2.44089 121.778C-1.45684 106.343 1.72331 72.7376 19.754 54.6554C10.9713 40.1226 6.77661 8.42615 15.2299 0.107898C24.1146 1.97651 54.6091 8.89688 77.2594 12.2455C95.9046 13.5081 107.662 9.32409 119.215 9.33154C130.681 9.3383 142.028 13.6228 160.774 13.0036C182.534 10.0125 205.418 5.57577 223.077 1.78153C233.2 9.39361 225.885 46.303 218.362 55.9979C238.201 79.0916 237.271 109.549 234.243 124.243ZM158.004 176.343C154.262 173.489 148.232 178.404 148.232 178.404C148.232 178.404 150.129 187.233 148.007 195.688C152.931 189.994 158.39 181.566 158.004 176.343ZM117.546 216.58C134.625 231.607 152.329 211.554 150.905 197.166C148.943 196.38 142 197.865 146.553 206.288C137.304 207.069 128.452 211.876 117.583 211.959C105.858 212.121 98.0351 205.897 88.7094 205.651C92.8746 198.496 87.0711 196.567 84.4198 196.374C82.6521 213.988 102.887 230.411 117.546 216.58ZM136.916 202.188C126.63 204.33 111.734 204.981 98.5802 201.965C96.8861 199.812 94.3762 192.689 93.5425 189.944C92.2411 192.159 91.3738 204.218 91.3738 204.218C91.3738 204.218 106.812 210.503 109.155 206.5C111.788 209.003 116.076 207.839 117.198 206.565C118.558 207.774 122.571 208.919 125.84 206.806C128.803 210.68 143.656 204.724 143.656 204.724C143.656 204.724 143.224 194.623 141.632 190.417C141.265 193.409 138.126 200.743 136.916 202.188ZM138.965 181.496C138.965 181.496 130.027 186.301 117.532 186.458C101.714 184.79 96.694 181.155 96.694 181.155C96.694 181.155 97.5898 186.81 99.9471 191.622C101.593 189.153 103.914 187.888 103.914 187.888C103.914 187.888 114.755 191.227 131.809 188.113C134.022 189.585 134.529 190.36 135.629 191.909C137.622 188.844 138.965 181.496 138.965 181.496ZM87.5955 195.202C85.4575 184.402 87.6498 177.831 87.6498 177.831C87.6498 177.831 81.5268 173.075 78.0833 175.614C77.7307 176.895 76.7474 182.107 87.5955 195.202ZM220.818 6.04207C209.529 5.26657 177.689 16.5628 151.504 16.5231C140.045 15.4895 133.641 13.7264 119.295 10.0168C107.205 12.9145 98.9733 14.9876 87.071 15.9187C67.3845 16.4448 27.6071 3.97284 17.6777 4.32076C14.8871 10.802 14.9708 32.2819 21.7048 46.1992C19.8063 37.5409 18.8434 18.9634 19.2428 11.8639C28.6177 27.2573 42.2729 31.8171 46.0325 32.532C44.8276 33.378 35.5324 39.978 34.8189 43.5664C46.953 35.1067 54.2312 34.5662 62.3755 32.7492C47.8488 40.7618 30.8407 48.7544 17.7427 70.6416C10.987 80.685 8.12403 96.151 6.95169 103.587C9.90582 98.048 12.4819 96.9563 19.0237 92.2168C11.8665 109.616 13.0662 141.289 18.4372 154.425C18.0755 146.207 21.1269 139.214 30.9342 132.789C31.0525 160.602 45.1392 175.349 48.6986 179.656C44.5523 152.581 58.6886 161.167 60.2158 162.805C60.6724 148.604 68.3597 139.766 71.6313 137.31C87.4174 132.303 96.6816 129.554 96.6816 129.554C91.6731 135.161 78.628 139.848 74.9362 141.359C62.4163 155.207 63.6392 162.747 73.5585 174.294C74.2126 167.453 77.8721 169.965 82.3935 171.712C87.685 173.467 95.6685 180.976 115.326 184.044C116.696 183.884 116.113 181.996 115.273 180.021C110.484 168.944 91.3686 172.983 90.3423 162.278C89.0814 148.832 91.9403 144.491 93.5033 141.68C93.1162 147.239 91.0262 162.369 99.4851 163.977C101.536 164.336 103.366 160.243 104.917 158.886C110.033 161.238 111.563 162.449 117.876 164.981C121.566 163.642 125.69 161.621 131.271 159.355C133.225 161.083 135.06 167.002 139.712 163.103C143.847 159.713 143.837 150.386 143.05 141.822C145.662 146.892 147.586 152.384 145.344 165.117C143.237 171.775 124.331 171.023 120.662 180.236C120.051 181.771 118.492 184.069 120.802 184.173C125.935 184.3 140.521 179.625 148.949 174.388C149.207 174.219 149.55 174.136 149.808 173.967C159.513 169.595 161.997 169.358 162.548 175.267C169.634 166.767 176.627 159.122 161.531 142.227C157.096 140.395 142.852 134.461 140.491 130.163C153.121 134.544 157.474 135.862 165.413 138.322C176.621 149.28 176.076 163.738 176.076 163.738C185.368 157.566 190.539 163.683 187.407 180.688C195.337 173.563 206.705 154.058 205.579 134.367C214.604 140.173 217.801 146.959 217.981 156.459C223.908 143.072 226.386 111.6 218.227 93.992C226.155 97.8211 228.676 103.575 230.449 106.584C224.537 54.3361 186.56 41.4509 175.839 33.7484C188.058 36.0717 197.691 40.5992 203.559 45.1819C200.691 40.1099 197.375 37.4304 192.269 33.8807C201.187 31.5564 210.552 27.0108 219.388 13.6467C219.429 19.2094 218.86 36.662 216.372 48.109C224.649 29.7771 223.115 7.68649 220.818 6.04207ZM120.228 21.6624C119.885 21.6597 163.107 31.5065 186.496 49.4088C174.638 44.8634 146.055 34.3643 138.16 37.0391C145.155 39.7483 164.679 48.8052 164.679 48.8052C164.679 48.8052 151.497 49.2125 148.321 50.4706C161.673 60.7615 165.706 70.036 165.706 70.036C165.706 70.036 152.304 55.2948 130.47 46.2193C126.442 46.957 122.498 47.8666 118.55 49.2895C115.653 47.8114 110.612 46.8295 107.282 45.947C90.7923 53.2592 78.3987 62.0592 72.0094 69.1104C74.2748 64.0797 82.4762 55.1604 89.0222 49.9075C83.8977 48.6682 81.6736 48.5647 72.5204 48.1487C82.7424 43.3533 95.8766 38.239 99.5684 36.7284C88.6307 34.7577 67.7761 42.2059 51.211 48.3194C64.8156 37.9033 91.8643 26.3974 117.66 21.7273C96.3532 21.5558 73.6374 26.3362 57.5222 29.715C66.6249 25.7663 70.4865 24.4282 80.0868 22.4517C97.0584 18.9942 106.989 18.4751 119.202 10.8718C130.005 18.9172 146.424 20.333 156.844 22.813C164.786 24.9308 173.241 27.0526 180.485 30.7051C160.841 26.0115 135.211 20.7562 120.228 21.6624ZM65.3044 51.5992C59.2394 60.878 67.3031 69.0725 70.3608 71.9211C82.9021 66.0318 92.9924 66.9689 99.4703 80.7985C85.3788 66.6508 74.7062 74.2666 70.0676 76.4542C62.7465 71.6886 58.9683 62.6729 58.9662 62.9296C52.3429 67.155 51.6363 69.8877 52.9048 82.3918C38.3564 61.2233 61.5276 53.0235 65.3044 51.5992ZM47.2866 110.586C41.4301 125.857 40.5166 133.038 39.3905 145.352C36.1546 132.746 36.4423 128.897 37.0895 122.912C29.0985 126.956 24.0127 131.536 21.6824 133.999C20.0094 118.582 18.6229 99.4874 28.7142 79.0307C24.3282 81.7338 19.9407 84.608 15.3014 86.8812C23.3571 74.7944 34.8295 63.5054 44.3731 57.9343C36.8191 71.4799 26.7408 90.3107 28.6444 119.593C34.2429 115.102 41.1049 113.104 47.2866 110.586ZM72.9514 132.786C52.8364 133.394 47.9985 149.7 46.1658 154.135C45.751 152.505 47.1288 130.182 55.0639 122.458C59.8158 127.46 66.2935 130.678 72.9514 132.786ZM53.4055 115.856C53.4055 115.856 61.3228 120.968 71.3179 123.102C81.2281 125.15 92.7854 124.559 92.7854 124.559C92.7854 124.559 81.3606 129.944 70.0013 127.199C60.3485 125.068 53.4055 115.856 53.4055 115.856ZM92.011 114.455C85.3206 105.758 72.0215 99.4895 67.1599 97.4822C64.5189 96.0061 61.4398 95.8102 55.8067 93.9677C64.1035 94.4624 67.7816 94.6632 71.8786 95.9798C71.2968 93.8358 70.7986 91.9491 71.5052 89.2164C68.5958 89.193 63.539 90.1792 62.1699 90.1681C63.6493 87.0994 73.0535 77.5907 80.8183 80.3916C90.7057 85.2634 92.8991 110.44 112.69 96.9074C109.47 103.556 100.992 104.429 99.0241 104.328C99.0248 104.242 98.9392 104.242 98.9399 104.156C98.4258 104.238 98.5114 104.238 99.0241 104.328C101.635 109.569 101.579 116.5 98.5876 126.659C99.0671 120.245 98.7164 110.658 94.9968 104.98C93.9659 105.485 91.3036 106.662 90.2726 107.167C91.3719 108.802 91.8771 109.833 92.011 114.455ZM92.2082 100.593C89.7419 98.6909 87.7882 96.8781 86.1755 95.2392C86.8477 96.7849 85.5373 100.112 84.1537 101.898C81.6928 99.3107 80.7142 93.3125 82.1033 90.8421C80.5762 89.2038 79.5569 88.2543 78.4432 88.4165C74.2399 89.6663 74.703 95.917 76.9948 98.2459C79.7103 101.092 84.2282 103.267 88.5184 101.847C89.4624 101.513 91.2635 101.014 92.2082 100.593ZM104.335 82.4636C106.74 81.2849 109.995 80.8833 114.286 79.3775C116.327 80.9342 117.091 81.7106 118.458 82.0639C120.347 81.2234 120.863 80.8852 122.5 79.5292C125.745 80.4111 130.353 81.9885 132.401 82.6896C131.032 82.7642 125.546 83.8325 124.09 83.9919C121.582 87.3091 120.195 89.5229 118.296 91.4758C115.921 88.8894 114.828 86.4845 112.623 83.9851C110.574 83.4552 106.386 82.8224 104.335 82.4636ZM159.544 80.7688C162.624 80.8792 169.371 82.5595 175.12 91.2488C172.725 91.0584 167.174 89.6444 165.801 90.1468C166.375 93.2321 165.761 95.1099 165.32 96.7322C168.321 95.9862 175.774 95.0193 180.993 95.1469C176.448 96.394 172.333 97.3021 170.013 98.4815C162.032 101.241 156.627 102.995 144.807 114.88C144.661 111.798 145.188 110.091 146.574 107.963C145.297 107.182 143.764 106.314 141.973 105.53C139.024 110.469 138.049 114.569 137.782 126.547C137.717 123.979 133.262 113.931 137.87 104.983C131.541 104.504 126.771 101.813 124.41 97.4297C146.712 112.071 147.49 79.217 159.544 80.7688ZM151.407 102.953C163.735 102.282 164.433 90.0502 158.192 89.3154C157.593 89.3106 156.558 90.2436 155.178 91.6016C156.347 95.2052 154.424 100.239 152.78 102.45C151.506 101.242 150.077 98.0642 150.605 96.2714C148.88 97.969 146.897 99.7501 144.832 101.188C146.537 101.972 148.758 102.418 151.407 102.953ZM137.78 126.718C137.781 126.633 137.782 126.547 137.782 126.462C137.781 126.633 137.78 126.718 137.78 126.718ZM183.383 117.159C177.762 124.473 163.908 133.946 143.529 124.882C160.716 126.475 171.7 122.713 183.383 117.159ZM181.619 123.648C187.382 130.712 189.266 141.167 190.088 155.978C183.812 138.299 176.563 135.246 163.312 133.513C171.024 132.292 179.628 126.456 181.619 123.648ZM207.826 121.035C209.426 113.689 208.402 92.0302 201.349 75.2008C197.987 67.6432 196.641 64.7228 193.348 59.2195C202.202 64.9387 210.952 72.882 222.121 88.6321C218.71 87.2355 214.37 84.1198 208.581 80.3935C214.727 92.9369 218.498 113.505 214.813 135.468C212.35 133.052 208.02 128.824 199.84 124.48C200.124 131.67 200.093 135.521 197.097 146.279C195.571 133.944 195.53 128.381 189.502 111.817C198.716 115.314 202.21 117.139 207.826 121.035ZM118.512 64.6927C114.585 63.463 112.797 62.4217 108.018 60.7573C98.8428 63.0795 93.8626 65.1788 88.3744 66.5894C92.5079 63.3708 99.9006 59.2372 108.573 55.5417C112.925 57.1171 115.913 57.9969 118.555 59.3018C121.219 57.9541 125.336 56.7892 128.683 55.6181C131.923 57.099 145.475 63.7973 148.445 66.9875C140.933 64.6165 133.508 62.1606 129.067 61.0124C125.808 61.9275 121.431 63.5182 118.512 64.6927ZM184.252 83.6206C184.906 76.8655 187.622 68.9289 178.675 64.1502C178.07 65.0011 173.379 73.6919 167.531 77.239C150.406 67.859 144.174 76.623 137.804 81.2783C146.868 60.8134 165.771 72.6038 166.968 72.7846C179.718 62.1904 172.521 52.6337 172.521 52.6337C172.521 52.6337 200.689 61.5035 184.252 83.6206Z"
        fill="#010101" />
    <path fill-rule="evenodd" clip-rule="evenodd"
        d="M234.243 124.243C233.168 119.614 232.702 113.705 228.948 112.306C232.525 135.611 225.163 157.202 212.223 170.191C213.218 163.438 212.524 154.019 210.129 153.915C203.895 173.547 188.646 186.26 178.932 191.744C182.721 178.168 186.731 169.044 176.959 171.019C173.241 175.781 163.117 189.649 162.275 177.319C160.867 182.1 157.323 186.607 155.672 189.674C154.455 191.975 148.719 202.968 156.308 206.366C149.535 229.16 132.049 232.699 117.571 224.111C103.301 232.125 83.9896 228.547 78.782 205.742C83.7492 205.269 80.7803 191.382 79.3442 189.06C77.0635 185.361 75.1326 180.725 73.4509 177.032C73.1225 185.929 64.5324 179.356 58.7867 170.239C52.2165 167.875 50.7301 171.8 56.567 190.844C46.1882 183.23 33.1685 174.14 25.6471 151.744C23.1352 155.49 23.0007 161.564 23.6316 168.244C8.44215 152.291 5.0916 132.667 7.75157 110.525C4.82361 112.812 4.03281 115.372 2.44089 121.778C-1.45684 106.343 1.72331 72.7376 19.754 54.6554C10.9713 40.1226 6.77661 8.42615 15.2299 0.107898C24.1146 1.97651 54.6091 8.89688 77.2594 12.2455C95.9046 13.5081 107.662 9.32409 119.215 9.33154C130.681 9.3383 142.028 13.6228 160.774 13.0036C182.534 10.0125 205.418 5.57577 223.077 1.78153C233.2 9.39361 225.885 46.303 218.362 55.9979C238.201 79.0916 237.271 109.549 234.243 124.243ZM158.004 176.343C154.262 173.489 148.232 178.404 148.232 178.404C148.232 178.404 150.129 187.233 148.007 195.688C152.931 189.994 158.39 181.566 158.004 176.343ZM117.546 216.58C134.625 231.607 152.329 211.554 150.905 197.166C148.943 196.38 142 197.865 146.553 206.288C137.304 207.069 128.452 211.876 117.583 211.959C105.858 212.121 98.0351 205.897 88.7094 205.651C92.8746 198.496 87.0711 196.567 84.4198 196.374C82.6521 213.988 102.887 230.411 117.546 216.58ZM136.916 202.188C126.63 204.33 111.734 204.981 98.5802 201.965C96.8861 199.812 94.3762 192.689 93.5425 189.944C92.2411 192.159 91.3738 204.218 91.3738 204.218C91.3738 204.218 106.812 210.503 109.155 206.5C111.788 209.003 116.076 207.839 117.198 206.565C118.558 207.774 122.571 208.919 125.84 206.806C128.803 210.68 143.656 204.724 143.656 204.724C143.656 204.724 143.224 194.623 141.632 190.417C141.265 193.409 138.126 200.743 136.916 202.188ZM138.965 181.496C138.965 181.496 130.027 186.301 117.532 186.458C101.714 184.79 96.694 181.155 96.694 181.155C96.694 181.155 97.5898 186.81 99.9471 191.622C101.593 189.153 103.914 187.888 103.914 187.888C103.914 187.888 114.755 191.227 131.809 188.113C134.022 189.585 134.529 190.36 135.629 191.909C137.622 188.844 138.965 181.496 138.965 181.496ZM87.5955 195.202C85.4575 184.402 87.6498 177.831 87.6498 177.831C87.6498 177.831 81.5268 173.075 78.0833 175.614C77.7307 176.895 76.7474 182.107 87.5955 195.202ZM220.818 6.04207C209.529 5.26657 177.689 16.5628 151.504 16.5231C140.045 15.4895 133.641 13.7264 119.295 10.0168C107.205 12.9145 98.9733 14.9876 87.071 15.9187C67.3845 16.4448 27.6071 3.97284 17.6777 4.32076C14.8871 10.802 14.9708 32.2819 21.7048 46.1992C19.8063 37.5409 18.8434 18.9634 19.2428 11.8639C28.6177 27.2573 42.2729 31.8171 46.0325 32.532C44.8276 33.378 35.5324 39.978 34.8189 43.5664C46.953 35.1067 54.2312 34.5662 62.3755 32.7492C47.8488 40.7618 30.8407 48.7544 17.7427 70.6416C10.987 80.685 8.12403 96.151 6.95169 103.587C9.90582 98.048 12.4819 96.9563 19.0237 92.2168C11.8665 109.616 13.0662 141.289 18.4372 154.425C18.0755 146.207 21.1269 139.214 30.9342 132.789C31.0525 160.602 45.1392 175.349 48.6986 179.656C44.5523 152.581 58.6886 161.167 60.2158 162.805C60.6724 148.604 68.3597 139.766 71.6313 137.31C87.4174 132.303 96.6816 129.554 96.6816 129.554C91.6731 135.161 78.628 139.848 74.9362 141.359C62.4163 155.207 63.6392 162.747 73.5585 174.294C74.2126 167.453 77.8721 169.965 82.3935 171.712C87.685 173.467 95.6685 180.976 115.326 184.044C116.696 183.884 116.113 181.996 115.273 180.021C110.484 168.944 91.3686 172.983 90.3423 162.278C89.0814 148.832 91.9403 144.491 93.5033 141.68C93.1162 147.239 91.0262 162.369 99.4851 163.977C101.536 164.336 103.366 160.243 104.917 158.886C110.033 161.238 111.563 162.449 117.876 164.981C121.566 163.642 125.69 161.621 131.271 159.355C133.225 161.083 135.06 167.002 139.712 163.103C143.847 159.713 143.837 150.386 143.05 141.822C145.662 146.892 147.586 152.384 145.344 165.117C143.237 171.775 124.331 171.023 120.662 180.236C120.051 181.771 118.492 184.069 120.802 184.173C125.935 184.3 140.521 179.625 148.949 174.388C149.207 174.219 149.55 174.136 149.808 173.967C159.513 169.595 161.997 169.358 162.548 175.267C169.634 166.767 176.627 159.122 161.531 142.227C157.096 140.395 142.852 134.461 140.491 130.163C153.121 134.544 157.474 135.862 165.413 138.322C176.621 149.28 176.076 163.738 176.076 163.738C185.368 157.566 190.539 163.683 187.407 180.688C195.337 173.563 206.705 154.058 205.579 134.367C214.604 140.173 217.801 146.959 217.981 156.459C223.908 143.072 226.386 111.6 218.227 93.992C226.155 97.8211 228.676 103.575 230.449 106.584C224.537 54.3361 186.56 41.4509 175.839 33.7484C188.058 36.0717 197.691 40.5992 203.559 45.1819C200.691 40.1099 197.375 37.4304 192.269 33.8807C201.187 31.5564 210.552 27.0108 219.388 13.6467C219.429 19.2094 218.86 36.662 216.372 48.109C224.649 29.7771 223.115 7.68649 220.818 6.04207ZM120.228 21.6624C119.885 21.6597 163.107 31.5065 186.496 49.4088C174.638 44.8634 146.055 34.3643 138.16 37.0391C145.155 39.7483 164.679 48.8052 164.679 48.8052C164.679 48.8052 151.497 49.2125 148.321 50.4706C161.673 60.7615 165.706 70.036 165.706 70.036C165.706 70.036 152.304 55.2948 130.47 46.2193C126.442 46.957 122.498 47.8666 118.55 49.2895C115.653 47.8114 110.612 46.8295 107.282 45.947C90.7923 53.2592 78.3987 62.0592 72.0094 69.1104C74.2748 64.0797 82.4762 55.1604 89.0222 49.9075C83.8977 48.6682 81.6736 48.5647 72.5204 48.1487C82.7424 43.3533 95.8766 38.239 99.5684 36.7284C88.6307 34.7577 67.7761 42.2059 51.211 48.3194C64.8156 37.9033 91.8643 26.3974 117.66 21.7273C96.3532 21.5558 73.6374 26.3362 57.5222 29.715C66.6249 25.7663 70.4865 24.4282 80.0868 22.4517C97.0584 18.9942 106.989 18.4751 119.202 10.8718C130.005 18.9172 146.424 20.333 156.844 22.813C164.786 24.9308 173.241 27.0526 180.485 30.7051C160.841 26.0115 135.211 20.7562 120.228 21.6624ZM65.3044 51.5992C59.2394 60.878 67.3031 69.0725 70.3608 71.9211C82.9021 66.0318 92.9924 66.9689 99.4703 80.7985C85.3788 66.6508 74.7062 74.2666 70.0676 76.4542C62.7465 71.6886 58.9683 62.6729 58.9662 62.9296C52.3429 67.155 51.6363 69.8877 52.9048 82.3918C38.3564 61.2233 61.5276 53.0235 65.3044 51.5992ZM47.2866 110.586C41.4301 125.857 40.5166 133.038 39.3905 145.352C36.1546 132.746 36.4423 128.897 37.0895 122.912C29.0985 126.956 24.0127 131.536 21.6824 133.999C20.0094 118.582 18.6229 99.4874 28.7142 79.0307C24.3282 81.7338 19.9407 84.608 15.3014 86.8812C23.3571 74.7944 34.8295 63.5054 44.3731 57.9343C36.8191 71.4799 26.7408 90.3107 28.6444 119.593C34.2429 115.102 41.1049 113.104 47.2866 110.586ZM72.9514 132.786C52.8364 133.394 47.9985 149.7 46.1658 154.135C45.751 152.505 47.1288 130.182 55.0639 122.458C59.8158 127.46 66.2935 130.678 72.9514 132.786ZM53.4055 115.856C53.4055 115.856 61.3228 120.968 71.3179 123.102C81.2281 125.15 92.7854 124.559 92.7854 124.559C92.7854 124.559 81.3606 129.944 70.0013 127.199C60.3485 125.068 53.4055 115.856 53.4055 115.856ZM92.011 114.455C85.3206 105.758 72.0215 99.4895 67.1599 97.4822C64.5189 96.0061 61.4398 95.8102 55.8067 93.9677C64.1035 94.4624 67.7816 94.6632 71.8786 95.9798C71.2968 93.8358 70.7986 91.9491 71.5052 89.2164C68.5958 89.193 63.539 90.1792 62.1699 90.1681C63.6493 87.0994 73.0535 77.5907 80.8183 80.3916C90.7057 85.2634 92.8991 110.44 112.69 96.9074C109.47 103.556 100.992 104.429 99.0241 104.328C99.0248 104.242 98.9392 104.242 98.9399 104.156C98.4258 104.238 98.5114 104.238 99.0241 104.328C101.635 109.569 101.579 116.5 98.5876 126.659C99.0671 120.245 98.7164 110.658 94.9968 104.98C93.9659 105.485 91.3036 106.662 90.2726 107.167C91.3719 108.802 91.8771 109.833 92.011 114.455ZM92.2082 100.593C89.7419 98.6909 87.7882 96.8781 86.1755 95.2392C86.8477 96.7849 85.5373 100.112 84.1537 101.898C81.6928 99.3107 80.7142 93.3125 82.1033 90.8421C80.5762 89.2038 79.5569 88.2543 78.4432 88.4165C74.2399 89.6663 74.703 95.917 76.9948 98.2459C79.7103 101.092 84.2282 103.267 88.5184 101.847C89.4624 101.513 91.2635 101.014 92.2082 100.593ZM104.335 82.4636C106.74 81.2849 109.995 80.8833 114.286 79.3775C116.327 80.9342 117.091 81.7106 118.458 82.0639C120.347 81.2234 120.863 80.8852 122.5 79.5292C125.745 80.4111 130.353 81.9885 132.401 82.6896C131.032 82.7642 125.546 83.8325 124.09 83.9919C121.582 87.3091 120.195 89.5229 118.296 91.4758C115.921 88.8894 114.828 86.4845 112.623 83.9851C110.574 83.4552 106.386 82.8224 104.335 82.4636ZM159.544 80.7688C162.624 80.8792 169.371 82.5595 175.12 91.2488C172.725 91.0584 167.174 89.6444 165.801 90.1468C166.375 93.2321 165.761 95.1099 165.32 96.7322C168.321 95.9862 175.774 95.0193 180.993 95.1469C176.448 96.394 172.333 97.3021 170.013 98.4815C162.032 101.241 156.627 102.995 144.807 114.88C144.661 111.798 145.188 110.091 146.574 107.963C145.297 107.182 143.764 106.314 141.973 105.53C139.024 110.469 138.049 114.569 137.782 126.547C137.717 123.979 133.262 113.931 137.87 104.983C131.541 104.504 126.771 101.813 124.41 97.4297C146.712 112.071 147.49 79.217 159.544 80.7688ZM151.407 102.953C163.735 102.282 164.433 90.0502 158.192 89.3154C157.593 89.3106 156.558 90.2436 155.178 91.6016C156.347 95.2052 154.424 100.239 152.78 102.45C151.506 101.242 150.077 98.0642 150.605 96.2714C148.88 97.969 146.897 99.7501 144.832 101.188C146.537 101.972 148.758 102.418 151.407 102.953ZM137.78 126.718C137.781 126.633 137.782 126.547 137.782 126.462C137.781 126.633 137.78 126.718 137.78 126.718ZM183.383 117.159C177.762 124.473 163.908 133.946 143.529 124.882C160.716 126.475 171.7 122.713 183.383 117.159ZM181.619 123.648C187.382 130.712 189.266 141.167 190.088 155.978C183.812 138.299 176.563 135.246 163.312 133.513C171.024 132.292 179.628 126.456 181.619 123.648ZM207.826 121.035C209.426 113.689 208.402 92.0302 201.349 75.2008C197.987 67.6432 196.641 64.7228 193.348 59.2195C202.202 64.9387 210.952 72.882 222.121 88.6321C218.71 87.2355 214.37 84.1198 208.581 80.3935C214.727 92.9369 218.498 113.505 214.813 135.468C212.35 133.052 208.02 128.824 199.84 124.48C200.124 131.67 200.093 135.521 197.097 146.279C195.571 133.944 195.53 128.381 189.502 111.817C198.716 115.314 202.21 117.139 207.826 121.035ZM118.512 64.6927C114.585 63.463 112.797 62.4217 108.018 60.7573C98.8428 63.0795 93.8626 65.1788 88.3744 66.5894C92.5079 63.3708 99.9006 59.2372 108.573 55.5417C112.925 57.1171 115.913 57.9969 118.555 59.3018C121.219 57.9541 125.336 56.7892 128.683 55.6181C131.923 57.099 145.475 63.7973 148.445 66.9875C140.933 64.6165 133.508 62.1606 129.067 61.0124C125.808 61.9275 121.431 63.5182 118.512 64.6927ZM184.252 83.6206C184.906 76.8655 187.622 68.9289 178.675 64.1502C178.07 65.0011 173.379 73.6919 167.531 77.239C150.406 67.859 144.174 76.623 137.804 81.2783C146.868 60.8134 165.771 72.6038 166.968 72.7846C179.718 62.1904 172.521 52.6337 172.521 52.6337C172.521 52.6337 200.689 61.5035 184.252 83.6206Z"
        fill="#010101" />
</svg>
