<svg width="260" height="254" viewBox="0 0 260 254" fill="none" xmlns="http://www.w3.org/2000/svg">
    <path
        d="M11.9271 1.20413C10.7912 5.15709 10.3595 10.0188 10.5185 17.2205C10.7003 25.3309 11.5636 31.6011 13.4265 38.4847C14.3125 41.7788 15.7437 45.8681 16.448 47.1631C16.8796 47.9809 16.8796 47.7992 16.4707 45.4819C15.1985 38.2121 13.949 20.3556 14.1307 12.0407L14.1989 8.74657L15.8346 11.132C20.2192 17.5385 25.0582 22.3321 31.2375 26.4668C34.1682 28.3978 39.2571 30.8968 42.1423 31.8055C43.3918 32.2145 44.5958 32.6007 44.823 32.6916C45.1638 32.8051 44.823 33.1459 43.1192 34.4181C40.1204 36.6673 36.7126 39.6433 35.0088 41.4835C33.5321 43.0965 32.3962 44.8004 32.5325 45.1866C32.5552 45.3229 33.214 45.0048 33.9637 44.505C40.8246 39.916 47.2084 37.008 54.2965 35.2133C57.5679 34.3954 63.6564 33.1232 63.77 33.2595C63.8154 33.305 62.2024 34.2364 60.1578 35.3496C42.892 44.664 33.055 51.7067 24.8764 60.5668C20.4464 65.3831 17.4476 69.3133 13.3356 75.7198C8.29215 83.5803 5.3615 90.7593 2.6126 101.846C1.74931 105.344 5.28753e-06 114.182 5.24203e-06 115C5.23318e-06 115.159 0.363496 114.659 0.795142 113.932C2.04464 111.865 3.8621 109.729 5.58868 108.343C7.06537 107.139 13.5401 102.459 13.7218 102.459C13.7672 102.459 13.3583 103.754 12.8358 105.344C6.79275 123.292 6.58828 154.234 12.4041 172.204L13.0402 174.135L13.3129 171.182C13.4719 169.546 13.8127 167.411 14.0626 166.434C14.7214 163.957 16.4707 160.413 18.1291 158.21C19.8784 155.892 23.1726 152.735 25.8079 150.894L27.8298 149.44L27.9661 153.166C28.7158 172 35.2587 188.652 47.5492 202.874C48.0036 203.419 48.3898 203.714 48.3898 203.532C48.3898 203.351 48.2307 201.988 48.049 200.488C47.8673 198.989 47.7309 196.126 47.7309 194.127C47.7309 188.561 48.4579 185.494 50.2299 183.472C51.2977 182.246 52.002 181.837 53.5695 181.519C55.5233 181.087 58.8629 182.064 61.0438 183.699C61.43 183.995 61.8162 184.245 61.8617 184.245C61.9071 184.245 62.0207 183.245 62.0888 181.996C62.6341 172.954 66.8824 163.117 72.9027 156.96L75.0837 154.711L84.5117 151.78C98.6652 147.373 103.868 145.806 103.958 145.919C104.186 146.124 101.369 148.464 99.0741 149.986C96.0071 152.008 89.3053 155.324 83.5576 157.642C78.605 159.641 78.9458 159.391 75.7879 163.321C72.3802 167.547 69.9494 171.863 69.0406 175.316C68.3591 177.861 68.3591 181.473 69.0406 183.881C69.9948 187.357 72.1076 191.151 75.4472 195.354L77.3328 197.717L77.7417 196.035C78.2188 194.059 78.6731 193.377 79.809 192.809C80.536 192.446 80.8086 192.423 81.8764 192.65C84.1709 193.128 89.7596 195.581 94.6895 198.262C104.367 203.532 111.66 206.259 121.292 208.235C125.495 209.098 126.359 209.167 126.768 208.667C127.222 208.122 126.881 206.463 125.904 204.396C123.564 199.42 120.52 197.444 109.911 193.923C106.707 192.878 103.368 191.628 102.527 191.196C99.1195 189.402 97.4838 187.198 96.984 183.677C96.825 182.677 96.7114 179.61 96.7114 176.861C96.6887 171.432 96.984 168.955 98.0745 165.502C98.6652 163.639 100.346 160.027 100.551 160.232C100.619 160.277 100.551 161.686 100.392 163.344C100.006 167.819 100.233 175.43 100.846 177.815C102.027 182.541 104.754 185.608 107.798 185.699C109.047 185.721 109.843 185.108 111.728 182.586C112.591 181.45 113.477 180.36 113.682 180.178C114.023 179.883 114.704 180.155 119.907 182.723C123.11 184.29 126.495 185.903 127.404 186.267L129.062 186.948L130.698 186.312C131.607 185.949 135.082 184.472 138.445 183.018C143.284 180.928 144.624 180.428 144.874 180.655C145.056 180.792 145.805 181.746 146.555 182.791C148.1 184.926 148.895 185.676 150.054 186.062C152.462 186.857 155.62 184.54 157.074 180.905C158.323 177.838 158.664 175.362 158.664 169.024C158.687 165.843 158.618 162.503 158.528 161.64L158.346 160.05L159.005 161.299C159.936 163.094 161.004 166.206 161.572 168.864C162.435 172.954 162.185 181.405 161.049 186.789C160.822 187.766 160.572 188.198 159.505 189.265C157.778 190.992 155.733 191.946 148.577 194.354C144.76 195.627 141.739 196.808 139.717 197.807C137.059 199.125 136.446 199.534 134.923 201.033C133.515 202.442 133.015 203.146 132.22 204.805C131.697 205.918 131.198 207.281 131.129 207.803C130.993 209.098 131.47 209.348 133.947 209.167C140.421 208.712 155.097 203.691 162.73 199.307C166.979 196.876 172.976 194.377 175.998 193.786C177.702 193.446 178.997 193.764 179.769 194.672C180.246 195.263 180.451 195.831 181.019 198.171C181.178 198.807 181.246 198.739 183.427 196.013C187.13 191.424 189.038 188.061 189.833 184.79C190.379 182.586 190.333 178.951 189.72 176.68C188.538 172.227 185.88 167.592 181.359 162.185L179.928 160.481L176.248 158.914C168.615 155.665 161.822 152.076 158.414 149.509C156.824 148.305 155.438 146.873 155.665 146.646C155.711 146.601 159.323 147.759 163.685 149.236C168.069 150.713 174.544 152.825 178.088 153.939L184.563 155.961L186.357 158.005C189.697 161.822 192.628 166.774 194.218 171.386C195.649 175.453 196.74 180.951 196.74 184.018C196.74 184.79 196.808 185.381 196.921 185.335C197.012 185.29 197.921 184.835 198.966 184.29C201.488 182.995 203.555 182.518 205.214 182.882C208.28 183.518 210.121 186.267 210.802 191.174C211.257 194.309 211.098 197.626 210.234 203.896L210.098 205.032L211.393 203.782C218.072 197.33 225.228 184.381 228.5 172.772C230.272 166.525 231.067 161.163 231.135 155.347C231.135 152.984 231.249 151.53 231.385 151.53C231.839 151.53 235.747 154.62 237.542 156.415C242.426 161.277 244.902 166.956 245.493 174.68L245.652 176.816L246.197 175.475C250.15 165.729 252.49 147.85 251.763 133.061C251.218 122.224 249.582 113.409 246.833 106.594C246.402 105.526 246.084 104.595 246.152 104.549C246.356 104.345 249.696 106.412 251.468 107.843C254.33 110.138 256.398 112.591 258.692 116.476C259.374 117.635 259.942 118.589 259.987 118.589C260.101 118.589 259.442 114 258.851 110.638C255.489 91.8271 247.856 75.8789 235.77 62.5433C228.227 54.2057 219.549 47.6629 204.805 39.189C198.353 35.4632 196.785 34.4863 197.103 34.3727C197.489 34.2364 202.033 35.3042 205.713 36.3719C212.779 38.4166 220.639 41.9379 225.728 45.3229C227.273 46.3679 228.545 47.1631 228.545 47.1176C228.545 46.845 226.909 44.4823 225.592 42.8693C223.956 40.8247 221.502 38.5983 218.276 36.2129C217.027 35.3042 216.027 34.4863 216.027 34.3954C216.027 34.3046 217.163 33.8956 218.549 33.464C229.408 30.1926 238.541 23.2181 246.015 12.5405L247.219 10.7912L247.083 16.5844C246.833 28.0116 245.675 40.6429 244.243 48.0945C244.016 49.3213 243.834 50.3436 243.88 50.3891C243.925 50.4345 244.471 49.0941 245.129 47.4357C249.287 36.7809 251.604 22.0822 250.832 11.0866C250.536 6.72467 250.15 4.38469 249.469 2.83986L249.014 1.81753L247.787 1.81753C243.585 1.81753 237.019 2.93072 222.07 6.1567C195.536 11.8817 184.608 13.6083 172.318 13.9945C164.253 14.2671 155.847 12.904 139.24 8.72385L130.675 6.56564L123.905 8.15591C105.185 12.5405 94.8939 13.9036 85.9884 13.1993C76.2196 12.4269 65.2467 10.4504 41.9151 5.27069C23.6951 1.20413 17.2431 6.19945e-05 13.8808 6.18074e-05L12.2906 6.1719e-05L11.9271 1.20413ZM131.993 8.54212C135.082 10.7231 140.217 13.1085 145.578 14.8578C150.304 16.4026 154.825 17.4931 165.048 19.515C176.748 21.855 186.675 24.513 194.354 27.3755C197.603 28.5796 201.351 30.2153 201.215 30.3516C201.17 30.397 199.148 29.9654 196.717 29.3974C178.111 25.0355 160.413 21.8777 147.214 20.5601C143.034 20.1511 131.879 19.8785 132.561 20.1966C132.811 20.3329 134.969 20.9235 137.332 21.5597C164.457 28.6932 189.265 38.9391 204.577 49.3213C208.848 52.2292 209.03 52.411 207.076 51.6613C186.88 44.1188 172.454 39.6888 162.549 38.0303C159.959 37.576 153.507 37.4624 153.143 37.8259C152.984 37.9849 153.734 38.4166 155.574 39.1663C161.345 41.5971 182.723 51.1842 183.177 51.5704C183.268 51.6613 181.655 51.7976 179.565 51.8885C173.431 52.1383 167.161 52.7972 165.23 53.4106L164.48 53.6605L165.684 54.5919C171.568 59.2037 178.361 66.3145 181.95 71.6306C183.154 73.4253 184.472 75.6971 184.472 75.9925C184.472 76.0833 183.268 74.9929 181.791 73.5616C172.545 64.5879 159.232 55.6142 147.191 50.23L143.67 48.6397L140.512 49.3213C136.9 50.071 133.992 50.8434 131.561 51.684L129.88 52.2519L127.926 51.4795C126.858 51.0479 123.86 50.1619 121.27 49.503L116.544 48.3217L109.683 51.7521C95.7799 58.6812 85.7839 65.3603 77.9462 73.0164L75.6062 75.3109L76.3104 74.0614C77.3101 72.244 79.491 69.2224 81.6265 66.6553C84.0574 63.7019 90.5093 57.1591 93.2128 54.8645C94.3941 53.8649 95.3483 53.0244 95.3256 52.9789C95.2802 52.9562 94.326 52.729 93.1901 52.4791C90.3276 51.843 86.2383 51.4114 81.7855 51.2069C75.6971 50.957 75.7198 51.116 81.4675 48.5716C87.8513 45.7318 91.3953 44.2551 100.074 40.7338C103.959 39.1663 107.23 37.8259 107.344 37.735C107.684 37.5305 105.571 37.3034 103.027 37.2806C94.0534 37.1898 79.1502 41.0064 57.4316 48.9351C54.4783 50.0028 51.9793 50.8888 51.8884 50.8888C51.275 50.8888 57.886 46.5497 62.6795 43.8008C80.1044 33.8275 102.164 25.7625 125.859 20.6964L128.017 20.2193L122.338 20.3329C108.139 20.6055 91.8043 22.7637 68.9498 27.3755C63.8382 28.4205 59.6126 29.2384 59.5671 29.193C59.5444 29.1702 60.9302 28.5568 62.6341 27.8299C72.2439 23.786 77.2192 22.4457 94.9621 19.1061C108.797 16.4935 112.932 15.5166 118.793 13.3584C121.474 12.3815 127.063 9.70074 129.267 8.33765C129.948 7.90601 130.63 7.61066 130.743 7.67883C130.88 7.74697 131.425 8.13319 131.993 8.54212ZM66.8142 56.8637C63.7473 63.134 65.4966 70.063 71.8577 76.674L73.7206 78.6278L75.1973 77.9689C77.4464 76.9239 81.0131 75.7426 83.5121 75.1973C86.4428 74.5385 90.7138 74.4703 93.031 75.061C98.6424 76.4923 103.595 80.9223 106.889 87.4652C107.616 88.8964 107.73 88.9646 104.958 86.4656C101.846 83.6712 97.1658 80.9905 93.599 79.9681C91.4635 79.3548 86.8744 79.1048 84.6026 79.4911C82.2399 79.9 79.2638 80.9677 76.1514 82.5126L73.3798 83.8757L72.4029 83.2396C70.8126 82.1491 67.314 78.6278 65.6556 76.4468C64.1108 74.4249 62.2706 71.5397 61.0438 69.3133L60.4304 68.132L59.34 68.859C54.9553 71.835 53.3651 74.4249 52.9561 79.2184C52.7744 81.3312 52.9334 86.3974 53.2969 89.5098L53.4332 90.7593L52.8653 89.9642C51.7521 88.3512 50.23 85.4887 49.4575 83.4895C45.2774 72.8801 49.6847 63.7019 61.9071 57.5226C63.7473 56.5911 67.5185 54.9554 67.6321 55.0463C67.6548 55.069 67.2686 55.8868 66.8142 56.8637ZM197.08 58.0224C198.716 58.8175 201.011 60.1124 202.192 60.9076C204.873 62.725 208.167 65.9283 209.575 68.1092C213.687 74.5385 213.074 81.8992 207.713 90.1686C207.031 91.2137 206.44 92.0315 206.395 91.9634C206.349 91.9179 206.508 90.3958 206.758 88.6011C207.372 84.3073 207.417 79.9 206.895 77.9462C206.349 75.9016 205.259 74.016 203.85 72.562C202.442 71.1308 200.284 69.6314 199.875 69.8131C199.716 69.8585 198.966 70.9036 198.216 72.1304C195.263 76.9239 191.651 81.2176 188.675 83.4895L186.971 84.8071L184.063 83.4213C178.747 80.8769 174.317 79.7864 170.068 80.0363C167.206 80.1953 165.616 80.6043 162.958 81.8992C160.436 83.1033 159.118 83.9893 155.393 86.9881C153.848 88.2376 152.53 89.2145 152.485 89.169C152.303 88.9873 154.416 85.2388 155.62 83.6031C159.323 78.6505 164.139 75.9016 169.932 75.5154C173.681 75.2428 179.36 76.515 184.108 78.6959C185.085 79.1503 186.017 79.5138 186.153 79.5138C186.562 79.5138 189.992 76.0379 191.265 74.3568C195.172 69.1316 195.99 63.1567 193.536 57.7498L192.878 56.2958L193.514 56.4548C193.854 56.523 195.467 57.2499 197.08 58.0224ZM122.656 61.0893C125.109 61.9753 127.699 62.9295 128.449 63.2703L129.789 63.8609L131.743 63.0658C132.811 62.6342 135.491 61.6573 137.695 60.9303L141.693 59.5672L147.577 62.566C155.892 66.8143 162.594 70.79 163.935 72.2667C164.366 72.7665 164.366 72.7665 163.798 72.5847C163.48 72.4939 160.209 71.4488 156.528 70.2675C152.848 69.1088 148.077 67.6322 145.942 66.9961L142.057 65.8601L139.126 66.8143C137.513 67.3368 134.742 68.3137 132.947 68.9725L129.721 70.1993L127.608 69.4269C126.472 68.9953 123.791 67.9729 121.656 67.1551C118.566 65.9283 117.635 65.6557 117.021 65.7693C115.681 66.0192 108.638 68.0638 103.822 69.6314C98.2562 71.4261 95.1893 72.3121 95.053 72.1985C94.9394 72.0622 100.074 68.6772 102.777 67.1324C105.912 65.3376 117.43 59.6354 118.112 59.5445C118.157 59.5218 120.202 60.226 122.656 61.0893ZM42.9828 63.2021C40.5293 67.2914 35.2814 77.9235 33.3958 82.5807C29.2611 92.8266 26.9892 101.596 25.6489 112.455C25.1491 116.454 24.7856 130.244 25.0809 132.765L25.2399 134.015L26.6257 132.992C28.4886 131.629 31.8736 129.744 34.7589 128.449C36.7808 127.563 46.7995 123.587 46.7995 123.678C46.7995 123.701 46.1407 125.541 45.3228 127.79C42.0287 136.809 40.1431 144.147 38.9617 152.326C38.6891 154.348 37.8031 162.185 37.6895 163.571C37.6668 164.116 36.8716 161.049 36.0084 156.937C34.6225 150.258 34.2363 145.26 34.7589 140.285C34.8724 139.172 34.9179 138.218 34.8724 138.172C34.7589 138.036 31.3284 139.899 28.7612 141.489C25.7852 143.329 21.6504 146.487 19.2878 148.736C18.1746 149.804 17.1977 150.644 17.1295 150.576C16.9932 150.417 16.6979 147.873 16.1981 142.33C15.6528 136.264 15.6528 123.451 16.1981 118.635C17.2886 109.047 19.265 101.051 22.5365 92.9175C23.1726 91.35 24.0359 89.3962 24.4675 88.5329C24.8764 87.6923 25.1945 87.0108 25.1263 87.0108C25.0809 87.0108 23.1271 88.1921 20.7644 89.6688C16.448 92.3268 10.2686 95.8709 9.92786 95.8709C9.70068 95.8709 11.2001 93.6445 13.7218 90.3049C19.674 82.4217 27.8298 73.9251 35.0315 68.2001C37.4623 66.2464 42.8693 62.4751 43.2327 62.4751C43.3463 62.4751 43.2327 62.8159 42.9828 63.2021ZM222.843 68.0184C228.227 72.0622 235.61 79.2866 241.04 85.8522C244.107 89.5325 250.127 97.4157 250.127 97.7565C250.127 98.279 246.015 95.9163 239.836 91.8725C237.496 90.3277 235.383 88.9646 235.156 88.851C234.838 88.6692 234.997 89.1917 235.838 91.1001C239.155 98.5289 241.813 109.343 243.017 120.179C243.516 124.859 243.585 138.672 243.13 143.125C242.744 146.828 241.994 152.257 241.835 152.394C241.767 152.462 240.881 151.712 239.836 150.713C237.451 148.395 235.224 146.601 231.976 144.374C229.363 142.58 224.978 139.944 224.592 139.944C224.479 139.944 224.456 141.08 224.547 142.602C224.865 147.759 224.161 153.689 222.366 160.89C221.525 164.366 221.048 165.411 221.048 163.844C221.048 162.731 219.435 150.349 218.981 147.896C218.095 143.216 216.391 136.786 214.46 131.016C213.392 127.813 212.597 125.177 212.688 125.177C212.779 125.177 214.573 125.859 216.664 126.699C221.707 128.699 227.318 131.538 230.794 133.81C232.339 134.81 233.634 135.605 233.679 135.56C234.293 134.946 234.656 124.678 234.247 118.93C233.589 109.57 231.976 100.233 229.681 92.3723C227.182 83.8303 222.82 74.0614 217.004 63.9518C216.845 63.6792 219.98 65.8602 222.843 68.0184ZM126.54 88.6011C127.222 89.1463 128.222 89.7597 128.744 90.0096L129.698 90.4412L130.902 89.8278C131.561 89.5098 132.652 88.8282 133.31 88.3284L134.514 87.4424L138.195 88.5783C142.034 89.7597 145.828 91.0546 145.624 91.1001C145.556 91.1001 143.42 91.4636 140.876 91.8952C138.331 92.3269 136.218 92.7131 136.196 92.7358C135.378 93.9626 130.13 100.846 129.88 101.051C129.403 101.46 129.085 101.119 126.2 97.0068C124.996 95.3257 123.791 93.6445 123.496 93.3037C122.905 92.5768 122.633 92.5086 117.907 91.668C113.091 90.8275 113.296 90.8956 114.386 90.4185C114.886 90.2141 116.681 89.6688 118.362 89.1917C120.043 88.7374 122.201 88.124 123.133 87.8514C124.064 87.556 124.95 87.3743 125.064 87.4652C125.2 87.556 125.859 88.0558 126.54 88.6011ZM86.1247 88.6692C88.8509 89.9869 91.1682 92.7131 95.939 100.074C101.028 107.957 103.936 110.774 108.161 111.887C111.796 112.864 116.817 111.66 121.406 108.729C122.133 108.275 122.769 107.912 122.815 107.957C122.905 108.071 121.838 109.661 121.088 110.547C118.566 113.5 113.659 115.795 108.843 116.226C107.798 116.34 107.253 116.476 107.321 116.635C107.957 118.112 108.843 121.406 109.07 123.042C109.411 125.654 109.206 130.425 108.616 133.833C108.207 136.037 106.866 141.739 106.685 141.921C106.662 141.943 106.685 140.399 106.73 138.468C106.889 132.947 106.276 127.426 105.072 123.246C104.436 121.088 102.913 117.635 102.482 117.362C102.277 117.226 97.0067 119.407 97.0067 119.611C97.0067 119.634 97.2566 120.134 97.5747 120.702C98.3017 121.974 98.8242 124.36 98.8242 126.381L98.8242 127.926L97.2566 126.154C92.8266 121.111 85.4886 115.908 76.6058 111.456C70.8354 108.57 67.6548 107.275 64.1108 106.321C59.5217 105.14 57.2272 104.458 57.3407 104.345C57.3862 104.277 59.7262 104.413 62.5205 104.595C67.5639 104.981 72.2212 105.617 74.2431 106.208C74.811 106.389 75.3336 106.503 75.379 106.458C75.4244 106.412 75.2881 105.731 75.0837 104.935C74.811 103.89 74.7202 102.823 74.7883 101.142L74.8792 98.8243L73.607 98.8243C72.9254 98.8243 71.2443 98.9833 69.8585 99.1877C68.4954 99.3695 66.6552 99.574 65.7919 99.6648L64.2244 99.8011L64.656 99.0514C65.3148 97.8928 69.1088 94.008 70.9717 92.5995C73.2208 90.8729 75.8561 89.3962 77.9007 88.7374C80.3543 87.9422 80.3316 87.9422 82.6943 87.9877C84.5344 88.0331 85.057 88.1467 86.1247 88.6692ZM181.541 89.6461C185.222 90.782 188.493 92.8948 191.651 96.1435C193.446 97.9837 195.717 100.846 195.513 101.028C195.467 101.073 193.559 100.801 191.287 100.415C188.993 100.051 186.653 99.733 186.062 99.733L184.994 99.733L185.017 102.277C185.017 104.004 184.903 105.276 184.654 106.162L184.267 107.503L184.767 107.366C187.289 106.685 194.104 105.89 198.671 105.753L202.306 105.617L198.216 106.753C193.809 107.98 192.878 108.275 187.312 110.365C182.654 112.092 180.723 112.91 178.338 114.204C173.476 116.817 168.683 120.566 162.844 126.291L160.391 128.699L160.391 127.222C160.391 125.268 160.845 123.519 161.708 121.883C162.117 121.156 162.412 120.543 162.367 120.52C162.094 120.27 158.482 118.339 157.869 118.067L157.051 117.726L156.119 119.475C153.757 123.905 152.848 128.449 152.303 138.695L152.144 141.421L151.394 138.24C150.349 133.924 149.94 130.948 149.94 127.858C149.94 124.041 150.531 121.202 152.076 117.43C152.212 117.112 151.985 117.044 150.758 116.908C145.646 116.385 140.444 113.637 137.786 110.07C136.605 108.479 136.514 108.161 137.4 108.798C137.763 109.047 138.967 109.706 140.08 110.274C146.646 113.568 151.621 113.455 156.347 109.888C158.778 108.071 160.731 105.662 164.98 99.2559C169.66 92.1905 171.659 90.1005 174.544 89.1463C175.975 88.6692 179.178 88.8964 181.541 89.6461ZM59.6353 132.788C70.3128 137.968 79.9454 139.921 95.3029 139.967L99.6193 139.967L97.9382 140.626C88.5556 144.329 77.6054 144.806 69.8812 141.898C65.6556 140.285 61.0211 137.15 57.0908 133.174C54.1602 130.244 53.774 129.63 55.4779 130.63C56.1367 131.039 58.0223 131.993 59.6353 132.788ZM204.918 131.766C204.464 132.606 200.943 135.969 198.943 137.468C195.149 140.308 191.196 142.239 186.88 143.352C183.427 144.238 181.359 144.488 177.611 144.488C173.999 144.488 170.75 144.079 167.092 143.125C164.662 142.489 159.777 140.785 159.436 140.444C159.345 140.353 160.368 140.353 161.708 140.467C165.093 140.739 174.271 140.512 177.565 140.081C183.404 139.308 188.97 137.922 194.695 135.809C197.83 134.628 202.578 132.629 204.146 131.788C205.236 131.22 205.214 131.22 204.918 131.766ZM60.3623 141.375C64.0881 144.215 68.6771 146.601 74.2658 148.577L76.6285 149.418L74.6066 149.577C61.4755 150.622 51.9338 158.119 46.6632 171.523C46.2088 172.704 45.7317 173.772 45.5954 173.908C45.2774 174.226 45.5954 169.001 46.118 164.752C47.6855 152.553 51.116 142.511 55.1598 138.308L55.9777 137.445L57.4543 138.876C58.2722 139.672 59.5898 140.785 60.3623 141.375ZM204.487 140.444C208.212 145.737 210.575 152.962 211.938 163.299C212.415 166.797 213.188 175.816 213.051 175.975C212.983 176.021 212.529 174.93 211.984 173.567C209.712 167.683 206.667 162.435 203.737 159.346C199.284 154.666 194.468 152.371 186.062 150.94C184.245 150.644 182.677 150.349 182.563 150.326C182.45 150.281 182.95 150.122 183.699 149.963C187.402 149.122 192.878 146.714 196.74 144.215C199.125 142.67 201.919 140.467 202.669 139.535C202.964 139.149 203.237 138.831 203.26 138.831C203.282 138.808 203.85 139.558 204.487 140.444Z"
        fill="#FE4500" fill-opacity="0.05" />
    <path
        d="M82.2629 98.188C80.3091 99.1422 79.3777 101.232 79.5594 104.254C79.7866 108.343 82.74 111.546 87.7834 113.25C90.5323 114.159 92.7133 114.113 96.0983 113.023C97.5295 112.569 98.779 112.114 98.8699 112.023C98.9608 111.933 98.461 111.41 97.734 110.865C97.0297 110.297 95.6666 109.138 94.7352 108.252C92.1907 105.867 92.3043 105.912 92.2816 107.116C92.2816 107.684 92.0999 108.684 91.8954 109.365C91.4637 110.751 90.1688 113.182 89.8053 113.296C89.4418 113.432 88.1696 111.274 87.5562 109.502C86.6929 106.935 86.443 104.276 86.8747 102.232L87.2382 100.551L86.3749 99.6647C84.5574 97.7791 83.6941 97.4837 82.2629 98.188Z"
        fill="#FE4500" fill-opacity="0.05" />
    <path
        d="M175.27 99.0966C175.021 99.233 174.294 99.8463 173.657 100.46C172.499 101.596 172.499 101.596 172.703 102.527C173.044 103.958 172.771 106.889 172.09 109.047C171.476 110.956 170 114.045 169.659 114.045C169.386 114.045 168.069 111.978 167.637 110.842C167.387 110.229 167.137 109.184 167.069 108.502L166.91 107.252L165.07 108.888C164.07 109.797 162.639 110.978 161.935 111.546C161.208 112.114 160.617 112.637 160.617 112.705C160.617 112.887 163.457 113.727 166.07 114.295C167.546 114.613 168.569 114.704 169.364 114.613C175.702 113.795 180.087 109.956 180.337 105.026C180.496 102.277 179.564 100.392 177.588 99.392C176.315 98.7559 175.952 98.7104 175.27 99.0966Z"
        fill="#FE4500" fill-opacity="0.05" />
    <path
        d="M83.4449 198.891C82.5816 199.254 82.3317 200.186 82.5589 202.14C82.9451 205.32 84.8989 209.659 88.2611 214.68C89.9877 217.27 93.4863 221.95 93.6908 221.95C93.7362 221.95 93.6226 221.2 93.4863 220.291C92.5322 214.884 92.4867 208.183 93.35 204.025C93.8725 201.549 94.0089 201.844 91.578 200.436C88.4656 198.664 85.3305 198.073 83.4449 198.891Z"
        fill="#FE4500" fill-opacity="0.05" />
    <path
        d="M169.433 199.709C168.729 199.959 167.343 200.64 166.366 201.231C164.321 202.458 164.389 202.208 164.935 206.161C165.503 210.5 165.253 217.724 164.367 221.882L164.23 222.518L164.821 221.836C166.389 220.064 169.842 215.248 171.409 212.59C174.022 208.228 175.839 203.344 175.839 200.686C175.839 199.322 172.182 198.754 169.433 199.709Z"
        fill="#FE4500" fill-opacity="0.05" />
    <path
        d="M104.504 206.297C104.504 207.592 106.39 213.839 107.662 216.815L108.139 217.906L109.025 216.838C109.865 215.816 111.706 214.18 112.455 213.771C112.66 213.658 113.5 213.748 114.591 213.998C118.498 214.93 121.815 215.225 128.699 215.225C135.264 215.248 138.49 214.998 143.557 214.135L145.283 213.839L146.601 214.839C147.328 215.407 148.305 216.361 148.759 216.974C149.213 217.588 149.645 218.088 149.736 218.088C149.963 218.088 151.235 215.157 151.871 213.09C152.485 211.09 153.598 206.456 153.484 206.342C153.439 206.297 152.757 206.569 151.962 206.933C146.419 209.432 138.172 211.386 131.198 211.84C125.405 212.226 111.615 209.387 106.049 206.66C104.708 206.002 104.504 205.956 104.504 206.297Z"
        fill="#FE4500" fill-opacity="0.05" />
    <path
        d="M100.573 216.202C100.074 216.997 99.2558 221.836 98.7105 227.061C98.5288 228.924 98.3243 230.946 98.2562 231.537L98.1426 232.582L99.4375 233.082C107.321 236.058 114.636 237.421 117.317 236.399C117.862 236.194 118.453 235.876 118.589 235.694C118.816 235.422 119.066 235.49 120.134 236.103C121.338 236.762 121.588 236.83 123.473 236.83C125.541 236.83 126.518 236.58 127.699 235.785C128.221 235.422 128.335 235.399 128.721 235.694C129.494 236.285 131.993 236.944 133.469 236.944C134.878 236.944 137.763 236.217 138.013 235.808C138.081 235.694 138.49 235.853 138.944 236.149C141.489 237.875 146.578 237.353 155.597 234.399L159.073 233.263L158.914 231.083C158.55 225.789 157.914 221.155 157.051 217.452C156.846 216.588 156.642 216.884 156.233 218.542C155.529 221.473 152.144 229.333 151.258 230.06C150.849 230.424 144.601 231.423 140.285 231.832C134.878 232.355 127.722 232.491 122.905 232.196C115.658 231.741 107.321 230.469 106.457 229.719C105.594 228.924 103.163 223.404 101.437 218.247C101.028 217.02 100.642 216.089 100.573 216.202Z"
        fill="#FE4500" fill-opacity="0.05" />
    <path
        d="M90.1461 223.676C89.8507 223.949 89.9416 227.607 90.3051 229.969C91.3501 236.898 95.6439 244.055 101.323 248.326C107.98 253.346 116.34 254.346 123.133 250.916C124.564 250.189 128.154 247.69 128.449 247.19C128.54 247.053 129.176 247.417 130.017 248.098C132.129 249.802 134.742 251.256 137.309 252.142C139.376 252.847 139.899 252.937 142.671 253.028C145.26 253.096 146.056 253.051 147.782 252.642C156.392 250.597 164.23 242.101 166.843 232.014C167.343 230.106 167.706 226.562 167.547 225.289L167.388 224.222L166.116 224.222C163.071 224.222 160.618 226.493 160.618 229.333C160.618 230.333 161.186 232.423 161.845 233.763C162.14 234.377 162.322 234.945 162.254 234.99C162.163 235.036 161.436 235.149 160.618 235.217C158.323 235.467 154.575 236.308 149.145 237.807C139.558 240.442 136.491 241.079 131.357 241.487C126.859 241.851 121.861 241.351 117.226 240.102C116.295 239.829 112.592 238.67 109.025 237.489C102.936 235.513 99.5968 234.649 96.5299 234.331L95.2349 234.195L95.9165 232.582C97.5749 228.674 96.7116 225.857 93.4175 224.381C92.009 223.745 90.4187 223.404 90.1461 223.676Z"
        fill="#FE4500" fill-opacity="0.05" />
</svg>
