<svg width="35" height="35" viewBox="0 0 35 35" fill="none" xmlns="http://www.w3.org/2000/svg">
<circle cx="17.6229" cy="17.3768" r="17.3768" fill="white"/>
<path d="M13.3689 16.0198C13.1948 16.1048 13.1118 16.2911 13.128 16.5603C13.1482 16.9247 13.4114 17.2102 13.8608 17.362C14.1058 17.443 14.3001 17.4389 14.6018 17.3418C14.7293 17.3013 14.8407 17.2608 14.8488 17.2527C14.8568 17.2446 14.8123 17.198 14.7475 17.1494C14.6848 17.0988 14.5633 16.9956 14.4803 16.9166C14.2536 16.7041 14.2637 16.7081 14.2617 16.8154C14.2617 16.866 14.2455 16.9551 14.2272 17.0158C14.1888 17.1393 14.0734 17.3559 14.041 17.3661C14.0086 17.3782 13.8952 17.1859 13.8406 17.028C13.7636 16.7992 13.7414 16.5624 13.7798 16.3801L13.8122 16.2303L13.7353 16.1514C13.5733 15.9834 13.4964 15.957 13.3689 16.0198Z" fill="#FE4500"/>
<path d="M21.6573 16.1008C21.6351 16.1129 21.5703 16.1676 21.5136 16.2222C21.4104 16.3235 21.4104 16.3235 21.4286 16.4065C21.4589 16.534 21.4346 16.7952 21.3739 16.9875C21.3193 17.1575 21.1877 17.4329 21.1573 17.4329C21.133 17.4329 21.0156 17.2486 20.9771 17.1474C20.9549 17.0928 20.9326 16.9996 20.9265 16.9389L20.9123 16.8276L20.7484 16.9733C20.6593 17.0543 20.5317 17.1596 20.469 17.2102C20.4042 17.2608 20.3516 17.3073 20.3516 17.3134C20.3516 17.3296 20.6046 17.4045 20.8374 17.4551C20.969 17.4835 21.0601 17.4916 21.131 17.4835C21.6958 17.4106 22.0865 17.0685 22.1088 16.6292C22.123 16.3842 22.04 16.2162 21.8638 16.1271C21.7505 16.0704 21.7181 16.0664 21.6573 16.1008Z" fill="#FE4500"/>
<path d="M13.4737 24.9922C13.3968 25.0246 13.3745 25.1076 13.3948 25.2817C13.4292 25.5652 13.6033 25.9518 13.9029 26.3992C14.0568 26.63 14.3685 27.0471 14.3868 27.0471C14.3908 27.0471 14.3807 26.9803 14.3685 26.8993C14.2835 26.4175 14.2795 25.8202 14.3564 25.4498C14.4029 25.2291 14.4151 25.2554 14.1985 25.1299C13.9211 24.972 13.6418 24.9194 13.4737 24.9922Z" fill="#FE4500"/>
<path d="M21.1365 25.0651C21.0737 25.0874 20.9502 25.1481 20.8632 25.2007C20.6809 25.3101 20.687 25.2878 20.7356 25.64C20.7862 26.0267 20.764 26.6705 20.685 27.041L20.6729 27.0977L20.7255 27.0369C20.8652 26.879 21.1729 26.4498 21.3126 26.213C21.5454 25.8243 21.7073 25.389 21.7073 25.1522C21.7073 25.0307 21.3814 24.9801 21.1365 25.0651Z" fill="#FE4500"/>
<path d="M15.3506 25.6522C15.3506 25.7676 15.5186 26.3244 15.632 26.5896L15.6745 26.6867L15.7535 26.5916C15.8284 26.5005 15.9923 26.3547 16.0591 26.3183C16.0774 26.3082 16.1523 26.3163 16.2494 26.3385C16.5977 26.4215 16.8932 26.4479 17.5066 26.4479C18.0917 26.4499 18.3792 26.4276 18.8306 26.3507L18.9845 26.3244L19.1019 26.4134C19.1667 26.4641 19.2537 26.5491 19.2942 26.6037C19.3347 26.6584 19.3732 26.7029 19.3813 26.7029C19.4015 26.7029 19.5149 26.4418 19.5716 26.2576C19.6262 26.0794 19.7254 25.6664 19.7153 25.6563C19.7113 25.6522 19.6505 25.6765 19.5797 25.7089C19.0857 25.9316 18.3508 26.1057 17.7293 26.1462C17.2131 26.1806 15.9842 25.9276 15.4882 25.6846C15.3688 25.6259 15.3506 25.6219 15.3506 25.6522Z" fill="#FE4500"/>
<path d="M15.0008 26.5348C14.9563 26.6057 14.8834 27.0369 14.8348 27.5025C14.8186 27.6685 14.8004 27.8487 14.7943 27.9013L14.7842 27.9944L14.8996 28.039C15.6021 28.3042 16.2539 28.4256 16.4928 28.3345C16.5414 28.3163 16.594 28.288 16.6062 28.2718C16.6264 28.2475 16.6487 28.2536 16.7439 28.3082C16.8511 28.3669 16.8734 28.373 17.0414 28.373C17.2257 28.373 17.3127 28.3507 17.418 28.2799C17.4646 28.2475 17.4747 28.2455 17.5091 28.2718C17.5779 28.3244 17.8006 28.3831 17.9322 28.3831C18.0577 28.3831 18.3148 28.3183 18.3371 28.2819C18.3432 28.2718 18.3796 28.286 18.4201 28.3123C18.6468 28.4661 19.1003 28.4196 19.904 28.1564L20.2138 28.0552L20.1996 27.8608C20.1672 27.3891 20.1105 26.9761 20.0336 26.6461C20.0154 26.5692 19.9972 26.5955 19.9607 26.7433C19.898 27.0045 19.5963 27.7049 19.5174 27.7697C19.4809 27.8021 18.9242 27.8912 18.5395 27.9276C18.0577 27.9742 17.42 27.9863 16.9908 27.96C16.345 27.9195 15.6021 27.8062 15.5251 27.7394C15.4482 27.6685 15.2316 27.1766 15.0777 26.717C15.0413 26.6077 15.0069 26.5247 15.0008 26.5348Z" fill="#FE4500"/>
<path d="M14.0714 27.2009C14.0451 27.2252 14.0532 27.5512 14.0855 27.7617C14.1787 28.3792 14.5613 29.0169 15.0674 29.3975C15.6606 29.8449 16.4056 29.934 17.0109 29.6283C17.1384 29.5635 17.4583 29.3408 17.4846 29.2962C17.4927 29.2841 17.5494 29.3165 17.6243 29.3772C17.8126 29.5291 18.0454 29.6586 18.2741 29.7376C18.4584 29.8003 18.5049 29.8084 18.7519 29.8165C18.9827 29.8226 19.0536 29.8186 19.2074 29.7821C19.9747 29.5999 20.6731 28.8428 20.9059 27.9439C20.9505 27.7739 20.9829 27.458 20.9687 27.3447L20.9545 27.2495L20.8412 27.2495C20.5699 27.2495 20.3512 27.452 20.3512 27.705C20.3512 27.7941 20.4018 27.9804 20.4606 28.0998C20.4869 28.1545 20.5031 28.2051 20.497 28.2091C20.4889 28.2132 20.4241 28.2233 20.3512 28.2294C20.1468 28.2516 19.8127 28.3265 19.3289 28.4601C18.4746 28.695 18.2013 28.7517 17.7437 28.7881C17.3429 28.8205 16.8975 28.776 16.4845 28.6646C16.4015 28.6403 16.0715 28.5371 15.7537 28.4318C15.2111 28.2557 14.9136 28.1787 14.6402 28.1504L14.5249 28.1383L14.5856 27.9945C14.7334 27.6463 14.6564 27.3953 14.3629 27.2637C14.2374 27.207 14.0957 27.1766 14.0714 27.2009Z" fill="#FE4500"/>
<path d="M7.10093 7.37726C6.9997 7.72952 6.96124 8.16275 6.97541 8.8045C6.99161 9.52723 7.06853 10.086 7.23454 10.6994C7.31349 10.9929 7.44103 11.3573 7.50379 11.4727C7.54226 11.5456 7.54226 11.5294 7.50582 11.3229C7.39245 10.6751 7.2811 9.08388 7.2973 8.34293L7.30337 8.04938L7.44913 8.26195C7.83985 8.83285 8.27106 9.26001 8.82171 9.62846C9.08287 9.80054 9.53634 10.0232 9.79345 10.1042C9.9048 10.1406 10.0121 10.1751 10.0323 10.1832C10.0627 10.1933 10.0323 10.2236 9.8805 10.337C9.61327 10.5374 9.30961 10.8026 9.15777 10.9666C9.02618 11.1104 8.92496 11.2622 8.93711 11.2966C8.93913 11.3088 8.99784 11.2804 9.06465 11.2359C9.67603 10.8269 10.2449 10.5678 10.8765 10.4079C11.1681 10.335 11.7106 10.2216 11.7207 10.2338C11.7248 10.2378 11.581 10.3208 11.3988 10.42C9.86026 11.25 8.98367 11.8776 8.25486 12.6672C7.8601 13.0963 7.59287 13.4466 7.22644 14.0175C6.77701 14.7179 6.51586 15.3577 6.2709 16.3456C6.19397 16.6574 6.03809 17.4449 6.03809 17.5178C6.03809 17.5319 6.07048 17.4874 6.10894 17.4226C6.22029 17.2384 6.38224 17.0481 6.5361 16.9246C6.66769 16.8173 7.24466 16.4003 7.26086 16.4003C7.26491 16.4003 7.22847 16.5157 7.1819 16.6574C6.6434 18.2567 6.62518 21.014 7.14344 22.6153L7.20012 22.7874L7.22442 22.5242C7.23859 22.3785 7.26895 22.1882 7.29122 22.1011C7.34993 21.8805 7.50582 21.5646 7.6536 21.3683C7.80948 21.1618 8.10303 20.8804 8.33787 20.7164L8.51804 20.5868L8.53019 20.9188C8.597 22.5971 9.18004 24.081 10.2753 25.3484C10.3158 25.3969 10.3502 25.4233 10.3502 25.4071C10.3502 25.3909 10.336 25.2694 10.3198 25.1358C10.3036 25.0022 10.2915 24.7471 10.2915 24.5689C10.2915 24.0729 10.3562 23.7996 10.5142 23.6195C10.6093 23.5101 10.6721 23.4737 10.8118 23.4454C10.9859 23.4069 11.2834 23.494 11.4778 23.6397C11.5122 23.666 11.5466 23.6883 11.5507 23.6883C11.5547 23.6883 11.5648 23.5992 11.5709 23.4879C11.6195 22.6821 11.9981 21.8056 12.5346 21.2569L12.7289 21.0565L13.5691 20.7954C14.8303 20.4026 15.2939 20.2629 15.302 20.273C15.3222 20.2913 15.0712 20.4998 14.8667 20.6354C14.5934 20.8156 13.9962 21.1112 13.484 21.3177C13.0427 21.4958 13.0731 21.4735 12.7917 21.8238C12.488 22.2003 12.2714 22.585 12.1904 22.8927C12.1297 23.1194 12.1297 23.4413 12.1904 23.6559C12.2754 23.9656 12.4637 24.3037 12.7613 24.6783L12.9293 24.8888L12.9658 24.739C13.0083 24.5629 13.0488 24.5021 13.15 24.4515C13.2148 24.4191 13.2391 24.4171 13.3342 24.4373C13.5387 24.4799 14.0367 24.6985 14.476 24.9374C15.3384 25.4071 15.9883 25.65 16.8467 25.8261C17.2212 25.9031 17.2981 25.9091 17.3345 25.8646C17.375 25.816 17.3447 25.6682 17.2576 25.484C17.0491 25.0406 16.7778 24.8645 15.8324 24.5507C15.547 24.4576 15.2494 24.3462 15.1745 24.3078C14.8708 24.1478 14.725 23.9515 14.6805 23.6377C14.6663 23.5486 14.6562 23.2753 14.6562 23.0304C14.6542 22.5465 14.6805 22.3258 14.7777 22.0181C14.8303 21.8521 14.9801 21.5302 14.9983 21.5484C15.0044 21.5525 14.9983 21.678 14.9842 21.8258C14.9497 22.2246 14.97 22.9028 15.0246 23.1154C15.1299 23.5365 15.3728 23.8098 15.6441 23.8179C15.7555 23.8199 15.8263 23.7652 15.9944 23.5405C16.0713 23.4393 16.1502 23.3421 16.1685 23.3259C16.1988 23.2996 16.2596 23.3239 16.7232 23.5527C17.0086 23.6923 17.3103 23.8361 17.3912 23.8685L17.539 23.9292L17.6848 23.8725C17.7658 23.8401 18.0755 23.7085 18.3751 23.579C18.8063 23.3927 18.9258 23.3482 18.948 23.3684C18.9642 23.3806 19.031 23.4656 19.0978 23.5587C19.2355 23.749 19.3064 23.8158 19.4096 23.8503C19.6242 23.9211 19.9056 23.7146 20.0352 23.3907C20.1465 23.1174 20.1769 22.8967 20.1769 22.3319C20.1789 22.0485 20.1728 21.7509 20.1647 21.674L20.1485 21.5323L20.2072 21.6436C20.2902 21.8035 20.3854 22.0809 20.436 22.3177C20.5129 22.6821 20.4907 23.4352 20.3894 23.915C20.3692 24.0021 20.3469 24.0406 20.2518 24.1357C20.0979 24.2896 19.9157 24.3746 19.278 24.5892C18.9379 24.7026 18.6687 24.8078 18.4885 24.8969C18.2516 25.0143 18.197 25.0508 18.0613 25.1844C17.9358 25.3099 17.8913 25.3726 17.8204 25.5204C17.7739 25.6196 17.7293 25.7411 17.7232 25.7877C17.7111 25.9031 17.7536 25.9253 17.9743 25.9091C18.5512 25.8686 19.859 25.4212 20.5393 25.0305C20.9178 24.8139 21.4523 24.5912 21.7215 24.5386C21.8734 24.5082 21.9888 24.5365 22.0576 24.6175C22.1001 24.6702 22.1183 24.7208 22.1689 24.9293C22.1831 24.986 22.1892 24.9799 22.3835 24.737C22.7135 24.328 22.8836 24.0284 22.9544 23.7369C23.003 23.5405 22.999 23.2166 22.9443 23.0142C22.839 22.6174 22.6022 22.2044 22.1993 21.7226L22.0718 21.5707L21.7438 21.431C21.0636 21.1415 20.4583 20.8217 20.1546 20.5929C20.0129 20.4856 19.8894 20.3581 19.9097 20.3378C19.9137 20.3338 20.2356 20.437 20.6243 20.5686C21.015 20.7002 21.592 20.8885 21.9078 20.9877L22.4848 21.1679L22.6447 21.3501C22.9423 21.6902 23.2034 22.1315 23.3452 22.5425C23.4727 22.9048 23.5699 23.3948 23.5699 23.6681C23.5699 23.7369 23.5759 23.7895 23.5861 23.7855C23.5942 23.7814 23.6751 23.7409 23.7683 23.6923C23.993 23.577 24.1772 23.5344 24.325 23.5668C24.5983 23.6235 24.7623 23.8685 24.823 24.3058C24.8635 24.5851 24.8493 24.8807 24.7724 25.4395L24.7602 25.5407L24.8756 25.4293C25.4708 24.8544 26.1085 23.7004 26.4001 22.6659C26.558 22.1092 26.6288 21.6315 26.6349 21.1132C26.6349 20.9026 26.645 20.7731 26.6572 20.7731C26.6976 20.7731 27.0459 21.0484 27.2058 21.2083C27.641 21.6416 27.8617 22.1477 27.9143 22.836L27.9285 23.0263L27.9771 22.9069C28.3294 22.0384 28.5379 20.4451 28.4731 19.1272C28.4245 18.1615 28.2787 17.376 28.0338 16.7687C27.9953 16.6736 27.967 16.5906 27.9731 16.5865C27.9913 16.5683 28.2889 16.7525 28.4468 16.8801C28.7019 17.0845 28.8861 17.3032 29.0906 17.6493C29.1513 17.7526 29.2019 17.8376 29.206 17.8376C29.2161 17.8376 29.1574 17.4287 29.1047 17.1291C28.8051 15.4528 28.1249 14.0316 27.0479 12.8433C26.3758 12.1003 25.6024 11.5173 24.2885 10.7622C23.7136 10.4301 23.5739 10.3431 23.6023 10.333C23.6367 10.3208 24.0416 10.416 24.3695 10.5111C24.9991 10.6933 25.6996 11.0071 26.1531 11.3088C26.2907 11.4019 26.4041 11.4727 26.4041 11.4687C26.4041 11.4444 26.2583 11.2338 26.1409 11.0901C25.9952 10.9079 25.7765 10.7095 25.4891 10.4969C25.3777 10.416 25.2886 10.3431 25.2886 10.335C25.2886 10.3269 25.3899 10.2905 25.5133 10.252C26.481 9.96047 27.2949 9.33896 27.9609 8.38747L28.0682 8.23158L28.0561 8.74782C28.0338 9.76612 27.9305 10.8917 27.803 11.5557C27.7828 11.6651 27.7666 11.7562 27.7706 11.7602C27.7747 11.7643 27.8232 11.6448 27.882 11.497C28.2524 10.5476 28.4589 9.23774 28.3901 8.2579C28.3638 7.8692 28.3294 7.66069 28.2686 7.52302L28.2281 7.43192L28.1188 7.43192C27.7443 7.43192 27.1592 7.53112 25.8271 7.81859C23.4626 8.32876 22.4888 8.48262 21.3936 8.51703C20.6749 8.54132 19.9258 8.41986 18.446 8.04736L17.6828 7.85503L17.0795 7.99674C15.4113 8.38747 14.4942 8.50893 13.7006 8.44618C12.8301 8.37734 11.8523 8.20122 9.77321 7.73964C8.14959 7.37726 7.57465 7.26997 7.27503 7.26997L7.13332 7.26997L7.10093 7.37726ZM17.8002 8.03116C18.0755 8.22551 18.533 8.43808 19.0108 8.59396C19.4319 8.73162 19.8347 8.8288 20.7458 9.00897C21.7883 9.21749 22.673 9.45435 23.3573 9.70944C23.6468 9.81673 23.9808 9.96249 23.9687 9.97464C23.9646 9.97869 23.7845 9.94022 23.5678 9.88961C21.9098 9.50092 20.3328 9.21952 19.1566 9.1021C18.7841 9.06566 17.79 9.04137 17.8508 9.06971C17.8731 9.08185 18.0654 9.13449 18.2759 9.19117C20.6931 9.82685 22.9038 10.7399 24.2683 11.6651C24.6489 11.9242 24.6651 11.9404 24.491 11.8736C22.6913 11.2015 21.4057 10.8067 20.5231 10.6589C20.2923 10.6184 19.7173 10.6083 19.6849 10.6407C19.6708 10.6549 19.7376 10.6933 19.9016 10.7601C20.4158 10.9767 22.3208 11.8311 22.3613 11.8655C22.3694 11.8736 22.2256 11.8857 22.0394 11.8938C21.4928 11.9161 20.934 11.9748 20.7619 12.0295L20.6951 12.0517L20.8024 12.1347C21.3268 12.5457 21.9321 13.1794 22.2519 13.6531C22.3592 13.813 22.4767 14.0155 22.4767 14.0418C22.4767 14.0499 22.3694 13.9527 22.2378 13.8252C21.4138 13.0255 20.2275 12.2258 19.1545 11.746L18.8407 11.6043L18.5593 11.6651C18.2375 11.7319 17.9783 11.8007 17.7617 11.8756L17.6119 11.9262L17.4378 11.8574C17.3426 11.8189 17.0754 11.74 16.8446 11.6813L16.4235 11.576L15.8122 11.8817C14.5732 12.4991 13.6824 13.0943 12.984 13.7766L12.7755 13.981L12.8382 13.8697C12.9273 13.7077 13.1217 13.4385 13.312 13.2097C13.5286 12.9465 14.1035 12.3635 14.3444 12.159C14.4497 12.0699 14.5347 11.995 14.5327 11.991C14.5287 11.989 14.4436 11.9687 14.3424 11.9465C14.0873 11.8898 13.7229 11.8513 13.3261 11.8331C12.7836 11.8108 12.7856 11.825 13.2978 11.5983C13.8667 11.3452 14.1825 11.2136 14.9558 10.8998C15.302 10.7601 15.5935 10.6407 15.6036 10.6326C15.634 10.6144 15.4457 10.5941 15.219 10.5921C14.4193 10.584 13.0913 10.9241 11.1559 11.6306C10.8927 11.7258 10.67 11.8047 10.6619 11.8047C10.6073 11.8047 11.1964 11.4181 11.6236 11.1731C13.1763 10.2844 15.1421 9.5657 17.2536 9.11425L17.4459 9.07173L16.9398 9.08185C15.6745 9.10615 14.2189 9.29847 12.1823 9.70943C11.7268 9.80256 11.3503 9.87544 11.3462 9.87139C11.3442 9.86937 11.4677 9.81471 11.6195 9.74992C12.4759 9.38957 12.9192 9.27013 14.5003 8.97253C15.7332 8.73972 16.1017 8.65267 16.624 8.46035C16.8628 8.37329 17.3609 8.13441 17.5572 8.01294C17.618 7.97448 17.6787 7.94816 17.6888 7.95423C17.701 7.9603 17.7496 7.99472 17.8002 8.03116ZM11.992 12.3372C11.7187 12.8959 11.8746 13.5134 12.4414 14.1025L12.6074 14.2766L12.739 14.2179C12.9395 14.1248 13.2573 14.0195 13.48 13.9709C13.7411 13.9122 14.1217 13.9061 14.3282 13.9588C14.8283 14.0863 15.2696 14.4811 15.5631 15.0641C15.6279 15.1917 15.6381 15.1977 15.3911 14.975C15.1137 14.726 14.6967 14.4871 14.3788 14.396C14.1885 14.3414 13.7796 14.3191 13.5772 14.3535C13.3666 14.39 13.1014 14.4851 12.8241 14.6228L12.5771 14.7443L12.49 14.6876C12.3483 14.5904 12.0365 14.2766 11.8888 14.0823C11.7511 13.9021 11.5871 13.645 11.4778 13.4466L11.4231 13.3413L11.326 13.4061C10.9352 13.6713 10.7935 13.9021 10.7571 14.3292C10.7409 14.5175 10.7551 14.969 10.7875 15.2463L10.7996 15.3577L10.749 15.2868C10.6498 15.1431 10.5142 14.888 10.4453 14.7098C10.0728 13.7644 10.4656 12.9465 11.5547 12.3959C11.7187 12.3129 12.0548 12.1671 12.0649 12.1752C12.0669 12.1772 12.0325 12.2501 11.992 12.3372ZM23.6002 12.4404C23.746 12.5113 23.9505 12.6267 24.0557 12.6975C24.2946 12.8595 24.5882 13.1449 24.7137 13.3393C25.0801 13.9122 25.0255 14.5681 24.5477 15.305C24.4869 15.3982 24.4343 15.471 24.4303 15.465C24.4262 15.4609 24.4404 15.3253 24.4627 15.1653C24.5173 14.7827 24.5214 14.39 24.4748 14.2159C24.4262 14.0337 24.329 13.8656 24.2035 13.7361C24.078 13.6085 23.8857 13.4749 23.8492 13.4911C23.8351 13.4952 23.7683 13.5883 23.7015 13.6976C23.4383 14.1248 23.1164 14.5074 22.8512 14.7098L22.6994 14.8273L22.4402 14.7038C21.9665 14.477 21.5717 14.3799 21.1932 14.4021C20.9381 14.4163 20.7964 14.4527 20.5595 14.5681C20.3348 14.6754 20.2174 14.7544 19.8854 15.0216C19.7477 15.133 19.6303 15.22 19.6262 15.216C19.61 15.1998 19.7983 14.8657 19.9056 14.72C20.2356 14.2786 20.6648 14.0337 21.181 13.9993C21.515 13.975 22.0212 14.0883 22.4443 14.2827C22.5313 14.3232 22.6143 14.3556 22.6265 14.3556C22.6629 14.3556 22.9686 14.0458 23.082 13.896C23.4302 13.4304 23.5031 12.898 23.2844 12.4161L23.2257 12.2866L23.2824 12.3007C23.3128 12.3068 23.4565 12.3716 23.6002 12.4404ZM16.9681 12.7137C17.1868 12.7927 17.4175 12.8777 17.4844 12.9081L17.6038 12.9607L17.7779 12.8899C17.8731 12.8514 18.1119 12.7643 18.3083 12.6996L18.6646 12.5781L19.1889 12.8453C19.9299 13.2239 20.5271 13.5782 20.6466 13.7098C20.685 13.7543 20.685 13.7543 20.6344 13.7381C20.6061 13.73 20.3145 13.6369 19.9866 13.5316C19.6586 13.4284 19.2335 13.2968 19.0432 13.2401L18.697 13.1389L18.4358 13.2239C18.2921 13.2705 18.0451 13.3575 17.8852 13.4162L17.5977 13.5255L17.4095 13.4567C17.3082 13.4182 17.0693 13.3271 16.879 13.2543C16.6037 13.1449 16.5207 13.1206 16.4661 13.1308C16.3466 13.153 15.719 13.3352 15.2898 13.4749C14.7939 13.6349 14.5206 13.7138 14.5084 13.7037C14.4983 13.6915 14.9558 13.3899 15.1967 13.2522C15.4761 13.0923 16.5025 12.5842 16.5632 12.5761C16.5673 12.574 16.7495 12.6368 16.9681 12.7137ZM9.86836 12.902C9.64971 13.2664 9.18207 14.2138 9.01404 14.6289C8.64558 15.5419 8.44314 16.3233 8.3237 17.291C8.27916 17.6473 8.24677 18.8762 8.27308 19.1009L8.28726 19.2122L8.41075 19.1211C8.57675 18.9997 8.8784 18.8316 9.1355 18.7162C9.31568 18.6373 10.2085 18.283 10.2085 18.2911C10.2085 18.2931 10.1498 18.4571 10.0769 18.6575C9.78333 19.4612 9.6153 20.1151 9.51003 20.8439C9.48573 21.0241 9.40678 21.7226 9.39666 21.846C9.39463 21.8946 9.32378 21.6213 9.24685 21.2549C9.12336 20.6597 9.08894 20.2143 9.1355 19.771C9.14562 19.6718 9.14967 19.5868 9.14562 19.5827C9.1355 19.5706 8.82981 19.7366 8.60105 19.8783C8.33584 20.0423 7.96739 20.3237 7.75685 20.5241C7.65765 20.6192 7.5706 20.6941 7.56453 20.6881C7.55238 20.6739 7.52606 20.4471 7.48152 19.9532C7.43294 19.4126 7.43294 18.2709 7.48152 17.8417C7.5787 16.9874 7.75482 16.2747 8.04635 15.55C8.10303 15.4103 8.17996 15.2362 8.21842 15.1593C8.25486 15.0844 8.28321 15.0236 8.27713 15.0236C8.27308 15.0236 8.09898 15.1289 7.88844 15.2605C7.50379 15.4974 6.95314 15.8132 6.92277 15.8132C6.90253 15.8132 7.03614 15.6148 7.26086 15.3172C7.79126 14.6147 8.51804 13.8575 9.1598 13.3474C9.37641 13.1733 9.85823 12.8372 9.89062 12.8372C9.90075 12.8372 9.89062 12.8676 9.86836 12.902ZM25.896 13.3312C26.3758 13.6915 27.0337 14.3353 27.5176 14.9204C27.7909 15.2483 28.3273 15.9508 28.3273 15.9812C28.3273 16.0278 27.9609 15.8172 27.4103 15.4569C27.2017 15.3192 27.0135 15.1977 26.9932 15.1876C26.9649 15.1714 26.979 15.218 27.054 15.388C27.3495 16.05 27.5864 17.0137 27.6937 17.9793C27.7382 18.3964 27.7443 19.6272 27.7038 20.024C27.6694 20.354 27.6026 20.8379 27.5884 20.85C27.5823 20.8561 27.5034 20.7893 27.4103 20.7002C27.1977 20.4937 26.9993 20.3338 26.7098 20.1354C26.477 19.9754 26.0863 19.7406 26.0518 19.7406C26.0417 19.7406 26.0397 19.8418 26.0478 19.9775C26.0761 20.437 26.0134 20.9654 25.8535 21.6072C25.7785 21.9169 25.736 22.01 25.736 21.8703C25.736 21.7711 25.5923 20.6678 25.5518 20.4492C25.4729 20.0321 25.321 19.4592 25.1489 18.945C25.0538 18.6596 24.9829 18.4247 24.991 18.4247C24.9991 18.4247 25.1591 18.4854 25.3453 18.5604C25.7947 18.7385 26.2948 18.9916 26.6045 19.194C26.7422 19.2831 26.8576 19.3539 26.8616 19.3499C26.9163 19.2952 26.9487 18.3802 26.9122 17.868C26.8535 17.0339 26.7098 16.2019 26.5053 15.5014C26.2826 14.7402 25.8939 13.8697 25.3757 12.9688C25.3615 12.9445 25.6409 13.1389 25.896 13.3312ZM17.3143 15.1653C17.375 15.2139 17.4641 15.2686 17.5107 15.2909L17.5957 15.3293L17.703 15.2747C17.7617 15.2463 17.8589 15.1856 17.9176 15.141L18.0249 15.0621L18.3528 15.1633C18.695 15.2686 19.0331 15.384 19.0148 15.388C19.0088 15.388 18.8185 15.4204 18.5917 15.4589C18.365 15.4974 18.1767 15.5318 18.1747 15.5338C18.1018 15.6431 17.6342 16.2565 17.6119 16.2747C17.5694 16.3112 17.541 16.2808 17.2839 15.9144C17.1766 15.7646 17.0693 15.6148 17.043 15.5844C16.9904 15.5196 16.9661 15.5135 16.545 15.4386C16.1158 15.3637 16.134 15.3698 16.2312 15.3273C16.2758 15.3091 16.4357 15.2605 16.5855 15.218C16.7353 15.1775 16.9276 15.1228 17.0106 15.0985C17.0936 15.0722 17.1726 15.056 17.1827 15.0641C17.1949 15.0722 17.2536 15.1168 17.3143 15.1653ZM13.7128 15.1714C13.9557 15.2888 14.1622 15.5318 14.5874 16.1877C15.0408 16.8902 15.3 17.1412 15.6765 17.2404C16.0004 17.3275 16.4478 17.2202 16.8568 16.959C16.9216 16.9185 16.9782 16.8861 16.9823 16.8902C16.9904 16.9003 16.8952 17.042 16.8284 17.121C16.6037 17.3841 16.1664 17.5886 15.7372 17.6271C15.6441 17.6372 15.5955 17.6493 15.6016 17.6635C15.6583 17.7951 15.7372 18.0887 15.7575 18.2344C15.7879 18.4672 15.7696 18.8924 15.717 19.196C15.6806 19.3924 15.5611 19.9005 15.5449 19.9167C15.5429 19.9188 15.5449 19.7811 15.549 19.609C15.5631 19.1171 15.5085 18.6251 15.4012 18.2526C15.3445 18.0603 15.2089 17.7526 15.1704 17.7283C15.1522 17.7162 14.6825 17.9105 14.6825 17.9287C14.6825 17.9307 14.7048 17.9753 14.7331 18.0259C14.7979 18.1393 14.8445 18.3518 14.8445 18.532L14.8445 18.6697L14.7048 18.5118C14.31 18.0623 13.6561 17.5987 12.8645 17.2019C12.3503 16.9448 12.0669 16.8294 11.7511 16.7444C11.3422 16.6391 11.1377 16.5784 11.1478 16.5683C11.1519 16.5622 11.3604 16.5744 11.6094 16.5906C12.0588 16.625 12.4738 16.6817 12.654 16.7343C12.7046 16.7505 12.7512 16.7606 12.7552 16.7566C12.7593 16.7525 12.7471 16.6918 12.7289 16.6209C12.7046 16.5278 12.6965 16.4326 12.7026 16.2828L12.7107 16.0763L12.5973 16.0763C12.5366 16.0763 12.3868 16.0905 12.2633 16.1087C12.1418 16.1249 11.9778 16.1432 11.9009 16.1513L11.7612 16.1634L11.7997 16.0966C11.8584 15.9933 12.1965 15.6472 12.3625 15.5216C12.5629 15.3678 12.7977 15.2362 12.9799 15.1775C13.1986 15.1066 13.1966 15.1066 13.4071 15.1107C13.5711 15.1147 13.6176 15.1249 13.7128 15.1714ZM22.2155 15.2585C22.5435 15.3597 22.835 15.548 23.1164 15.8375C23.2763 16.0014 23.4788 16.2565 23.4605 16.2727C23.4565 16.2768 23.2864 16.2525 23.084 16.2181C22.8795 16.1857 22.671 16.1573 22.6184 16.1573L22.5232 16.1573L22.5252 16.3841C22.5252 16.5379 22.5151 16.6513 22.4929 16.7302L22.4584 16.8497L22.503 16.8375C22.7277 16.7768 23.335 16.706 23.7419 16.6938L24.0659 16.6817L23.7015 16.7829C23.3087 16.8922 23.2257 16.9185 22.7297 17.1048C22.3147 17.2586 22.1426 17.3315 21.9301 17.4469C21.4968 17.6797 21.0697 18.0138 20.5494 18.5239L20.3307 18.7385L20.3307 18.6069C20.3307 18.4328 20.3712 18.2769 20.4482 18.1312C20.4846 18.0664 20.5109 18.0117 20.5069 18.0097C20.4826 17.9874 20.1607 17.8154 20.106 17.7911L20.0331 17.7607L19.9501 17.9166C19.7396 18.3113 19.6586 18.7162 19.61 19.6293L19.5959 19.8722L19.5291 19.5888C19.4359 19.2041 19.3995 18.9389 19.3995 18.6636C19.3995 18.3235 19.4521 18.0704 19.5898 17.7344C19.6019 17.706 19.5817 17.7 19.4724 17.6878C19.0169 17.6413 18.5533 17.3963 18.3164 17.0785C18.2111 16.9367 18.203 16.9084 18.282 16.9651C18.3144 16.9874 18.4217 17.0461 18.5209 17.0967C19.1059 17.3902 19.5493 17.3801 19.9704 17.0623C20.187 16.9003 20.3611 16.6857 20.7397 16.1148C21.1567 15.4852 21.3349 15.299 21.592 15.2139C21.7195 15.1714 22.005 15.1917 22.2155 15.2585ZM11.3523 19.1029C12.3038 19.5645 13.1621 19.7386 14.5307 19.7426L14.9153 19.7426L14.7655 19.8013C13.9294 20.1313 12.9536 20.1738 12.2653 19.9147C11.8888 19.771 11.4758 19.4916 11.1255 19.1373C10.8644 18.8762 10.83 18.8215 10.9818 18.9106C11.0405 18.947 11.2085 19.0321 11.3523 19.1029ZM24.2987 19.0118C24.2582 19.0867 23.9444 19.3863 23.7662 19.5199C23.4282 19.773 23.0759 19.9451 22.6913 20.0443C22.3835 20.1232 22.1993 20.1455 21.8653 20.1455C21.5434 20.1455 21.2539 20.1091 20.928 20.024C20.7113 19.9673 20.2761 19.8155 20.2457 19.7851C20.2376 19.7771 20.3287 19.7771 20.4482 19.7872C20.7498 19.8115 21.5677 19.7912 21.8612 19.7528C22.3815 19.6839 22.8775 19.5604 23.3877 19.3722C23.667 19.2669 24.0902 19.0887 24.2298 19.0138C24.327 18.9632 24.325 18.9632 24.2987 19.0118ZM11.4171 19.8682C11.7491 20.1212 12.158 20.3338 12.656 20.5099L12.8666 20.5848L12.6864 20.599C11.5163 20.6921 10.666 21.3602 10.1963 22.5546C10.1558 22.6599 10.1133 22.755 10.1012 22.7672C10.0728 22.7955 10.1012 22.3299 10.1477 21.9513C10.2874 20.8642 10.5931 19.9694 10.9535 19.5948L11.0263 19.5179L11.1579 19.6455C11.2308 19.7163 11.3482 19.8155 11.4171 19.8682ZM24.2602 19.7851C24.5922 20.2568 24.8028 20.9006 24.9242 21.8218C24.9667 22.1335 25.0356 22.9372 25.0234 22.9514C25.0174 22.9554 24.9769 22.8583 24.9283 22.7368C24.7258 22.2125 24.4546 21.7448 24.1934 21.4695C23.7966 21.0525 23.3674 20.848 22.6184 20.7204C22.4564 20.6941 22.3167 20.6678 22.3066 20.6658C22.2965 20.6617 22.341 20.6476 22.4078 20.6334C22.7378 20.5585 23.2257 20.3439 23.5699 20.1212C23.7824 19.9835 24.0314 19.7872 24.0982 19.7042C24.1246 19.6698 24.1489 19.6414 24.1509 19.6414C24.1529 19.6394 24.2035 19.7062 24.2602 19.7851Z" fill="#FE4500"/>
</svg>
