<svg width="35" height="35" viewBox="0 0 35 35" fill="none" xmlns="http://www.w3.org/2000/svg">
<circle cx="17.4998" cy="17.3768" r="16.3768" stroke="white" stroke-width="2"/>
<path d="M17.054 8.35634C16.8055 8.52486 16.8107 8.90787 17.0592 9.03043C17.1213 9.06617 17.5095 9.14788 17.9236 9.22448C18.3377 9.29598 18.6794 9.36236 18.6846 9.36747C18.6897 9.37258 16.2361 10.7974 13.2234 12.5387C10.2159 14.275 7.70019 15.7407 7.63807 15.7968C7.46207 15.95 7.47242 16.2513 7.6536 16.3892C7.73125 16.4505 7.84513 16.4965 7.90724 16.4965C8.0056 16.4965 9.43946 15.6743 17.4319 11.0578C18.317 10.5471 19.0417 10.1437 19.0521 10.1641C19.0573 10.1794 18.9486 10.5012 18.8036 10.8791C18.6638 11.257 18.5448 11.6042 18.5448 11.6451C18.5448 11.7625 18.6949 11.9515 18.8347 12.0025C18.9951 12.0638 19.2384 11.977 19.3161 11.834C19.4248 11.6246 20.3048 9.22959 20.3048 9.13767C20.3048 9.0866 20.253 8.98447 20.1909 8.91297C20.0822 8.79041 19.958 8.75977 18.6794 8.52486C17.9133 8.38698 17.261 8.27463 17.23 8.27463C17.1989 8.27463 17.1161 8.31038 17.054 8.35634Z" fill="white"/>
<path d="M24.0571 10.8484C23.8656 10.9301 23.6948 11.1139 23.6223 11.3029C23.5809 11.405 23.5653 13.5651 23.5653 18.2889V25.1268H22.8665H22.1677V19.7239V14.326L22.0487 14.1218C21.9762 13.989 21.8571 13.8767 21.7018 13.8001C21.4844 13.6928 21.4171 13.6877 20.1903 13.6877C18.7772 13.6877 18.6892 13.703 18.4148 13.989L18.2595 14.1524L18.244 19.6421L18.2336 25.1268H17.5089H16.7842V21.072V17.0224L16.6652 16.8488C16.6031 16.7517 16.4478 16.6241 16.3184 16.5577C16.0906 16.4453 16.0544 16.4402 14.7654 16.4556C13.4765 16.4709 13.4403 16.476 13.2436 16.5934C13.1193 16.67 13.0106 16.7977 12.9485 16.9254C12.8553 17.1245 12.8501 17.3441 12.8501 21.1282V25.1268H12.1513H11.4525V22.9666C11.4525 20.8269 11.4525 20.8065 11.3386 20.5818C11.2506 20.4133 11.1575 20.3213 10.9866 20.2345C10.7692 20.1273 10.7019 20.1222 9.47512 20.1222C8.07749 20.1222 7.97396 20.1375 7.71514 20.4082C7.63749 20.4899 7.55467 20.6584 7.52361 20.7861C7.49255 20.9239 7.46667 21.8431 7.46667 23.0688V25.1268H6.81962C6.19845 25.1268 6.16221 25.1319 6.04316 25.2544C5.87233 25.4179 5.87233 25.6528 6.04316 25.8162L6.16739 25.9438H17.483C24.6317 25.9438 28.8349 25.9234 28.8919 25.8928C29.0472 25.8162 29.13 25.5608 29.0575 25.3872C28.9643 25.1727 28.8039 25.1268 28.1465 25.1268H27.5512L27.5408 18.2429L27.5253 11.359L27.3855 11.1497C27.1474 10.7922 27.0698 10.7769 25.5479 10.7769C24.5489 10.782 24.171 10.7973 24.0571 10.8484ZM26.723 18.3604V25.1268H25.5583H24.3936V18.3604V11.5939H25.5583H26.723V18.3604ZM21.3395 19.8158V25.1268H20.2007H19.0619V19.8158V14.5048H20.2007H21.3395V19.8158ZM15.956 21.1946V25.1268H14.8172H13.6784V21.1946V17.2624H14.8172H15.956V21.1946ZM10.6243 23.033V25.1268H9.45959H8.2949V23.0688C8.2949 21.9351 8.31043 20.9903 8.33113 20.975C8.34666 20.9546 8.87466 20.9393 9.49583 20.9393H10.6243V23.033Z" fill="white"/>
</svg>
