<svg width="137" height="134" viewBox="0 0 137 134" fill="none" xmlns="http://www.w3.org/2000/svg">
    <path
        d="M6.28465 0.634453C5.68611 2.71736 5.45867 5.2791 5.54246 9.07383C5.63823 13.3474 6.09311 16.6513 7.07472 20.2785C7.54157 22.0142 8.29573 24.1689 8.66682 24.8513C8.89427 25.2822 8.89427 25.1865 8.67879 23.9654C8.00843 20.1348 7.35004 10.7258 7.44581 6.3445L7.48172 4.60874L8.34362 5.86567C10.654 9.24142 13.2037 11.7672 16.4598 13.9459C18.004 14.9634 20.6855 16.2802 22.2057 16.759C22.8641 16.9745 23.4986 17.178 23.6183 17.2259C23.7978 17.2858 23.6183 17.4653 22.7205 18.1357C21.1403 19.3208 19.3447 20.889 18.4469 21.8586C17.6688 22.7085 17.0703 23.6063 17.1421 23.8098C17.1541 23.8816 17.5012 23.7141 17.8963 23.4507C21.5114 21.0326 24.8752 19.5004 28.6101 18.5547C30.3339 18.1237 33.542 17.4534 33.6019 17.5252C33.6258 17.5491 32.7759 18.0399 31.6985 18.6265C22.6008 23.5345 17.4174 27.2454 13.108 31.914C10.7737 34.4518 9.19354 36.5228 7.02683 39.8985C4.36933 44.0404 2.8251 47.8231 1.37664 53.6649C0.92175 55.5084 2.78612e-06 60.165 2.76215e-06 60.5959C2.75748e-06 60.6797 0.191535 60.4164 0.418979 60.0333C1.07737 58.944 2.03503 57.8187 2.94481 57.0885C3.7229 56.454 7.13457 53.9881 7.23033 53.9881C7.25427 53.9881 7.0388 54.6704 6.76347 55.5084C3.57926 64.9652 3.47152 81.2694 6.53603 90.7383L6.87121 91.7558L7.01486 90.1996C7.09865 89.3377 7.27821 88.2124 7.40989 87.6977C7.75704 86.3929 8.67879 84.5254 9.55266 83.3643C10.4744 82.1433 12.2102 80.4793 13.5988 79.5097L14.6642 78.7436L14.736 80.7068C15.131 90.6305 18.5786 99.4051 25.0548 106.899C25.2942 107.186 25.4977 107.342 25.4977 107.246C25.4977 107.15 25.4139 106.432 25.3181 105.642C25.2224 104.852 25.1505 103.343 25.1505 102.29C25.1505 99.3572 25.5336 97.7411 26.4673 96.6758C27.0299 96.0293 27.401 95.8139 28.227 95.6463C29.2565 95.4188 31.0162 95.9336 32.1654 96.7955C32.3689 96.9511 32.5724 97.0828 32.5963 97.0828C32.6203 97.0828 32.6801 96.556 32.716 95.8977C33.0033 91.1333 35.2419 85.95 38.4141 82.7059L39.5633 81.5208L44.5312 79.9766C51.989 77.6542 54.7302 76.8283 54.7781 76.8881C54.8978 76.9958 53.4135 78.2288 52.2044 79.0309C50.5884 80.0963 47.057 81.844 44.0284 83.065C41.4188 84.1184 41.5983 83.9868 39.9344 86.0577C38.1388 88.2843 36.8579 90.5587 36.3791 92.3783C36.02 93.719 36.02 95.6223 36.3791 96.8912C36.8819 98.7228 37.9951 100.722 39.7548 102.936L40.7484 104.181L40.9639 103.296C41.2153 102.254 41.4547 101.895 42.0532 101.596C42.4363 101.404 42.5799 101.392 43.1426 101.512C44.3516 101.763 47.2964 103.056 49.8941 104.469C54.9936 107.246 58.8362 108.682 63.9118 109.724C66.1264 110.179 66.5813 110.215 66.7968 109.951C67.0362 109.664 66.8566 108.79 66.3419 107.701C65.1089 105.079 63.5048 104.038 57.9145 102.182C56.2266 101.632 54.4669 100.973 54.024 100.746C52.2284 99.8001 51.3665 98.639 51.1031 96.7835C51.0193 96.2568 50.9595 94.6407 50.9595 93.1923C50.9475 90.3313 51.1031 89.0264 51.6777 87.2069C51.989 86.2253 52.8748 84.3219 52.9825 84.4297C53.0184 84.4536 52.9825 85.1958 52.8987 86.0697C52.6952 88.4279 52.8149 92.4381 53.1381 93.695C53.7606 96.185 55.1971 97.801 56.8012 97.8489C57.4596 97.8609 57.8786 97.5376 58.8721 96.2089C59.327 95.6104 59.7939 95.0358 59.9016 94.94C60.0812 94.7844 60.4403 94.928 63.1816 96.2807C64.8695 97.1067 66.6531 97.9566 67.1319 98.1482L68.0058 98.5073L68.8677 98.1721C69.3465 97.9806 71.1781 97.2025 72.9497 96.4363C75.4995 95.335 76.2058 95.0717 76.3374 95.1914C76.4332 95.2632 76.8282 95.766 77.2233 96.3166C78.0373 97.4419 78.4563 97.8369 79.0668 98.0404C80.3357 98.4594 81.9996 97.2384 82.7657 95.3231C83.4241 93.707 83.6037 92.4022 83.6037 89.0624C83.6157 87.3865 83.5797 85.6268 83.5319 85.1719L83.4361 84.3339L83.7833 84.9923C84.274 85.938 84.8367 87.578 85.1359 88.9786C85.5908 91.1333 85.4592 95.5864 84.8606 98.4235C84.7409 98.9382 84.6092 99.1657 84.0466 99.7283C83.1368 100.638 82.0595 101.141 78.2887 102.41C76.2776 103.08 74.6855 103.703 73.6201 104.229C72.2195 104.924 71.8963 105.139 71.0943 105.929C70.3521 106.671 70.0887 107.042 69.6697 107.916C69.3944 108.503 69.1311 109.221 69.0951 109.496C69.0233 110.179 69.2747 110.31 70.5795 110.215C73.9912 109.975 81.7243 107.33 85.7465 105.019C87.985 103.738 91.1453 102.422 92.7374 102.11C93.6352 101.931 94.3175 102.099 94.7245 102.577C94.9759 102.889 95.0836 103.188 95.3829 104.421C95.4667 104.756 95.5026 104.72 96.6518 103.284C98.603 100.866 99.6086 99.0938 100.028 97.3701C100.315 96.2089 100.291 94.2936 99.9677 93.0965C99.3452 90.7502 97.9446 88.3082 95.5625 85.4592L94.8083 84.5614L92.869 83.7354C88.8469 82.0236 85.2676 80.1322 83.472 78.7795C82.6341 78.145 81.9038 77.3909 82.0235 77.2712C82.0475 77.2472 83.9508 77.8577 86.2492 78.6358C88.5596 79.4139 91.9712 80.5272 93.8387 81.1138L97.2503 82.1792L98.196 83.2565C99.9557 85.2676 101.5 87.8773 102.338 90.3073C103.092 92.4501 103.667 95.347 103.667 96.9631C103.667 97.3701 103.703 97.6813 103.762 97.6574C103.81 97.6334 104.289 97.394 104.84 97.1067C106.169 96.4244 107.258 96.173 108.132 96.3645C109.748 96.6997 110.717 98.1482 111.077 100.734C111.316 102.386 111.232 104.134 110.777 107.437L110.705 108.036L111.388 107.378C114.907 103.978 118.678 97.1546 120.402 91.0375C121.335 87.7456 121.754 84.9205 121.79 81.856C121.79 80.611 121.85 79.8449 121.922 79.8449C122.161 79.8449 124.22 81.4729 125.166 82.4186C127.74 84.9803 129.045 87.973 129.356 92.0431L129.44 93.1683L129.727 92.4621C131.81 87.3266 133.043 77.9056 132.66 70.1127C132.373 64.4026 131.511 59.758 130.062 56.1668C129.835 55.6041 129.667 55.1133 129.703 55.0894C129.811 54.9816 131.57 56.071 132.504 56.8251C134.012 58.0342 135.102 59.327 136.311 61.374C136.67 61.9845 136.969 62.4873 136.993 62.4873C137.053 62.4873 136.706 60.0692 136.395 58.2975C134.623 48.3858 130.601 39.9823 124.232 32.9555C120.258 28.5622 115.685 25.1146 107.916 20.6495C104.517 18.6863 103.691 18.1716 103.858 18.1117C104.062 18.0399 106.456 18.6025 108.395 19.1652C112.118 20.2425 116.26 22.098 118.941 23.8816C119.755 24.4323 120.426 24.8513 120.426 24.8273C120.426 24.6837 119.564 23.4387 118.87 22.5888C118.008 21.5114 116.715 20.3383 115.015 19.0814C114.357 18.6025 113.83 18.1716 113.83 18.1237C113.83 18.0758 114.428 17.8604 115.159 17.6329C120.881 15.9091 125.693 12.2341 129.631 6.60786L130.266 5.68611L130.194 8.73865C130.062 14.7599 129.452 21.4157 128.697 25.3421C128.578 25.9885 128.482 26.5272 128.506 26.5511C128.53 26.5751 128.817 25.8688 129.164 24.9949C131.355 19.3806 132.576 11.6356 132.169 5.84174C132.013 3.54335 131.81 2.31036 131.451 1.49635L131.211 0.957672L130.565 0.957672C128.35 0.957672 124.891 1.54423 117.014 3.24408C103.032 6.26071 97.2743 7.17048 90.7981 7.37399C86.5485 7.51764 82.1193 6.79939 73.3687 4.59678L68.8557 3.45955L65.2885 4.2975C55.4246 6.60786 50.0018 7.3261 45.3093 6.95501C40.1619 6.54801 34.38 5.50655 22.086 2.77722C12.4855 0.634454 9.0858 5.055e-07 7.31413 4.06931e-07L6.47618 3.6031e-07L6.28465 0.634453ZM69.55 4.501C71.1781 5.6502 73.8834 6.90712 76.7085 7.82888C79.1985 8.64289 81.5806 9.21748 86.9675 10.2829C93.1324 11.5159 98.3636 12.9164 102.41 14.4248C104.122 15.0592 106.097 15.9211 106.025 15.9929C106.001 16.0169 104.936 15.7894 103.655 15.4902C93.8507 13.1918 84.5254 11.5278 77.5704 10.8335C75.3678 10.6181 69.4902 10.4744 69.8493 10.642C69.981 10.7138 71.1182 11.0251 72.3632 11.3602C86.6562 15.1191 99.7283 20.5179 107.797 25.9885C110.047 27.5208 110.143 27.6165 109.113 27.2215C98.4714 23.2472 90.8699 20.9129 85.6507 20.039C84.286 19.7996 80.8863 19.7398 80.6948 19.9313C80.611 20.0151 81.006 20.2425 81.9757 20.6376C85.0162 21.9184 96.2807 26.9701 96.5201 27.1736C96.568 27.2215 95.7181 27.2933 94.6168 27.3412C91.3847 27.4729 88.0807 27.82 87.0632 28.1432L86.6682 28.2749L87.3026 28.7657C90.4031 31.1958 93.9823 34.9426 95.8737 37.7438C96.5082 38.6895 97.2025 39.8865 97.2025 40.0422C97.2025 40.09 96.568 39.5154 95.7899 38.7613C90.9178 34.0328 83.903 29.3044 77.5585 26.4673L75.703 25.6294L74.0391 25.9885C72.1357 26.3835 70.6035 26.7905 69.3226 27.2335L68.4368 27.5327L67.4073 27.1257C66.8446 26.8983 65.2645 26.4314 63.8998 26.0843L61.4099 25.4618L57.7948 27.2694C50.4687 30.9204 45.2015 34.4398 41.0716 38.474L39.8386 39.683L40.2097 39.0246C40.7365 38.067 41.8856 36.4749 43.0109 35.1222C44.2918 33.566 47.6915 30.1184 49.116 28.9094C49.7384 28.3826 50.2412 27.9397 50.2293 27.9158C50.2053 27.9038 49.7025 27.7841 49.104 27.6524C47.5957 27.3172 45.441 27.0898 43.0947 26.9821C39.8865 26.8504 39.8985 26.9342 42.9271 25.5935C46.2909 24.0971 48.1583 23.319 52.7311 21.4636C54.7781 20.6376 56.5019 19.9313 56.5618 19.8834C56.7413 19.7757 55.6281 19.656 54.2873 19.644C49.5589 19.5961 41.7061 21.6072 30.262 25.785C28.7059 26.3476 27.3891 26.8145 27.3412 26.8145C27.018 26.8145 30.5015 24.5281 33.0273 23.0796C42.2089 17.8244 53.8324 13.5748 66.3179 10.9054L67.4552 10.654L64.4625 10.7138C56.9808 10.8575 48.3738 11.9947 36.3312 14.4248C33.6378 14.9754 31.4112 15.4064 31.3873 15.3824C31.3753 15.3704 32.1055 15.0472 33.0034 14.6642C38.067 12.5334 40.6886 11.8271 50.0377 10.0674C57.3279 8.69077 59.5066 8.17603 62.595 7.03881C64.0076 6.52406 66.9524 5.11151 68.1135 4.39327C68.4727 4.16583 68.8318 4.0102 68.8916 4.04612C68.9635 4.08203 69.2508 4.28553 69.55 4.501ZM35.206 29.9628C33.5899 33.2667 34.5117 36.9178 37.8635 40.4013L38.8451 41.4308L39.6232 41.0836C40.8083 40.533 42.6877 39.9105 44.0045 39.6232C45.5487 39.276 47.7992 39.2401 49.0202 39.5513C51.977 40.3055 54.5866 42.6398 56.3224 46.0874C56.7054 46.8415 56.7653 46.8774 55.3048 45.5607C53.6649 44.0883 51.1989 42.6757 49.3195 42.137C48.1942 41.8138 45.7761 41.6821 44.5791 41.8856C43.3341 42.1011 41.7659 42.6637 40.1259 43.4778L38.6655 44.196L38.1508 43.8608C37.3128 43.2862 35.4693 41.4308 34.5955 40.2816C33.7814 39.2162 32.8118 37.6959 32.1654 36.5228L31.8422 35.9003L31.2676 36.2833C28.9572 37.8515 28.1193 39.2162 27.9038 41.742C27.808 42.8553 27.8918 45.5248 28.0834 47.1647L28.1552 47.8231L27.8559 47.4042C27.2694 46.5542 26.4673 45.0459 26.0603 43.9925C23.8577 38.4022 26.18 33.566 32.6203 30.3099C33.5899 29.8191 35.5771 28.9572 35.6369 29.0051C35.6489 29.0171 35.4454 29.448 35.206 29.9628ZM103.846 30.5733C104.708 30.9923 105.917 31.6746 106.54 32.0936C107.952 33.0512 109.688 34.7391 110.43 35.8883C112.597 39.276 112.274 43.1545 109.449 47.5119C109.089 48.0626 108.778 48.4935 108.754 48.4576C108.73 48.4336 108.814 47.6316 108.946 46.6859C109.269 44.4234 109.293 42.1011 109.018 41.0716C108.73 39.9943 108.156 39.0007 107.414 38.2346C106.671 37.4804 105.534 36.6903 105.319 36.7861C105.235 36.8101 104.84 37.3607 104.445 38.0071C102.889 40.533 100.985 42.7954 99.417 43.9925L98.5192 44.6868L96.987 43.9566C94.1858 42.6159 91.8515 42.0413 89.613 42.1729C88.1047 42.2567 87.2667 42.4722 85.8662 43.1545C84.5374 43.789 83.8431 44.2559 81.8799 45.836C81.0659 46.4944 80.3716 47.0091 80.3476 46.9852C80.2519 46.8894 81.3652 44.9143 81.9996 44.0523C83.9508 41.4427 86.4886 39.9943 89.5412 39.7908C91.5164 39.6471 94.509 40.3175 97.0109 41.4667C97.5257 41.7061 98.0165 41.8976 98.0883 41.8976C98.3038 41.8976 100.111 40.0661 100.782 39.1803C102.841 36.427 103.272 33.2787 101.979 30.4296L101.632 29.6635L101.967 29.7473C102.146 29.7832 102.996 30.1663 103.846 30.5733ZM64.6301 32.1893C65.9229 32.6562 67.2876 33.159 67.6826 33.3385L68.3889 33.6498L69.4184 33.2308C69.981 33.0034 71.3935 32.4886 72.5547 32.1055L74.6615 31.3873L77.762 32.9674C82.1433 35.206 85.6746 37.3009 86.3809 38.079C86.6083 38.3423 86.6083 38.3423 86.3091 38.2465C86.1415 38.1987 84.4177 37.648 82.4784 37.0255C80.5392 36.415 78.0253 35.6369 76.9001 35.3017L74.8531 34.7032L73.3088 35.206C72.4589 35.4813 70.9985 35.996 70.0528 36.3432L68.353 36.9896L67.2397 36.5826C66.6411 36.3552 65.2286 35.8165 64.1033 35.3855C62.4753 34.7391 61.9845 34.5955 61.6613 34.6553C60.955 34.787 57.2441 35.8644 54.7063 36.6903C51.7735 37.636 50.1574 38.1029 50.0856 38.043C50.0257 37.9712 52.7311 36.1876 54.1557 35.3736C55.8076 34.4279 61.8768 31.4232 62.2359 31.3753C62.2599 31.3634 63.3372 31.7345 64.6301 32.1893ZM22.6487 33.3026C21.3558 35.4574 18.5906 41.0597 17.597 43.5137C15.4183 48.9125 14.2212 53.5332 13.515 59.2552C13.2516 61.362 13.0601 68.6283 13.2157 69.957L13.2995 70.6154L14.0297 70.0768C15.0113 69.3585 16.795 68.3649 18.3152 67.6826C19.3806 67.2157 24.6597 65.1209 24.6597 65.1687C24.6597 65.1807 24.3126 66.1503 23.8816 67.3355C22.1459 72.0878 21.1523 75.9544 20.5298 80.2639C20.3862 81.3293 19.9193 85.4592 19.8595 86.1894C19.8475 86.4767 19.4285 84.8606 18.9736 82.6939C18.2434 79.1745 18.0399 76.541 18.3152 73.9194C18.3751 73.3328 18.399 72.83 18.3751 72.8061C18.3152 72.7343 16.5077 73.7159 15.155 74.5538C13.5868 75.5234 11.4081 77.1874 10.1632 78.3725C9.5766 78.9351 9.06186 79.378 9.02594 79.3421C8.95412 79.2583 8.7985 77.9176 8.53514 74.9967C8.24785 71.8005 8.24785 65.049 8.53514 62.5112C9.10974 57.4596 10.1512 53.2459 11.875 48.9604C12.2102 48.1344 12.6651 47.1049 12.8925 46.65C13.108 46.2071 13.2756 45.848 13.2396 45.848C13.2157 45.848 12.1862 46.4704 10.9413 47.2485C8.66682 48.6491 5.41078 50.5166 5.23122 50.5166C5.11151 50.5166 5.90158 49.3434 7.23033 47.5837C10.3667 43.4299 14.6642 38.9528 18.4589 35.9362C19.7398 34.9067 22.5888 32.9196 22.7803 32.9196C22.8402 32.9196 22.7803 33.0991 22.6487 33.3026ZM117.421 35.8404C120.258 37.9712 124.149 41.7779 127.01 45.2375C128.626 47.1767 131.798 51.3306 131.798 51.5101C131.798 51.7855 129.631 50.5405 126.375 48.4097C125.142 47.5957 124.029 46.8775 123.909 46.8176C123.742 46.7218 123.825 46.9972 124.268 48.0027C126.016 51.9171 127.417 57.6152 128.051 63.3253C128.314 65.7912 128.35 73.0694 128.111 75.4157C127.907 77.3669 127.512 80.228 127.429 80.2998C127.393 80.3357 126.926 79.9407 126.375 79.4139C125.118 78.1929 123.945 77.2472 122.233 76.0741C120.857 75.1284 118.546 73.7398 118.343 73.7398C118.283 73.7398 118.271 74.3383 118.319 75.1404C118.486 77.8577 118.115 80.9821 117.17 84.7768C116.727 86.6084 116.475 87.159 116.475 86.333C116.475 85.7465 115.625 79.2224 115.386 77.9296C114.919 75.4636 114.021 72.0759 113.004 69.0353C112.441 67.3474 112.022 65.9588 112.07 65.9588C112.118 65.9588 113.064 66.3179 114.165 66.7609C116.823 67.8143 119.779 69.3106 121.611 70.5077C122.425 71.0344 123.107 71.4534 123.131 71.4295C123.454 71.1062 123.646 65.6955 123.43 62.6669C123.083 57.7349 122.233 52.8149 121.024 48.6731C119.707 44.1721 117.409 39.0246 114.345 33.6977C114.261 33.554 115.913 34.7032 117.421 35.8404ZM66.6771 46.6859C67.0362 46.9732 67.5629 47.2964 67.8382 47.4281L68.341 47.6555L68.9754 47.3323C69.3226 47.1647 69.8972 46.8056 70.2443 46.5423L70.8788 46.0754L72.8181 46.6739C74.8411 47.2964 76.8402 47.9788 76.7325 48.0027C76.6966 48.0027 75.5713 48.1942 74.2306 48.4217C72.8899 48.6491 71.7766 48.8526 71.7646 48.8646C71.3337 49.511 68.5684 53.1381 68.4368 53.2459C68.1854 53.4614 68.0178 53.2818 66.4975 51.1151C65.863 50.2293 65.2286 49.3434 65.073 49.1639C64.7617 48.7808 64.6181 48.7449 62.1282 48.302C59.5904 47.8591 59.6981 47.895 60.2727 47.6436C60.5361 47.5358 61.4818 47.2485 62.3676 46.9972C63.2534 46.7577 64.3906 46.4345 64.8814 46.2909C65.3722 46.1353 65.8391 46.0395 65.899 46.0874C65.9708 46.1353 66.3179 46.3986 66.6771 46.6859ZM45.3811 46.7218C46.8176 47.4161 48.0386 48.8526 50.5525 52.7311C53.2339 56.885 54.7662 58.3694 56.9927 58.9559C58.908 59.4707 61.5536 58.8362 63.9717 57.292C64.3547 57.0526 64.6899 56.861 64.7139 56.885C64.7617 56.9448 64.1991 57.7828 63.8041 58.2497C62.4753 59.8059 59.8896 61.0149 57.3518 61.2423C56.8012 61.3022 56.5139 61.374 56.5498 61.4578C56.885 62.2359 57.3518 63.9717 57.4716 64.8336C57.6511 66.2102 57.5434 68.7241 57.2321 70.5197C57.0167 71.6808 56.3104 74.6855 56.2146 74.7813C56.2027 74.7932 56.2146 73.9792 56.2386 72.9617C56.3224 70.0528 55.9991 67.1439 55.3647 64.9413C55.0295 63.8041 54.2275 61.9845 54 61.8409C53.8923 61.7691 51.1151 62.9182 51.1151 63.026C51.1151 63.038 51.2468 63.3013 51.4144 63.6006C51.7974 64.2709 52.0727 65.5279 52.0727 66.5933L52.0727 67.4073L51.2468 66.4736C48.9125 63.8161 45.0459 61.0748 40.3654 58.7285C37.3248 57.2082 35.6489 56.5259 33.7814 56.0231C31.3634 55.4006 30.1543 55.0415 30.2142 54.9816C30.2381 54.9457 31.4711 55.0176 32.9435 55.1133C35.601 55.3168 38.055 55.652 39.1204 55.9632C39.4197 56.059 39.695 56.1189 39.7189 56.0949C39.7429 56.071 39.6711 55.7119 39.5633 55.2929C39.4197 54.7422 39.3718 54.1796 39.4077 53.2938L39.4556 52.0728L38.7852 52.0728C38.4261 52.0728 37.5403 52.1565 36.81 52.2643C36.0918 52.36 35.1222 52.4678 34.6673 52.5157L33.8413 52.5875L34.0687 52.1925C34.4159 51.5819 36.415 49.535 37.3966 48.7928C38.5817 47.883 39.9703 47.1049 41.0477 46.7577C42.3405 46.3388 42.3286 46.3388 43.5735 46.3627C44.5431 46.3866 44.8185 46.4465 45.3811 46.7218ZM95.6582 47.2366C97.5975 47.8351 99.3213 48.9484 100.985 50.6602C101.931 51.6298 103.128 53.1382 103.02 53.2339C102.996 53.2579 101.991 53.1142 100.794 52.9107C99.5846 52.7192 98.3516 52.5516 98.0404 52.5516L97.4778 52.5516L97.4898 53.8923C97.4898 54.8021 97.4299 55.4724 97.2982 55.9393L97.0947 56.6456L97.3581 56.5738C98.6868 56.2146 102.278 55.7957 104.684 55.7238L106.599 55.652L104.445 56.2505C102.122 56.897 101.632 57.0526 98.6988 58.1539C96.2448 59.0637 95.2273 59.4946 93.9704 60.1769C91.4086 61.5536 88.8828 63.5288 85.8063 66.5454L84.5135 67.8143L84.5135 67.0362C84.5135 66.0067 84.7529 65.085 85.2078 64.2231C85.4232 63.84 85.5789 63.5168 85.5549 63.5048C85.4113 63.3731 83.5079 62.3556 83.1847 62.212L82.7538 62.0324L82.263 62.9542C81.018 65.2885 80.5392 67.6826 80.2519 73.0814L80.1681 74.5179L79.7731 72.842C79.2224 70.5676 79.0069 68.9994 79.0069 67.3714C79.0069 65.3603 79.3182 63.8639 80.1322 61.8768C80.204 61.7092 80.0843 61.6733 79.4379 61.6015C76.7444 61.3261 74.0032 59.8777 72.6026 57.9983C71.9801 57.1603 71.9322 56.9927 72.3991 57.3279C72.5906 57.4596 73.2251 57.8067 73.8116 58.106C77.2712 59.8418 79.8928 59.7819 82.3827 57.9025C83.6635 56.9448 84.693 55.6759 86.9316 52.3002C89.3975 48.5773 90.451 47.476 91.9712 46.9732C92.7254 46.7218 94.4133 46.8415 95.6582 47.2366ZM31.4232 69.969C37.0495 72.6983 42.1251 73.7278 50.2173 73.7518L52.4917 73.7518L51.6059 74.0989C46.662 76.0502 40.8921 76.3015 36.822 74.7693C34.5955 73.9194 32.1534 72.2674 30.0825 70.1725C28.5383 68.6283 28.3348 68.3051 29.2326 68.8318C29.5797 69.0473 30.5733 69.55 31.4232 69.969ZM107.976 69.4303C107.737 69.8733 105.881 71.6449 104.828 72.435C102.829 73.9313 100.746 74.9489 98.4714 75.5354C96.6518 76.0023 95.5625 76.134 93.5873 76.134C91.6839 76.134 89.9721 75.9185 88.0448 75.4157C86.764 75.0805 84.1903 74.1827 84.0107 74.0032C83.9628 73.9553 84.5015 73.9553 85.2078 74.0151C86.9914 74.1588 91.8276 74.0391 93.5633 73.8116C96.6398 73.4046 99.5727 72.6744 102.589 71.5611C104.241 70.9387 106.743 69.8852 107.569 69.4423C108.144 69.143 108.132 69.143 107.976 69.4303ZM31.8063 74.494C33.7695 75.9903 36.1876 77.2472 39.1324 78.2887L40.3773 78.7316L39.3119 78.8154C32.3928 79.3661 27.3651 83.3164 24.5879 90.3791C24.3485 91.0016 24.0971 91.5642 24.0253 91.6361C23.8577 91.8037 24.0253 89.0504 24.3006 86.8119C25.1266 80.3836 26.9342 75.0925 29.065 72.8779L29.4959 72.423L30.274 73.1772C30.705 73.5962 31.3993 74.1827 31.8063 74.494ZM107.749 74.0032C109.712 76.7923 110.957 80.599 111.675 86.0457C111.926 87.8892 112.333 92.6416 112.262 92.7254C112.226 92.7494 111.986 92.1748 111.699 91.4565C110.502 88.3561 108.898 85.5908 107.354 83.9628C105.007 81.4968 102.47 80.2878 98.0404 79.5336C97.0828 79.378 96.2568 79.2224 96.1969 79.2104C96.1371 79.1865 96.4004 79.1027 96.7955 79.0189C98.7467 78.576 101.632 77.3071 103.667 75.9903C104.924 75.1763 106.396 74.0151 106.791 73.5243C106.947 73.3208 107.09 73.1532 107.102 73.1532C107.114 73.1413 107.413 73.5363 107.749 74.0032Z"
        fill="white" />
    <path
        d="M43.3455 51.7376C42.316 52.2403 41.8252 53.3416 41.9209 54.9338C42.0406 57.0885 43.5968 58.7764 46.2543 59.6742C47.7028 60.153 48.852 60.1291 50.6356 59.5545C51.3898 59.3151 52.0482 59.0756 52.0961 59.0278C52.1439 58.9799 51.8806 58.7045 51.4975 58.4172C51.1264 58.118 50.4082 57.5075 49.9174 57.0406C48.5767 55.7837 48.6365 55.8076 48.6245 56.4421C48.6245 56.7413 48.5288 57.2681 48.421 57.6272C48.1936 58.3574 47.5113 59.6383 47.3197 59.6981C47.1282 59.7699 46.4578 58.6327 46.1346 57.699C45.6797 56.3463 45.5481 54.9457 45.7755 53.8684L45.967 52.9825L45.5122 52.5157C44.5545 51.5221 44.0996 51.3665 43.3455 51.7376Z"
        fill="white" />
    <path
        d="M92.3539 52.2165C92.2223 52.2883 91.8392 52.6115 91.504 52.9347C90.8935 53.5332 90.8935 53.5332 91.0012 54.024C91.1808 54.7782 91.0372 56.3224 90.678 57.4596C90.3548 58.4652 89.5767 60.0932 89.3972 60.0932C89.2535 60.0932 88.5592 59.0039 88.3318 58.4053C88.2001 58.0821 88.0684 57.5315 88.0325 57.1724L87.9487 56.514L86.9791 57.3759C86.4524 57.8547 85.6982 58.4772 85.3271 58.7764C84.9441 59.0757 84.6328 59.351 84.6328 59.3869C84.6328 59.4827 86.1292 59.9256 87.5058 60.2249C88.2839 60.3925 88.8226 60.4404 89.2415 60.3925C92.5814 59.9615 94.8917 57.9385 95.0234 55.3408C95.1072 53.8924 94.6164 52.8988 93.575 52.3721C92.9046 52.0369 92.7131 52.013 92.3539 52.2165Z"
        fill="white" />
    <path
        d="M43.9687 104.792C43.5138 104.984 43.3821 105.475 43.5018 106.504C43.7053 108.18 44.7348 110.467 46.5064 113.112C47.4162 114.477 49.2597 116.943 49.3675 116.943C49.3914 116.943 49.3315 116.548 49.2597 116.069C48.7569 113.22 48.733 109.688 49.1879 107.498C49.4632 106.193 49.535 106.349 48.2542 105.606C46.6142 104.673 44.9622 104.362 43.9687 104.792Z"
        fill="white" />
    <path
        d="M89.2774 105.223C88.9063 105.355 88.1761 105.714 87.6614 106.025C86.584 106.672 86.6199 106.54 86.9072 108.623C87.2065 110.909 87.0748 114.716 86.608 116.907L86.5361 117.242L86.8474 116.883C87.6734 115.949 89.4929 113.411 90.3189 112.011C91.6955 109.712 92.6532 107.139 92.6532 105.738C92.6532 105.02 90.7259 104.721 89.2774 105.223Z"
        fill="white" />
    <path
        d="M55.0654 108.695C55.0654 109.377 56.059 112.669 56.7294 114.237L56.9807 114.812L57.4476 114.249C57.8905 113.71 58.8602 112.849 59.2552 112.633C59.3629 112.573 59.8058 112.621 60.3804 112.753C62.4394 113.244 64.1871 113.399 67.8143 113.399C71.2738 113.411 72.9737 113.28 75.6431 112.825L76.5529 112.669L77.2472 113.196C77.6303 113.495 78.145 113.998 78.3844 114.321C78.6239 114.644 78.8513 114.908 78.8992 114.908C79.0189 114.908 79.6893 113.363 80.0244 112.274C80.3476 111.221 80.9342 108.779 80.8744 108.719C80.8504 108.695 80.4913 108.838 80.0723 109.03C77.1515 110.347 72.8061 111.376 69.1311 111.616C66.0785 111.819 58.8123 110.323 55.8794 108.886C55.1732 108.539 55.0654 108.515 55.0654 108.695Z"
        fill="white" />
    <path
        d="M52.9938 113.914C52.7304 114.333 52.2995 116.883 52.0122 119.636C51.9164 120.618 51.8087 121.683 51.7727 121.994L51.7129 122.545L52.3952 122.808C56.5491 124.377 60.4037 125.095 61.8162 124.556C62.1035 124.448 62.4147 124.281 62.4866 124.185C62.6063 124.041 62.7379 124.077 63.3006 124.4C63.935 124.748 64.0667 124.784 65.0603 124.784C66.1496 124.784 66.6644 124.652 67.2868 124.233C67.5622 124.041 67.622 124.029 67.8255 124.185C68.2325 124.496 69.5493 124.843 70.3274 124.843C71.0696 124.843 72.5899 124.46 72.7216 124.245C72.7575 124.185 72.9729 124.269 73.2124 124.424C74.5531 125.334 77.2345 125.059 81.9869 123.503L83.8184 122.904L83.7346 121.755C83.5431 118.966 83.2079 116.524 82.753 114.572C82.6453 114.118 82.5376 114.273 82.3221 115.147C81.951 116.691 80.1674 120.833 79.7005 121.216C79.485 121.408 76.1931 121.934 73.9186 122.15C71.0696 122.425 67.2988 122.497 64.761 122.341C60.9423 122.102 56.5491 121.432 56.0942 121.037C55.6393 120.618 54.3584 117.709 53.4486 114.991C53.2332 114.345 53.0297 113.854 52.9938 113.914Z"
        fill="white" />
    <path
        d="M47.5001 117.852C47.3445 117.996 47.3924 119.923 47.5839 121.168C48.1346 124.819 50.3971 128.59 53.3898 130.841C56.8972 133.486 61.3024 134.013 64.8817 132.205C65.6358 131.822 67.5272 130.506 67.6828 130.242C67.7307 130.17 68.0659 130.362 68.5088 130.721C69.6221 131.619 70.9987 132.385 72.3514 132.852C73.4407 133.223 73.7161 133.271 75.1765 133.319C76.5412 133.355 76.9601 133.331 77.8699 133.115C82.4068 132.038 86.5367 127.561 87.9134 122.246C88.1767 121.24 88.3683 119.373 88.2845 118.702L88.2007 118.14L87.5303 118.14C85.9262 118.14 84.6334 119.337 84.6334 120.833C84.6334 121.36 84.9327 122.461 85.2798 123.167C85.4354 123.491 85.5312 123.79 85.4953 123.814C85.4474 123.838 85.0643 123.898 84.6334 123.934C83.4244 124.065 81.4492 124.508 78.5882 125.298C73.5365 126.687 71.9205 127.022 69.2151 127.238C66.8449 127.429 64.2113 127.166 61.7693 126.507C61.2785 126.364 59.3272 125.753 57.4478 125.131C54.2397 124.089 52.48 123.634 50.8639 123.467L50.1816 123.395L50.5407 122.545C51.4146 120.486 50.9597 119.002 49.2239 118.224C48.4817 117.888 47.6438 117.709 47.5001 117.852Z"
        fill="white" />
</svg>
